<?xml version="1.0" standalone="no"?>
<!DOCTYPE svg PUBLIC "-//W3C//DTD SVG 1.1//EN" "http://www.w3.org/Graphics/SVG/1.1/DTD/svg11.dtd" >
<svg xmlns="http://www.w3.org/2000/svg" xmlns:xlink="http://www.w3.org/1999/xlink" version="1.1">
<metadata>
Created by FontForge 20190801 at Wed Mar  1 19:56:02 2023
 By www-data
Copyright (c) 2008 by Stefan Gandl. All rights reserved/Alle Rechte vorbehalten. This font software is the property of Neubau. You may not reproduce, modify, adapt, translate, alter nor create derivative works of the font software. You may not reverse engineer, decompile, decrypt, nor disassemble the font software.
</metadata>
<defs>
<font id="NBInternationalPronormal400100" horiz-adv-x="677" >
  <font-face 
    font-family="NBInternationalPronormal400100"
    font-weight="400"
    font-stretch="normal"
    units-per-em="1000"
    panose-1="2 11 5 3 4 1 0 2 0 4"
    ascent="800"
    descent="-200"
    x-height="506"
    cap-height="704"
    bbox="-130.333 -208 1110 923"
    underline-thickness="85"
    underline-position="-131"
    unicode-range="U+0009-1D7FF"
  />
<missing-glyph 
d="M204 292l25 110q1 6 -5 6h-122q-5 0 -5 5v59q0 5 5 5h140q5 0 6 4l48 209q1 4 6 4h54q7 0 5 -7l-47 -204q-2 -6 5 -6h102q5 0 6 5l48 208q1 4 6 4h54q7 0 5 -7l-47 -204q-1 -6 5 -6h120q5 0 5 -5v-59q0 -5 -5 -5h-138q-4 0 -6 -5l-26 -110q-2 -6 5 -6h120q5 0 5 -5v-59
q0 -5 -5 -5h-138q-4 0 -5 -4l-47 -210q-1 -4 -6 -4h-53q-7 0 -5 7l46 206q2 5 -4 5h-105q-3 0 -5 -5l-47 -209q-1 -4 -6 -4h-53q-7 0 -5 7l45 205q2 6 -4 6h-122q-5 0 -5 5v59q0 5 5 5h139q5 0 6 5zM404 408h-103q-5 0 -6 -5l-26 -109q-2 -7 5 -7h104q3 0 5 5l25 110
q2 6 -4 6z" />
    <glyph glyph-name=".notdef" 
d="M204 292l25 110q1 6 -5 6h-122q-5 0 -5 5v59q0 5 5 5h140q5 0 6 4l48 209q1 4 6 4h54q7 0 5 -7l-47 -204q-2 -6 5 -6h102q5 0 6 5l48 208q1 4 6 4h54q7 0 5 -7l-47 -204q-1 -6 5 -6h120q5 0 5 -5v-59q0 -5 -5 -5h-138q-4 0 -6 -5l-26 -110q-2 -6 5 -6h120q5 0 5 -5v-59
q0 -5 -5 -5h-138q-4 0 -5 -4l-47 -210q-1 -4 -6 -4h-53q-7 0 -5 7l46 206q2 5 -4 5h-105q-3 0 -5 -5l-47 -209q-1 -4 -6 -4h-53q-7 0 -5 7l45 205q2 6 -4 6h-122q-5 0 -5 5v59q0 5 5 5h139q5 0 6 5zM404 408h-103q-5 0 -6 -5l-26 -109q-2 -7 5 -7h104q3 0 5 5l25 110
q2 6 -4 6z" />
    <glyph glyph-name="glyph1" horiz-adv-x="0" 
 />
    <glyph glyph-name="glyph2" horiz-adv-x="333" 
 />
    <glyph glyph-name="uni0000" horiz-adv-x="5" 
 />
    <glyph glyph-name="uni0009" unicode="&#x9;" horiz-adv-x="265" 
 />
    <glyph glyph-name="uni000A" unicode="&#xa;" horiz-adv-x="265" 
 />
    <glyph glyph-name="nonmarkingreturn" unicode="&#xd;" horiz-adv-x="15" 
 />
    <glyph glyph-name="uni0010" horiz-adv-x="265" 
 />
    <glyph glyph-name="uni0011" horiz-adv-x="265" 
 />
    <glyph glyph-name="uni0012" horiz-adv-x="265" 
 />
    <glyph glyph-name="uni0013" horiz-adv-x="265" 
 />
    <glyph glyph-name="uni0014" horiz-adv-x="265" 
 />
    <glyph glyph-name="uni001E" horiz-adv-x="15" 
 />
    <glyph glyph-name=".null" horiz-adv-x="15" 
 />
    <glyph glyph-name="space" unicode=" " horiz-adv-x="200" 
 />
    <glyph glyph-name="exclam" unicode="!" horiz-adv-x="260" 
d="M162 208h-64q-5 0 -5 5l-10 293v193q0 5 5 5h84q5 0 5 -5v-193l-10 -293q0 -5 -5 -5zM190 0h-120q-5 0 -5 5v122q0 5 5 5h120q5 0 5 -5v-122q0 -5 -5 -5z" />
    <glyph glyph-name="quotedbl" unicode="&#x22;" horiz-adv-x="360" 
d="M295 431h-60q-5 0 -5 5l-10 105v158q0 5 5 5h80q5 0 5 -5v-158l-10 -105q0 -5 -5 -5zM125 431h-60q-5 0 -5 5l-10 105v158q0 5 5 5h80q5 0 5 -5v-158l-10 -105q0 -5 -5 -5z" />
    <glyph glyph-name="numbersign" unicode="#" horiz-adv-x="719" 
d="M225 292l25 110q2 6 -5 6h-122q-5 0 -5 5v59q0 5 5 5h140q5 0 6 4l48 209q1 4 6 4h54q7 0 5 -7l-47 -204q-1 -6 5 -6h102q5 0 6 5l48 208q1 4 6 4h54q7 0 5 -7l-47 -204q-2 -6 5 -6h120q5 0 5 -5v-59q0 -5 -5 -5h-138q-4 0 -6 -5l-26 -110q-1 -6 5 -6h120q5 0 5 -5v-59
q0 -5 -5 -5h-138q-4 0 -5 -4l-47 -210q-1 -4 -6 -4h-53q-7 0 -5 7l46 206q2 5 -4 5h-105q-3 0 -5 -5l-47 -209q-1 -4 -6 -4h-53q-7 0 -5 7l45 205q2 6 -4 6h-122q-5 0 -5 5v59q0 5 5 5h139q5 0 6 5zM425 408h-103q-5 0 -6 -5l-26 -109q-2 -7 5 -7h104q3 0 5 5l25 110
q2 6 -4 6z" />
    <glyph glyph-name="dollar" unicode="$" horiz-adv-x="616" 
d="M271 83v231q0 6 -9 7q-43 7 -75 18t-65 32t-51 57t-18 85q0 84 61.5 137t150.5 62q6 0 6 5v80q0 5 4 5h69q5 0 5 -5v-83q0 -4 7 -5q82 -14 137 -64.5t55 -133.5q0 -5 -5 -5h-90q-5 0 -5 5q0 38 -25.5 68t-68.5 42q-5 2 -5 -4v-206q0 -6 5 -7q49 -8 84 -20t68.5 -34
t51 -60.5t17.5 -91.5q0 -77 -55 -136t-166 -70q-5 0 -5 -4v-83q0 -5 -5 -5h-69q-4 0 -4 5v82q0 5 -5 5q-106 9 -165.5 66t-59.5 135q0 5 5 5h89q6 0 6 -6q0 -36 33 -70t92 -44q5 1 5 5zM354 79q56 10 88.5 43t32.5 76q0 91 -121 111q-5 1 -5 -6v-219q0 -3 1 -4.5t4 -0.5z
M263 626q-49 -10 -79.5 -40.5t-30.5 -72.5q0 -79 113 -97q5 -1 5 4v202q0 6 -8 4z" />
    <glyph glyph-name="percent" unicode="%" horiz-adv-x="809" 
d="M760 190q0 -200 -147 -200q-148 0 -148 200q0 199 148 199q147 0 147 -199zM696 190q0 137 -83 137t-83 -137q0 -138 83 -138t83 138zM344 515q0 -200 -147 -200q-148 0 -148 200q0 199 148 199q147 0 147 -199zM280 515q0 137 -83 137t-83 -137q0 -138 83 -138t83 138z
M161 8l420 688q5 8 10 8h52q8 0 4 -8l-422 -688q-5 -8 -10 -8h-50q-8 0 -4 8z" />
    <glyph glyph-name="ampersand" unicode="&#x26;" horiz-adv-x="655" 
d="M295 75q73 0 131 46q4 5 0 9l-194 211q-3 3 -8 1q-84 -43 -84 -120q0 -63 43.5 -105t111.5 -42zM285 629q-42 0 -70.5 -22t-28.5 -53q0 -45 67 -108q3 -3 8 -1q121 36 121 109q0 31 -28.5 53t-68.5 22zM612 0q-60 0 -115 55q-3 3 -7 0q-86 -65 -195 -65q-120 0 -185 65.5
t-65 156.5q0 122 118 190q9 5 2 12q-40 42 -54.5 72t-14.5 68q0 67 52 113.5t137 46.5q81 0 134 -48t53 -112q0 -115 -154 -167q-7 -2 -2 -9l158 -171q5 -5 7 4q7 21 7 43v87q0 5 5 5h85q5 0 5 -5v-87q0 -67 -31 -120q-4 -6 0 -8l16 -13q7 -6 9 -7.5t7 -5t8 -4t8 -1t12 -0.5
q5 0 5 -5v-85q0 -5 -5 -5z" />
    <glyph glyph-name="quotesingle" unicode="'" horiz-adv-x="190" 
d="M125 431h-60q-5 0 -5 5l-10 105v158q0 5 5 5h80q5 0 5 -5v-158l-10 -105q0 -5 -5 -5z" />
    <glyph glyph-name="parenleft" unicode="(" horiz-adv-x="289" 
d="M156 253q0 -248 127 -446q3 -5 -3 -5h-67q-5 0 -7 5q-55 85 -90.5 207t-35.5 239t35.5 239t90.5 207q2 5 7 5h67q6 0 3 -5q-127 -198 -127 -446z" />
    <glyph glyph-name="parenright" unicode=")" horiz-adv-x="289" 
d="M133 253q0 248 -127 446q-3 5 3 5h67q4 0 7 -5q55 -85 90.5 -207t35.5 -239t-35.5 -239t-90.5 -207q-3 -5 -7 -5h-67q-6 0 -3 5q127 198 127 446z" />
    <glyph glyph-name="asterisk" unicode="*" horiz-adv-x="434" 
d="M107 542l-49 16q-4 2 -3 6l18 57q2 5 7 3l48 -15l53 -24q3 -2 5.5 -1t1.5 5l-6 59v51q0 5 5 5h60q5 0 5 -5v-51l-7 -59q-1 -7 8 -4l53 24l48 15q5 2 7 -3l18 -57q1 -4 -3 -6l-49 -16l-64 -14q-2 0 -2.5 -2t1.5 -4l41 -44l30 -43q4 -4 -1 -7l-48 -35q-4 -2 -8 2l-29 40
l-26 46q-4 8 -8 0l-27 -47l-29 -40q-4 -4 -8 -2l-48 35q-5 3 -1 7l30 43l41 45q3 4 -2 6zM189 582h-2l2 -1v1zM244 581l2 1h-2v-1z" />
    <glyph glyph-name="plus" unicode="+" horiz-adv-x="613" 
d="M348 203v-198q0 -5 -5 -5h-84q-5 0 -5 5v198q0 5 -5 5h-191q-5 0 -5 5v80q0 5 5 5h191q5 0 5 5v198q0 5 5 5h84q5 0 5 -5v-198q0 -5 5 -5h202q5 0 5 -5v-80q0 -5 -5 -5h-202q-5 0 -5 -5z" />
    <glyph glyph-name="comma" unicode="," horiz-adv-x="260" 
d="M114 0h-44q-5 0 -5 5v122q0 5 5 5h120q5 0 5 -5v-121q0 -58 -35 -98t-90 -40q-5 0 -5 5v55q0 5 5 5q16 0 32.5 18.5t16.5 43.5q0 5 -5 5z" />
    <glyph glyph-name="hyphen" unicode="-" horiz-adv-x="433" 
d="M373 208h-313q-5 0 -5 5v80q0 5 5 5h313q5 0 5 -5v-80q0 -5 -5 -5z" />
    <glyph glyph-name="period" unicode="." horiz-adv-x="260" 
d="M190 0h-120q-5 0 -5 5v122q0 5 5 5h120q5 0 5 -5v-122q0 -5 -5 -5z" />
    <glyph glyph-name="slash" unicode="/" horiz-adv-x="541" 
d="M490 697l-341 -694q-1 -3 -5 -3h-89q-7 0 -4 7l341 694q2 3 5 3h89q8 0 4 -7z" />
    <glyph glyph-name="zero" unicode="0" horiz-adv-x="645" 
d="M590 352q0 -363 -267 -363q-268 0 -268 363q0 362 268 362q267 0 267 -362zM490 352q0 138 -39 207.5t-128 69.5t-128 -69.5t-39 -207.5t39 -208t128 -70t128 70.5t39 207.5z" />
    <glyph glyph-name="one" unicode="1" horiz-adv-x="390" 
d="M204 634v65q0 5 5 5h85q5 0 5 -5v-694q0 -5 -5 -5h-85q-5 0 -5 5v461q0 14 -9.5 22t-21.5 8h-153q-5 0 -5 5v70q0 5 5 5h124q25 0 42.5 16.5t17.5 41.5z" />
    <glyph glyph-name="two" unicode="2" horiz-adv-x="529" 
d="M25 5v70q0 9 4 13l278 271q86 82 85 143q-1 47 -35 87t-98 40q-55 0 -91 -35.5t-36 -82.5q0 -5 -5 -5h-85q-5 0 -5 5q0 89 62.5 146t159.5 57q105 0 166.5 -61t61.5 -151q0 -107 -111 -206l-220 -203q-2 -1 -1 -4.5t5 -3.5h322q5 0 5 -5v-75q0 -5 -5 -5h-452q-5 0 -5 5z
" />
    <glyph glyph-name="three" unicode="3" horiz-adv-x="521" 
d="M205 325v75q0 5 5 5h35q57 0 92.5 31.5t35.5 79.5q0 46 -35.5 79.5t-92.5 33.5q-53 -1 -89.5 -37t-35.5 -81q0 -5 -5 -5h-85q-5 0 -5 5q-1 88 61.5 145t158.5 58q99 0 161 -56t62 -142q0 -61 -35.5 -100.5t-63.5 -45.5q-5 -1 -5 -5t5 -5q36 -8 75.5 -54.5t39.5 -115.5
q0 -89 -64.5 -144.5t-174.5 -55.5q-106 0 -165.5 57.5t-59.5 142.5q0 5 5 5h85q5 0 5 -5q0 -45 34 -80t96 -35q61 0 102.5 33t41.5 82q0 58 -41 94t-103 36h-35q-5 0 -5 5z" />
    <glyph glyph-name="four" unicode="4" horiz-adv-x="570" 
d="M355 704h84q5 0 5 -5v-448q0 -5 5 -5h111q5 0 5 -5v-75q0 -5 -5 -5h-111q-5 0 -5 -5v-151q0 -5 -5 -5h-85q-5 0 -5 5v151q0 5 -5 5h-329q-5 0 -5 5v70q0 9 3 15l332 448q3 5 10 5zM339 546l-215 -293q-1 -2 0.5 -4.5t4.5 -2.5h215q5 0 5 5v294q0 2 -2 3t-4.5 0.5
t-3.5 -2.5z" />
    <glyph glyph-name="five" unicode="5" horiz-adv-x="562" 
d="M46 335l44 362q1 7 7 7h375q5 0 5 -5v-75q0 -5 -5 -5h-294q-5 0 -5 -5l-22 -165q0 -3 0.5 -4.5t3 -1t4.5 2.5q55 43 122 43q109 0 176.5 -68.5t67.5 -178.5q0 -118 -64 -185t-180 -67q-65 0 -115 21.5t-76 55t-38.5 65t-12.5 58.5q0 5 5 5h92q5 0 5 -5q0 -36 34.5 -75.5
t105.5 -39.5q66 0 107.5 45t41.5 122q0 71 -42 116.5t-107 45.5q-52 0 -84.5 -16.5t-56.5 -52.5q-3 -5 -11 -5h-78q-5 0 -5 5z" />
    <glyph glyph-name="six" unicode="6" horiz-adv-x="563" 
d="M340 699l-116 -218q-2 -3 1 -6t6 -1q17 11 59 11q103 0 170 -68t67 -178q0 -111 -67 -180.5t-182 -69.5t-181.5 69.5t-66.5 180.5q0 76 38 145l172 315q2 5 7 5h88q7 0 5 -5zM427 239q0 77 -37.5 121t-111.5 44q-73 0 -110.5 -44t-37.5 -121t37.5 -121t110.5 -44
q74 0 111.5 44t37.5 121z" />
    <glyph glyph-name="seven" unicode="7" horiz-adv-x="467" 
d="M444 699v-67q0 -10 -3 -18l-228 -609q-2 -5 -6 -5h-92q-6 0 -4 5l236 609q2 5 -4 5h-349q-5 0 -5 5v75q0 5 5 5h445q5 0 5 -5z" />
    <glyph glyph-name="eight" unicode="8" horiz-adv-x="558" 
d="M279 -10q-110 0 -174.5 55.5t-64.5 144.5q0 38 13 70.5t32.5 52t37 31t32.5 16.5q5 1 5 5t-5 5q-28 9 -63.5 49.5t-35.5 101.5q0 85 62 139t161 54t161 -54t62 -139q0 -61 -35.5 -101.5t-63.5 -49.5q-5 -1 -5 -5t5 -5q15 -5 32.5 -16.5t37 -31t32.5 -52t13 -70.5
q0 -89 -64.5 -144.5t-174.5 -55.5zM279 75q61 0 102.5 33t41.5 82q0 58 -41 94t-103 36t-103 -36t-41 -94q0 -49 41.5 -82t102.5 -33zM407 521q0 45 -35.5 76.5t-92.5 31.5t-92.5 -31.5t-35.5 -76.5q0 -49 36 -82.5t92 -33.5t92 33.5t36 82.5z" />
    <glyph glyph-name="nine" unicode="9" horiz-adv-x="563" 
d="M223 5l116 218q1 3 -1.5 6t-5.5 1q-16 -11 -59 -11q-103 0 -170 68t-67 178q0 111 67 180.5t182 69.5t181.5 -69.5t66.5 -180.5q0 -76 -38 -145l-172 -315q-3 -5 -7 -5h-88q-8 0 -5 5zM136 465q0 -77 37.5 -121t111.5 -44q73 0 110.5 44t37.5 121t-37.5 121t-110.5 44
q-74 0 -111.5 -44t-37.5 -121z" />
    <glyph glyph-name="colon" unicode=":" horiz-adv-x="260" 
d="M190 374h-120q-5 0 -5 5v122q0 5 5 5h120q5 0 5 -5v-122q0 -5 -5 -5zM190 0h-120q-5 0 -5 5v122q0 5 5 5h120q5 0 5 -5v-122q0 -5 -5 -5z" />
    <glyph glyph-name="semicolon" unicode=";" horiz-adv-x="260" 
d="M190 374h-120q-5 0 -5 5v122q0 5 5 5h120q5 0 5 -5v-122q0 -5 -5 -5zM114 0h-44q-5 0 -5 5v122q0 5 5 5h120q5 0 5 -5v-121q0 -58 -35 -98t-90 -40q-5 0 -5 5v55q0 5 5 5q16 0 32.5 18.5t16.5 43.5q0 5 -5 5z" />
    <glyph glyph-name="less" unicode="&#x3c;" horiz-adv-x="518" 
d="M30 251v56q0 3 3 5l448 193q7 3 7 -5v-78q0 -2 -3 -4l-372 -164q-2 -1 -2 -3t2 -3l372 -160q3 -2 3 -4v-78q0 -8 -7 -5l-448 189q-3 2 -3 5v56z" />
    <glyph glyph-name="equal" unicode="=" horiz-adv-x="564" 
d="M506 101h-448q-5 0 -5 5v80q0 5 5 5h448q5 0 5 -5v-80q0 -5 -5 -5zM506 318h-448q-5 0 -5 5v79q0 5 5 5h448q5 0 5 -5v-79q0 -5 -5 -5z" />
    <glyph glyph-name="greater" unicode="&#x3e;" horiz-adv-x="518" 
d="M488 251v-56q0 -3 -3 -5l-448 -189q-7 -3 -7 5v78q0 2 3 4l372 160q2 1 2 3t-2 3l-372 164q-3 2 -3 4v78q0 8 7 5l448 -193q3 -2 3 -5v-56z" />
    <glyph glyph-name="question" unicode="?" horiz-adv-x="511" 
d="M25 511v10q0 85 62 139t159 54q105 0 169.5 -59t64.5 -146q0 -33 -9 -60.5t-21.5 -45.5t-37 -36.5t-42.5 -28.5t-52 -27q-15 -8 -18 -26v-71q0 -5 -5 -5h-85q-5 0 -5 5v79q0 66 72 96q67 28 88 55t21 65q0 47 -37.5 83.5t-102.5 36.5q-58 0 -92 -31.5t-34 -76.5v-10
q0 -5 -5 -5h-85q-5 0 -5 5zM312 0h-120q-5 0 -5 5v122q0 5 5 5h120q5 0 5 -5v-122q0 -5 -5 -5z" />
    <glyph glyph-name="at" unicode="@" horiz-adv-x="1011" 
d="M447 -208q-200 0 -310 138.5t-68 353.5q24 138 99 236.5t180 146t230 47.5q84 0 158.5 -30.5t128.5 -86.5t76.5 -144t2.5 -194q-13 -71 -41 -125.5t-62.5 -84.5t-68 -44.5t-64.5 -14.5q-37 0 -58 26t-26 51q-3 8 -8 1q-29 -38 -76 -58t-94 -20q-115 0 -166 72t-31 191
q22 128 101.5 195.5t193.5 67.5q45 0 76.5 -19t42.5 -37q2 -4 5.5 -3t5.5 5l14 39q2 5 8 5h74q6 0 4 -5l-78 -380q-4 -18 4.5 -33.5t31.5 -15.5q49 0 91 56t59 146q17 91 -1.5 164.5t-65 120t-113.5 71.5t-149 25q-93 0 -169.5 -33.5t-127 -90.5t-82 -124t-44.5 -142
q-9 -63 -5 -122.5t30 -112t65.5 -91.5t100.5 -62t136 -23q68 0 150.5 25t148.5 61q5 3 5 -3v1l-13 -63q-2 -6 -5 -8q-44 -30 -128.5 -52.5t-167.5 -22.5zM343 253q-16 -83 12 -132t99 -49t116.5 48.5t61.5 132.5q35 181 -107 181q-71 0 -118.5 -49t-63.5 -132z" />
    <glyph glyph-name="A" unicode="A" horiz-adv-x="616" 
d="M248 704h123q4 0 6 -5l233 -694q2 -5 -5 -5h-94q-3 0 -5 5l-46 143q-1 5 -7 5h-290q-4 0 -6 -5l-47 -143q-2 -5 -5 -5h-93q-7 0 -6 5l236 694q2 5 6 5zM190 233h237q6 0 4 5l-117 366q-2 4 -5 4t-5 -4l-118 -366q-2 -5 4 -5z" />
    <glyph glyph-name="B" unicode="B" horiz-adv-x="648" 
d="M75 5v694q0 5 5 5h333q80 0 132 -58.5t52 -141.5q0 -47 -23.5 -82.5t-55.5 -48.5q-4 -1 -4 -5t4 -5q36 -15 65.5 -63.5t29.5 -99.5q0 -89 -57.5 -144.5t-147.5 -55.5h-328q-5 0 -5 5zM401 320h-226q-5 0 -5 -5v-225q0 -5 5 -5h219q53 0 88.5 34.5t35.5 80.5
q0 45 -35 82.5t-82 37.5zM502 504q0 48 -28.5 82t-79.5 34h-219q-5 0 -5 -5v-205q0 -5 5 -5h219q42 2 75 30t33 69z" />
    <glyph glyph-name="C" unicode="C" horiz-adv-x="671" 
d="M540 215q1 5 7 5h88q5 0 5 -5q0 -28 -16.5 -63.5t-48.5 -73t-91 -63t-132 -25.5q-159 0 -237.5 97.5t-78.5 264.5q0 162 84.5 262t231.5 100q76 0 136 -27t90.5 -65.5t46 -73.5t15.5 -59q0 -5 -5 -5h-88q-5 0 -7 5q-49 140 -188 140q-104 0 -160 -73t-56 -204t56 -204
t160 -73q80 0 126 43.5t62 96.5z" />
    <glyph glyph-name="D" unicode="D" horiz-adv-x="687" 
d="M338 0h-258q-5 0 -5 5v694q0 5 5 5h258q153 -1 233 -98.5t80 -260.5t-79.5 -254t-233.5 -91zM175 85h163q101 0 157 67t56 193t-56.5 200t-156.5 74h-163q-5 0 -5 -5v-524q0 -5 5 -5z" />
    <glyph glyph-name="E" unicode="E" horiz-adv-x="596" 
d="M75 5v694q0 5 5 5h481q5 0 5 -5v-75q0 -5 -5 -5h-386q-5 0 -5 -5v-204q0 -5 5 -5h345q5 0 5 -5v-75q0 -5 -5 -5h-345q-5 0 -5 -5v-225q0 -5 5 -5h386q5 0 5 -5v-75q0 -5 -5 -5h-481q-5 0 -5 5z" />
    <glyph glyph-name="F" unicode="F" horiz-adv-x="537" 
d="M75 5v694q0 5 5 5h445q5 0 5 -5v-75q0 -5 -5 -5h-350q-5 0 -5 -5v-204q0 -5 5 -5h309q5 0 5 -5v-75q0 -5 -5 -5h-309q-5 0 -5 -5v-310q0 -5 -5 -5h-85q-5 0 -5 5z" />
    <glyph glyph-name="G" unicode="G" horiz-adv-x="726" 
d="M663 390v-385q0 -5 -5 -5h-73q-6 0 -7 6l-10 70q0 3 -3.5 4t-5.5 -2q-25 -34 -83.5 -61t-123.5 -27q-159 0 -237.5 97.5t-78.5 264.5q0 162 84.5 262t231.5 100q124 0 192.5 -57.5t93.5 -145.5q1 -5 -5 -5h-93q-5 0 -6 5q-22 58 -70 88t-112 30q-104 0 -160 -73t-56 -204
t56 -204t160 -73q107 0 161.5 55.5t54.5 174.5q0 5 -5 5h-206q-5 0 -5 5v75q0 5 5 5h301q5 0 5 -5z" />
    <glyph glyph-name="H" unicode="H" horiz-adv-x="667" 
d="M502 704h85q5 0 5 -5v-694q0 -5 -5 -5h-85q-5 0 -5 5v310q0 5 -5 5h-317q-5 0 -5 -4v-311q0 -5 -5 -5h-85q-5 0 -5 5v694q0 5 5 5h85q5 0 5 -5v-289q0 -5 5 -5h317q5 0 5 5v289q0 5 5 5z" />
    <glyph glyph-name="I" unicode="I" horiz-adv-x="245" 
d="M80 704h85q5 0 5 -5v-694q0 -5 -5 -5h-85q-5 0 -5 5v694q0 5 5 5z" />
    <glyph glyph-name="J" unicode="J" horiz-adv-x="473" 
d="M15 220h85q5 0 5 -5v-17q0 -25 3 -43.5t13 -38.5t32 -30.5t56 -10.5q33 0 55.5 10.5t32 30.5t13 38.5t3.5 43.5v501q0 5 5 5h85q5 0 5 -5v-501q0 -97 -44.5 -152.5t-155.5 -55.5q-104 0 -151 57t-47 151v17q0 5 5 5z" />
    <glyph glyph-name="K" unicode="K" horiz-adv-x="599" 
d="M502 5l-232 353q-2 4 -6 0l-90 -89q-4 -4 -4 -8v-256q0 -5 -5 -5h-85q-5 0 -5 5v694q0 5 5 5h85q5 0 5 -5v-299q0 -6 4 -2l307 301q5 5 8 5h114q2 0 3 -2t0 -3l-269 -267q-3 -3 0 -8l275 -419q5 -5 -3 -5h-99q-3 0 -8 5z" />
    <glyph glyph-name="L" unicode="L" horiz-adv-x="542" 
d="M75 5v694q0 5 5 5h85q5 0 5 -5v-609q0 -5 5 -5h350q5 0 5 -5v-75q0 -5 -5 -5h-445q-5 0 -5 5z" />
    <glyph glyph-name="M" unicode="M" horiz-adv-x="864" 
d="M437 99l178 600q3 5 7 5h162q5 0 5 -5v-694q0 -5 -5 -5h-85q-5 0 -5 5v599q0 5 -4.5 5t-5.5 -4l-176 -600q-2 -5 -8 -5h-136q-6 0 -8 5l-176 600q-2 4 -6 4t-4 -5v-599q0 -5 -5 -5h-85q-5 0 -5 5v694q0 5 5 5h162q4 0 7 -5l178 -600q1 -4 5 -4t5 4z" />
    <glyph glyph-name="N" unicode="N" horiz-adv-x="718" 
d="M553 704h85q5 0 5 -5v-694q0 -5 -5 -5h-147q-5 0 -8 5l-303 601q-1 2 -3.5 2.5t-4.5 -0.5t-2 -4v-599q0 -5 -5 -5h-85q-5 0 -5 5v694q0 5 5 5h148q4 0 7 -5l303 -600q2 -4 6 -4t4 5v599q0 5 5 5z" />
    <glyph glyph-name="O" unicode="O" horiz-adv-x="703" 
d="M667 352q0 -164 -81 -263t-234 -99t-234.5 99t-81.5 263t81.5 263t234.5 99t234 -99t81 -263zM352 75q104 0 160 73t56 204t-56 204t-160 73t-160 -73t-56 -204t56 -204t160 -73z" />
    <glyph glyph-name="P" unicode="P" horiz-adv-x="591" 
d="M75 5v694q0 5 5 5h292q83 0 143.5 -62.5t60.5 -151.5q0 -88 -60.5 -149t-143.5 -61h-197q-5 0 -5 -5v-270q0 -5 -5 -5h-85q-5 0 -5 5zM360 619h-185q-5 0 -5 -5v-244q0 -5 5 -5h185q48 0 84.5 37t36.5 88t-36.5 90t-84.5 39z" />
    <glyph glyph-name="Q" unicode="Q" horiz-adv-x="703" 
d="M583 -35l-64 63q-2 2 -6 0q-68 -38 -161 -38q-153 0 -234.5 99t-81.5 263t81.5 263t234.5 99t234 -99t81 -263q0 -174 -89 -272q-4 -4 0 -7l109 -108q2 -1 1 -3t-3 -2h-94q-3 0 -8 5zM446 204l59 -58q3 -3 5 0q58 74 58 206q0 131 -56 204t-160 73t-160 -73t-56 -204
t56 -204t160 -73q54 0 93 19q5 2 0 7l-105 103q-2 2 -1 3.5t3 1.5h96q3 0 8 -5z" />
    <glyph glyph-name="R" unicode="R" horiz-adv-x="609" 
d="M75 5v694q0 5 5 5h292q83 0 143.5 -62.5t60.5 -151.5q0 -64 -33 -114.5t-86 -75.5q-5 -2 -2 -8l126 -283q5 -9 -4 -9h-85q-5 0 -7 5l-120 270q-2 5 -9 5h-181q-5 0 -5 -5v-270q0 -5 -5 -5h-85q-5 0 -5 5zM360 619h-185q-5 0 -5 -5v-244q0 -5 5 -5h189q46 0 81.5 37
t35.5 88t-36.5 90t-84.5 39z" />
    <glyph glyph-name="S" unicode="S" horiz-adv-x="604" 
d="M442 511q0 51 -42.5 84.5t-108.5 33.5q-60 0 -102 -33t-42 -83q0 -29 13.5 -49t39.5 -30.5t47.5 -15t54.5 -8.5q58 -7 98.5 -17t82.5 -32t64 -63t22 -100q0 -85 -66 -146.5t-201 -61.5q-124 0 -195.5 59t-71.5 144q0 5 5 5h89q6 0 6 -6q0 -43 44.5 -80t122.5 -37
q77 0 122 35.5t45 87.5q0 32 -13 54.5t-39 34.5t-51.5 18t-63.5 10q-39 4 -70 10t-67.5 20.5t-60.5 34.5t-40.5 54t-16.5 79q0 91 73 146t171 55q103 0 177 -53t74 -150q0 -5 -5 -5h-90q-5 0 -5 5z" />
    <glyph glyph-name="T" unicode="T" horiz-adv-x="491" 
d="M198 5v610q-2 4 -5 4h-193q-5 0 -5 5v75q0 5 5 5h491q5 0 5 -5v-75q0 -5 -5 -5h-193q-5 0 -5 -5v-609q0 -5 -5 -5h-85q-5 0 -5 5z" />
    <glyph glyph-name="U" unicode="U" horiz-adv-x="630" 
d="M160 699v-460q0 -65 46 -114.5t110 -49.5q63 0 108.5 49.5t45.5 114.5v460q0 5 5 5h85q5 0 5 -5v-460q0 -104 -72.5 -176.5t-176.5 -72.5t-177.5 72.5t-73.5 176.5v460q0 5 5 5h85q5 0 5 -5z" />
    <glyph glyph-name="V" unicode="V" horiz-adv-x="619" 
d="M375 0h-127q-4 0 -6 5l-236 694q-1 5 6 5h93q3 0 5 -5l196 -600q2 -4 5 -4t5 4l193 600q2 5 5 5h94q7 0 5 -5l-233 -694q-2 -5 -5 -5z" />
    <glyph glyph-name="W" unicode="W" horiz-adv-x="880" 
d="M529 699l124 -599q1 -4 5 -4t5 4l110 599q2 5 5 5h91q7 0 6 -5l-138 -694q-2 -5 -6 -5h-152q-3 0 -5 5l-129 598q-1 4 -5 4t-5 -4l-129 -598q-2 -5 -5 -5h-152q-4 0 -6 5l-138 694q-1 5 6 5h91q3 0 5 -5l110 -599q1 -4 5 -4t5 4l124 599q2 5 5 5h168q3 0 5 -5z" />
    <glyph glyph-name="X" unicode="X" horiz-adv-x="569" 
d="M570 0h-102q-4 0 -7 5l-172 264q-5 7 -10 0l-171 -264q-3 -5 -8 -5h-101q-6 0 -3 5l230 343q3 4 0 8l-230 343q-3 5 3 5h101q5 0 8 -5l171 -264q5 -7 10 0l172 264q4 5 10 5h99q6 0 3 -5l-230 -343q-3 -4 0 -8l230 -343q3 -5 -3 -5z" />
    <glyph glyph-name="Y" unicode="Y" horiz-adv-x="559" 
d="M568 699l-238 -386q-3 -5 -3 -10v-298q0 -5 -5 -5h-85q-5 0 -5 5v298q0 2 -5 10l-236 386q-3 5 3 5h101q5 0 8 -5l171 -285q5 -7 10 0l172 285q4 5 10 5h99q6 0 3 -5z" />
    <glyph glyph-name="Z" unicode="Z" horiz-adv-x="556" 
d="M28 5v70q0 9 3 13l381 525q4 6 -2 6h-377q-5 0 -5 5v75q0 5 5 5h490q5 0 5 -5v-70q0 -10 -2 -13l-383 -526q-3 -5 2 -5h378q5 0 5 -5v-75q0 -5 -5 -5h-490q-5 0 -5 5z" />
    <glyph glyph-name="bracketleft" unicode="[" horiz-adv-x="342" 
d="M175 -138h158q5 0 5 -4v-51q0 -5 -5 -5h-228q-5 0 -5 5v892q0 5 5 5h228q5 0 5 -5v-51q0 -4 -5 -4h-158q-5 0 -5 -5v-772q0 -5 5 -5z" />
    <glyph glyph-name="backslash" unicode="\" horiz-adv-x="541" 
d="M392 3l-341 694q-3 7 4 7h89q4 0 5 -3l341 -694q4 -7 -4 -7h-89q-3 0 -5 3z" />
    <glyph glyph-name="bracketright" unicode="]" horiz-adv-x="342" 
d="M9 -138h158q5 0 5 5v772q0 5 -5 5h-158q-5 0 -5 4v51q0 5 5 5h228q5 0 5 -5v-892q0 -5 -5 -5h-228q-5 0 -5 5v51q0 4 5 4z" />
    <glyph glyph-name="asciicircum" unicode="^" horiz-adv-x="511" 
d="M459 360h-90q-3 0 -5 3l-106 230q-2 3 -5 3t-5 -3l-106 -230q-2 -3 -5 -3h-90q-9 0 -5 7l149 332q2 5 7 5h110q5 0 7 -5l149 -332q4 -7 -5 -7z" />
    <glyph glyph-name="underscore" unicode="_" horiz-adv-x="585" 
d="M541 0h-497q-5 0 -5 5v75q0 5 5 5h497q5 0 5 -5v-75q0 -5 -5 -5z" />
    <glyph glyph-name="grave" unicode="`" horiz-adv-x="242" 
d="M205 569h-65q-6 0 -11 7l-78 121q-3 7 5 7h92q8 0 10 -7l52 -121q4 -7 -5 -7z" />
    <glyph glyph-name="a" unicode="a" horiz-adv-x="558" 
d="M539 80v-75q0 -5 -5 -5h-19q-85 0 -106 51q-3 8 -9 2q-63 -63 -173 -63q-92 0 -143.5 43.5t-51.5 116.5q0 67 57 109.5t158 42.5h107q15 0 24 10.5t9 22.5q0 20 -3 33t-14 29.5t-38 25t-69 8.5q-61 0 -90.5 -25t-29.5 -66q0 -5 -5 -5h-85q-5 0 -5 5q0 84 62 130t153 46
q105 0 162 -45.5t57 -135.5v-217q0 -12 9 -22.5t24 -10.5h19q5 0 5 -5zM387 208v14q0 5 -5 5h-135q-62 0 -91 -23t-29 -54q0 -29 27 -52t73 -23q83 0 121.5 39.5t38.5 93.5z" />
    <glyph glyph-name="b" unicode="b" horiz-adv-x="596" 
d="M154 0h-75q-5 0 -5 5v694q0 5 5 5h85q5 0 5 -5v-238q0 -3 3 -4.5t7 2.5q14 16 55.5 36.5t87.5 20.5q109 0 173.5 -72.5t64.5 -190.5t-64.5 -190.5t-173.5 -72.5q-36 0 -79 18t-64 39q-7 7 -10 -2l-10 -40q-2 -5 -5 -5zM465 253q0 79 -41 128.5t-112 49.5q-67 0 -105 -49
t-38 -129t38 -129t105 -49q71 0 112 49.5t41 128.5z" />
    <glyph glyph-name="c" unicode="c" horiz-adv-x="554" 
d="M516 335h-89q-4 0 -6 5q-34 91 -138 91q-70 0 -111 -49.5t-41 -128.5t41 -128.5t111 -49.5q104 0 138 91q2 5 6 5h89q6 0 5 -5q-21 -84 -82.5 -130t-155.5 -46q-116 0 -181.5 72t-65.5 191q0 120 65.5 191.5t181.5 71.5q94 0 156 -46.5t82 -129.5q1 -5 -5 -5z" />
    <glyph glyph-name="d" unicode="d" horiz-adv-x="596" 
d="M517 0h-75q-3 0 -5 5l-10 40q-3 9 -10 2q-21 -21 -64 -39t-79 -18q-109 0 -173.5 72.5t-64.5 190.5t64.5 190.5t173.5 72.5q46 0 87.5 -20.5t55.5 -36.5q4 -4 7 -2.5t3 4.5v238q0 5 5 5h85q5 0 5 -5v-694q0 -5 -5 -5zM131 253q0 -79 41 -128.5t112 -49.5q67 0 105 49
t38 129t-38 129t-105 49q-71 0 -112 -49.5t-41 -128.5z" />
    <glyph glyph-name="e" unicode="e" horiz-adv-x="558" 
d="M513 219h-371q-5 0 -5 -5q0 -57 39 -98t103 -41q90 0 127 70q2 5 7 5h89q6 0 5 -5q-19 -73 -80.5 -114t-147.5 -41q-111 0 -177 72.5t-66 190.5q0 120 64.5 191.5t178.5 71.5q115 0 179.5 -72t64.5 -191q0 -16 -3 -28q-2 -6 -7 -6zM419 299q0 50 -36 91t-104 41
q-66 0 -104 -44.5t-38 -87.5q0 -5 5 -5h272q5 0 5 5z" />
    <glyph glyph-name="f" unicode="f" horiz-adv-x="331" 
d="M315 699v-75q0 -5 -5 -5h-66q-22 0 -34.5 -13.5t-12.5 -36.5v-58q0 -5 5 -5h108q5 0 5 -5v-65q0 -5 -5 -5h-108q-5 0 -5 -5v-421q0 -5 -5 -5h-85q-5 0 -5 5v421q0 5 -5 5h-89q-5 0 -5 5v65q0 5 5 5h89q5 0 5 5v75q0 121 141 118h67q5 0 5 -5z" />
    <glyph glyph-name="g" unicode="g" horiz-adv-x="596" 
d="M158 -59q8 -23 40 -43.5t87 -20.5q73 0 107.5 41.5t34.5 100.5v27q0 3 -3.5 4.5t-6.5 -2.5q-12 -16 -54.5 -37t-88.5 -21q-103 0 -170.5 73.5t-67.5 189.5q0 118 64.5 190.5t173.5 72.5q36 0 78.5 -17t64.5 -39q7 -7 10 1l10 40q2 5 5 5h75q5 0 5 -5v-482
q0 -101 -65.5 -164t-171.5 -63q-90 0 -154 44t-70 105q0 5 5 5h87q3 0 5 -5zM131 253q0 -79 41 -128.5t112 -49.5q67 0 105 49t38 129t-38 129t-105 49q-71 0 -112 -49.5t-41 -128.5z" />
    <glyph glyph-name="h" unicode="h" horiz-adv-x="595" 
d="M79 704h85q5 0 5 -5v-242q0 -4 4 -5t7 3q48 61 131 61q110 0 164 -65.5t54 -170.5v-275q0 -5 -5 -5h-85q-5 0 -5 5v275q0 64 -32 107.5t-101 43.5q-60 0 -96 -44.5t-36 -106.5v-275q0 -5 -5 -5h-85q-5 0 -5 5v694q0 5 5 5z" />
    <glyph glyph-name="i" unicode="i" horiz-adv-x="243" 
d="M169 501v-496q0 -5 -5 -5h-85q-5 0 -5 5v496q0 5 5 5h85q5 0 5 -5zM171 593h-100q-5 0 -5 5v101q0 5 5 5h100q5 0 5 -5v-101q0 -5 -5 -5z" />
    <glyph glyph-name="j" unicode="j" horiz-adv-x="243" 
d="M-44 -193v75q0 5 5 5h59q54 0 54 50v564q0 5 5 5h85q5 0 5 -5v-581q0 -121 -131 -118h-77q-5 0 -5 5zM172 593h-100q-5 0 -5 5v101q0 5 5 5h100q5 0 5 -5v-101q0 -5 -5 -5z" />
    <glyph glyph-name="k" unicode="k" horiz-adv-x="550" 
d="M550 0h-90q-6 0 -9 5l-159 273q-3 4 -7 0l-114 -98q-2 -2 -2 -6v-169q0 -5 -5 -5h-85q-5 0 -5 5v694q0 5 5 5h85q5 0 5 -5v-392q0 -2 2.5 -3t4.5 1l230 196q6 5 15 5h123q2 0 3 -2t0 -3l-186 -158q-3 -3 0 -8l193 -330q2 -5 -4 -5z" />
    <glyph glyph-name="l" unicode="l" horiz-adv-x="243" 
d="M169 699v-694q0 -5 -5 -5h-85q-5 0 -5 5v694q0 5 5 5h85q5 0 5 -5z" />
    <glyph glyph-name="m" unicode="m" horiz-adv-x="871" 
d="M79 506h75q3 0 5 -5l10 -45q2 -4 6 -3.5t6 3.5q13 26 47 43t72 17q53 0 85 -13t60 -47q5 -7 12 0q52 60 151 60q97 0 147 -61t50 -175v-275q0 -5 -5 -5h-85q-5 0 -5 5v275q0 33 -4 56.5t-15 47t-34.5 35.5t-58.5 12q-64 0 -87.5 -41t-23.5 -110v-275q0 -2 -2 -4
q-1 -1 -3 -1h-85h-1q-3 0 -3 2q-1 1 -1 3v275q0 69 -23.5 110t-88.5 41q-59 0 -85 -42.5t-26 -108.5v-275q0 -5 -5 -5h-85q-5 0 -5 5v496q0 5 5 5z" />
    <glyph glyph-name="n" unicode="n" horiz-adv-x="595" 
d="M79 506h75q3 0 5 -5l10 -45q1 -4 5 -4t6 3q41 61 131 61q104 0 161 -66.5t57 -169.5v-275q0 -5 -5 -5h-85q-5 0 -5 5v275q0 64 -32 107.5t-101 43.5q-60 0 -96 -44.5t-36 -106.5v-275q0 -5 -5 -5h-85q-5 0 -5 5v496q0 5 5 5z" />
    <glyph glyph-name="o" unicode="o" horiz-adv-x="568" 
d="M532 253q0 -119 -66.5 -191t-181.5 -72q-116 0 -182 72t-66 191t66 191t182 72q115 0 181.5 -72t66.5 -191zM437 253q0 79 -41 128.5t-112 49.5q-70 0 -111.5 -49.5t-41.5 -128.5t41.5 -128.5t111.5 -49.5q71 0 112 49.5t41 128.5z" />
    <glyph glyph-name="p" unicode="p" horiz-adv-x="596" 
d="M79 506h75q3 0 5 -5l10 -41q2 -4 5 -4t5 3q20 22 63 39.5t80 17.5q109 0 173.5 -72.5t64.5 -190.5t-64.5 -190.5t-173.5 -72.5q-46 0 -87.5 20.5t-55.5 36.5q-4 4 -7 2.5t-3 -4.5v-238q0 -5 -5 -5h-85q-5 0 -5 5v694q0 5 5 5zM465 253q0 79 -41 128.5t-112 49.5
q-67 0 -105 -49t-38 -129t38 -129t105 -49q71 0 112 49.5t41 128.5z" />
    <glyph glyph-name="q" unicode="q" horiz-adv-x="596" 
d="M442 506h75q5 0 5 -5v-694q0 -5 -5 -5h-85q-5 0 -5 5v238q0 3 -3 4.5t-7 -2.5q-14 -16 -55.5 -36.5t-87.5 -20.5q-109 0 -173.5 72.5t-64.5 190.5t64.5 190.5t173.5 72.5q37 0 80 -17.5t63 -39.5q2 -3 5 -3t5 4l10 41q2 5 5 5zM131 253q0 -79 41 -128.5t112 -49.5
q67 0 105 49t38 129t-38 129t-105 49q-71 0 -112 -49.5t-41 -128.5z" />
    <glyph glyph-name="r" unicode="r" horiz-adv-x="366" 
d="M352 431h-51q-60 0 -96 -44.5t-36 -106.5v-275q0 -5 -5 -5h-85q-5 0 -5 5v496q0 5 5 5h75q3 0 5 -5l10 -45q3 -9 11 -1q61 61 121 61h51q5 0 5 -5v-75q0 -5 -5 -5z" />
    <glyph glyph-name="s" unicode="s" horiz-adv-x="513" 
d="M458 335h-86q-5 0 -5 5q0 42 -32.5 66.5t-92.5 24.5q-53 0 -80.5 -19t-27.5 -45q0 -12 3.5 -21t12 -15.5t16 -10.5t22 -7.5t22 -4.5t24.5 -3t22 -3q104 -15 139 -29q81 -34 81 -122q0 -82 -60 -121.5t-160 -39.5q-109 0 -167.5 50t-58.5 126q0 5 5 5h84q6 0 6 -5
q0 -39 36 -65t95 -26q125 0 125 76q0 9 -2.5 17t-8.5 14t-11.5 10.5t-16 8l-16.5 5.5t-19 4t-18 3t-18 2.5t-15 1.5q-32 4 -50.5 6.5t-48 9.5t-47 17t-36 25.5t-27 38.5t-8.5 53q0 63 56 106t147 43q97 0 158.5 -45.5t61.5 -130.5q0 -5 -4 -5z" />
    <glyph glyph-name="t" unicode="t" horiz-adv-x="333" 
d="M303 80v-75q0 -5 -5 -5h-77q-131 0 -131 118v308q0 5 -5 5h-89q-5 0 -5 5v65q0 5 5 5h89q5 0 5 5v135q0 5 5 5h85q5 0 5 -5v-135q0 -5 5 -5h108q5 0 5 -5v-65q0 -5 -5 -5h-108q-5 0 -5 -5v-291q0 -50 54 -50h59q5 0 5 -5z" />
    <glyph glyph-name="u" unicode="u" horiz-adv-x="595" 
d="M516 0h-75q-3 0 -5 5l-10 45q-2 4 -5.5 4t-5.5 -3q-16 -23 -51.5 -42t-79.5 -19q-116 0 -167 64.5t-51 171.5v275q0 5 5 5h85q5 0 5 -5v-275q0 -64 32 -107.5t101 -43.5q60 0 96 44.5t36 106.5v275q0 5 5 5h85q5 0 5 -5v-496q0 -5 -5 -5z" />
    <glyph glyph-name="v" unicode="v" horiz-adv-x="488" 
d="M305 0h-127q-4 0 -6 5l-169 496q-1 5 6 5h91q3 0 5 -5l131 -402q2 -4 5 -4t5 4l132 402q2 5 5 5h91q7 0 5 -5l-169 -496q-2 -5 -5 -5z" />
    <glyph glyph-name="w" unicode="w" horiz-adv-x="735" 
d="M600 0h-127q-3 0 -5 5l-97 399q-1 4 -5 4t-5 -4l-96 -399q-2 -5 -5 -5h-127q-4 0 -6 5l-119 496q-1 5 6 5h85q3 0 5 -5l87 -402q1 -4 5 -4t5 4l99 402q2 5 5 5h123q3 0 5 -5l99 -402q1 -4 5 -4t5 4l87 402q2 5 5 5h85q7 0 6 -5l-119 -496q-2 -5 -6 -5z" />
    <glyph glyph-name="x" unicode="x" horiz-adv-x="469" 
d="M473 0h-101q-5 0 -8 5l-126 168q-4 4 -8 0l-127 -168q-4 -5 -8 -5h-99q-2 0 -3 2t1 3l181 240q3 5 0 10l-181 246q-3 5 2 5h96q4 0 8 -5l129 -173q5 -7 10 0l129 173q3 5 8 5h96q6 0 3 -5l-183 -246q-3 -5 0 -10l183 -240q2 -1 1 -3t-3 -2z" />
    <glyph glyph-name="y" unicode="y" horiz-adv-x="474" 
d="M-4 -193v75q0 5 5 5h113q43 0 58 25t1 66l-178 523q-1 5 6 5h91q3 0 5 -5l131 -402q2 -5 5 -5t5 5l132 402q2 5 5 5h91q7 0 5 -5l-200 -588q-22 -62 -51.5 -86.5t-88.5 -24.5h-130q-5 0 -5 5z" />
    <glyph glyph-name="z" unicode="z" horiz-adv-x="474" 
d="M35 5v75q0 4 4 10l268 323q2 1 0.5 4.5t-4.5 3.5h-252q-5 0 -5 5v75q0 5 5 5h369q5 0 5 -5v-75q0 -5 -4 -10l-266 -323q-2 -2 -0.5 -5t4.5 -3h274q5 0 5 -5v-75q0 -5 -5 -5h-393q-5 0 -5 5z" />
    <glyph glyph-name="braceleft" unicode="{" horiz-adv-x="406" 
d="M361 -142v-51q0 -5 -5 -5h-55q-69 0 -96.5 33.5t-27.5 107.5v227q0 22 -15.5 37.5t-37.5 15.5h-55q-5 0 -5 5v50q0 5 5 5h55q21 0 37 16t16 38v225q0 74 27.5 108t96.5 34h55q5 0 5 -5v-51q0 -4 -5 -4h-55q-22 0 -38 -16t-16 -38v-223q0 -39 -10.5 -64t-21 -32.5
t-27.5 -15.5q-4 -2 0 -4q59 -26 59 -111v-224q0 -22 16 -38t38 -16h55q5 0 5 -4z" />
    <glyph glyph-name="bar" unicode="|" horiz-adv-x="188" 
d="M128 -198h-69q-4 0 -4 5v892q0 5 4 5h69q5 0 5 -5v-892q0 -5 -5 -5z" />
    <glyph glyph-name="braceright" unicode="}" horiz-adv-x="406" 
d="M45 -193v51q0 4 5 4h55q22 0 38 16t16 38v224q0 85 59 111q4 2 0 4q-17 8 -27.5 15.5t-21 32.5t-10.5 64v223q0 22 -16 38t-38 16h-55q-5 0 -5 4v51q0 5 5 5h55q69 0 96.5 -34t27.5 -108v-225q0 -22 16 -38t37 -16h55q5 0 5 -5v-50q0 -5 -5 -5h-55q-22 0 -37.5 -15.5
t-15.5 -37.5v-227q0 -74 -27.5 -107.5t-96.5 -33.5h-55q-5 0 -5 5z" />
    <glyph glyph-name="asciitilde" unicode="~" horiz-adv-x="559" 
d="M375 200q-30 0 -97 25.5t-94 25.5q-16 0 -37 -21l-28 -28q-3 -4 -7 0l-60 55q-4 3 0 7l35 37q37 39 97 39q30 0 96.5 -25.5t94.5 -25.5q16 0 37 21l28 28q4 4 7 0l60 -55q4 -3 0 -7l-35 -37q-37 -39 -97 -39z" />
    <glyph glyph-name="DEL" horiz-adv-x="265" 
 />
    <glyph glyph-name="nonbreakingspace" unicode="&#xa0;" horiz-adv-x="265" 
 />
    <glyph glyph-name="exclamdown" unicode="&#xa1;" horiz-adv-x="260" 
d="M98 298h64q5 0 5 -5l10 -293v-193q0 -5 -5 -5h-84q-5 0 -5 5v193l10 293q0 5 5 5zM70 506h120q5 0 5 -5v-122q0 -5 -5 -5h-120q-5 0 -5 5v122q0 5 5 5z" />
    <glyph glyph-name="cent" unicode="&#xa2;" horiz-adv-x="545" 
d="M420 171h90q6 0 5 -5q-39 -152 -191 -173q-5 0 -5 -4v-84q0 -5 -5 -5h-69q-4 0 -4 5v83q0 4 -3 5q-98 11 -153 81t-55 179t54.5 178.5t153.5 81.5q3 1 3 5v84q0 5 4 5h69q5 0 5 -5v-86q0 -2 2 -4q76 -10 126 -54.5t68 -117.5q1 -5 -5 -5h-90q-4 0 -6 5q-34 91 -138 91
q-70 0 -111 -49.5t-41 -128.5t41 -128.5t111 -49.5q104 0 138 91q2 5 6 5z" />
    <glyph glyph-name="sterling" unicode="&#xa3;" horiz-adv-x="596" 
d="M563 0h-535q-5 0 -5 5v75q0 5 5 5h34q54 0 54 50v181q0 5 -5 5h-83q-5 0 -5 5v75q0 5 5 5h83q5 0 5 5v102q0 93 63 147t158 54q100 0 163.5 -52t67.5 -151q0 -5 -5 -5h-90q-5 0 -5 5q0 53 -33.5 85.5t-97.5 32.5q-58 0 -92 -32.5t-34 -83.5v-102q0 -5 5 -5h126q5 0 5 -5
v-75q0 -5 -5 -5h-126q-5 0 -5 -5v-181q0 -26 -13 -45q-3 -5 2 -5h268q5 0 5 5v106q0 5 5 5h85q5 0 5 -5v-191q0 -5 -5 -5z" />
    <glyph glyph-name="currency" unicode="&#xa4;" horiz-adv-x="637" 
d="M87 66l-53 53q-5 3 0 7l69 69q4 4 1 8q-34 63 -34 147t34 146q3 5 -1 9l-69 70q-5 3 0 7l53 53q3 5 7 0l63 -64q6 -6 11 -2q66 44 150 44q88 0 148 -43q7 -5 13 1l64 64q3 5 7 0l53 -53q5 -4 0 -7l-70 -70q-4 -4 -1 -10q34 -66 34 -145q0 -86 -35 -148q-2 -3 2 -7l70 -69
q5 -4 0 -7l-53 -53q-4 -5 -7 0l-65 64q-5 5 -12 0q-60 -43 -148 -43q-90 0 -151 43q-5 4 -9 0l-64 -64q-4 -5 -7 0zM471 350q0 79 -41 128.5t-112 49.5q-70 0 -111.5 -49.5t-41.5 -128.5t41.5 -128.5t111.5 -49.5q71 0 112 49.5t41 128.5z" />
    <glyph glyph-name="yen" unicode="&#xa5;" horiz-adv-x="579" 
d="M337 298v-95q0 -5 5 -5h202q5 0 5 -5v-80q0 -5 -5 -5h-202q-5 0 -5 -5v-98q0 -5 -5 -5h-85q-5 0 -5 5v98q0 5 -5 5h-190q-5 0 -5 5v80q0 5 5 5h190q5 0 5 5v95v-1q0 6 -5 6h-190q-5 0 -5 5v80q0 5 5 5h136q5 0 2 5l-184 301q-3 5 3 5h101q5 0 8 -5l172 -286q4 -6 8 0
l173 286q4 5 10 5h99q6 0 3 -5l-186 -301q-3 -5 1 -5h151q5 0 5 -5v-80q0 -5 -5 -5h-202q-5 0 -5 -5z" />
    <glyph glyph-name="brokenbar" unicode="&#xa6;" horiz-adv-x="188" 
d="M128 293h-69q-4 0 -4 5v401q0 5 4 5h69q5 0 5 -5v-401q0 -5 -5 -5zM128 -197h-69q-4 0 -4 5v401q0 5 4 5h69q5 0 5 -5v-401q0 -5 -5 -5z" />
    <glyph glyph-name="section" unicode="&#xa7;" horiz-adv-x="635" 
d="M185 -5q0 -52 38 -85t103 -33q57 0 90.5 24.5t33.5 61.5q0 17 -5.5 31t-18 25t-23 18.5t-31 14.5t-31 10.5t-34.5 9t-30 7.5q-47 12 -75.5 21.5t-64.5 28t-54 41.5t-28.5 60t-3.5 84q10 75 64 120q4 4 0 8q-30 41 -30 101q0 78 64.5 124.5t159.5 46.5q101 0 169 -52.5
t72 -150.5q0 -5 -5 -5h-90q-5 0 -5 5q0 52 -38 85t-103 33q-57 0 -90.5 -24.5t-33.5 -61.5q0 -17 5.5 -31t18 -25t23 -18.5t31 -14.5t31 -10.5t34.5 -9t30 -7.5q47 -12 75.5 -21.5t64.5 -28t54 -41.5t28.5 -60t3.5 -84q-13 -79 -64 -121q-3 -3 0 -8q30 -43 30 -100
q0 -78 -64.5 -124.5t-159.5 -46.5q-101 0 -169 52.5t-72 150.5q0 5 5 5h90q5 0 5 -5zM345 338q-9 3 -34.5 9.5t-49.5 13t-41 11.5q-13 4 -21 -1q-40 -22 -49 -70q-5 -32 3 -55t31 -38t45.5 -23t60.5 -17q102 -26 125 -34q12 -4 20 0q43 23 50 71q5 32 -3 55t-31 38t-45.5 23
t-60.5 17z" />
    <glyph glyph-name="dieresis" unicode="&#xa8;" horiz-adv-x="424" 
d="M153 593h-100q-5 0 -5 5v101q0 5 5 5h100q5 0 5 -5v-101q0 -5 -5 -5zM372 593h-100q-5 0 -5 5v101q0 5 5 5h100q5 0 5 -5v-101q0 -5 -5 -5z" />
    <glyph glyph-name="copyright" unicode="&#xa9;" horiz-adv-x="821" 
d="M761 353q0 -146 -103 -249.5t-248 -103.5t-247.5 103.5t-102.5 249.5q0 145 102.5 248t247.5 103t248 -103t103 -248zM715 353q0 125 -89.5 215t-215.5 90q-125 0 -214.5 -90t-89.5 -215q0 -126 89.5 -216t214.5 -90q126 0 215.5 90t89.5 216zM527 270q1 3 5 3h50
q5 0 5 -5q0 -39 -50.5 -86t-130.5 -47q-89 0 -140 60t-51 157t51 157t140 60q82 0 131.5 -49.5t49.5 -85.5q0 -3 -3 -3h-52q-4 0 -5 3q-28 84 -121 84q-62 0 -96.5 -44t-34.5 -122t34.5 -122t96.5 -44q29 0 50.5 7.5t36 24t20 25.5t14.5 27z" />
    <glyph glyph-name="ordfeminine" unicode="&#xaa;" horiz-adv-x="307" 
d="M301 478v-40q0 -3 -3 -3h-10q-46 0 -57 28q-1 1 -2.5 1.5t-2.5 -0.5q-34 -34 -93 -34q-50 0 -78 23.5t-28 62.5q0 36 31 59t85 23h58q8 0 13 5.5t5 12.5q0 11 -1.5 18t-7.5 16t-20.5 13.5t-37.5 4.5q-33 0 -49 -13.5t-16 -35.5q0 -3 -2 -3h-46q-3 0 -3 3q0 45 33.5 70
t82.5 25q118 0 118 -98v-117q0 -7 5 -12.5t13 -5.5h10q3 0 3 -3zM219 547v8q0 3 -3 3h-73q-34 0 -49 -12.5t-15 -29.5q0 -16 14.5 -28t39.5 -12q45 0 65.5 21t20.5 50z" />
    <glyph glyph-name="guillemotleft" unicode="&#xab;" horiz-adv-x="537" 
d="M287 419l-142 -161q-3 -4 0 -9l142 -162q2 -1 0.5 -4t-4.5 -3h-74q-3 0 -6 3l-142 166q-3 5 0 9l142 165q3 3 6 3h74q3 0 4.5 -3t-0.5 -4zM478 419l-142 -161q-3 -4 0 -9l142 -162q2 -1 0.5 -4t-4.5 -3h-74q-3 0 -6 3l-142 166q-3 5 0 9l142 165q3 3 6 3h74q3 0 4.5 -3
t-0.5 -4z" />
    <glyph glyph-name="logicalnot" unicode="&#xac;" horiz-adv-x="619" 
d="M58 296h496q5 0 5 -5v-286q0 -5 -5 -5h-85q-5 0 -5 5v191q0 5 -5 5h-401q-5 0 -5 5v85q0 5 5 5z" />
    <glyph glyph-name="uni00AD" unicode="&#xad;" horiz-adv-x="433" 
d="M373 208h-313q-5 0 -5 5v80q0 5 5 5h313q5 0 5 -5v-80q0 -5 -5 -5z" />
    <glyph glyph-name="registered" unicode="&#xae;" horiz-adv-x="821" 
d="M761 353q0 -146 -103 -249.5t-248 -103.5t-247.5 103.5t-102.5 249.5q0 145 102.5 248.5t247.5 103.5t248 -103.5t103 -248.5zM715 353q0 126 -89.5 216t-215.5 90q-125 0 -214.5 -90.5t-89.5 -215.5q0 -126 89.5 -216t214.5 -90q126 0 215.5 90t89.5 216zM245 146v412
q0 5 5 5h207q50 0 86.5 -37.5t36.5 -90.5q0 -38 -19 -68.5t-51 -44.5q-2 -1 -2.5 -3.5t0.5 -3.5l76 -168q3 -6 -4 -6h-47q-7 0 -10 5l-69 159q-1 4 -7 4h-142q-3 0 -3 -3v-160q0 -5 -5 -5h-47q-5 0 -5 5zM450 512h-143q-5 0 -5 -5v-142q0 -5 5 -5h145q28 0 49.5 22.5
t21.5 52.5q0 31 -22 54t-51 23z" />
    <glyph glyph-name="macron" unicode="&#xaf;" horiz-adv-x="330" 
d="M321 590h-313q-5 0 -5 5v60q0 5 5 5h313q5 0 5 -5v-60q0 -5 -5 -5z" />
    <glyph glyph-name="degree" unicode="&#xb0;" horiz-adv-x="395" 
d="M43 560q0 65 45 110t109 45q65 0 110 -45.5t45 -109.5t-45 -109t-110 -45t-109.5 45t-44.5 109zM105 560q0 -38 27 -65t65 -27q39 0 66 27t27 65q0 39 -27 66t-66 27q-38 0 -65 -27t-27 -66z" />
    <glyph glyph-name="plusminus" unicode="&#xb1;" horiz-adv-x="613" 
d="M555 0h-497q-5 0 -5 5v75q0 5 5 5h497q5 0 5 -5v-75q0 -5 -5 -5zM348 400v-198q0 -5 -5 -5h-84q-5 0 -5 5v198q0 5 -5 5h-191q-5 0 -5 5v80q0 5 5 5h191q5 0 5 5v198q0 5 5 5h84q5 0 5 -5v-198q0 -5 5 -5h202q5 0 5 -5v-80q0 -5 -5 -5h-202q-5 0 -5 -5z" />
    <glyph glyph-name="twosuperior" unicode="&#xb2;" horiz-adv-x="290" 
d="M20 519v37q0 5 3 8l150 146q46 42 46 77q-1 25 -19 47t-53 22q-30 0 -49.5 -19t-19.5 -45q0 -3 -2 -3h-46q-3 0 -3 3q0 48 34 79t86 31q57 0 90 -33t33 -82q0 -57 -60 -111l-119 -110q-1 -1 -0.5 -2.5t2.5 -1.5h174q3 0 3 -3v-40q0 -3 -3 -3h-244q-3 0 -3 3z" />
    <glyph glyph-name="threesuperior" unicode="&#xb3;" horiz-adv-x="290" 
d="M120 691v41q0 3 2 3h19q31 0 50 17t19 43q0 24 -19.5 42.5t-49.5 18.5q-28 -1 -48 -20.5t-19 -43.5q0 -3 -3 -3h-46q-3 0 -3 3q0 47 33.5 78t85.5 32q53 0 87 -30.5t34 -76.5q0 -33 -19.5 -55t-34.5 -24q-2 -1 -2 -3t2 -3q19 -4 40.5 -29t21.5 -62q0 -49 -34.5 -78.5
t-94.5 -29.5q-57 0 -89 31t-32 77q0 2 2 2h46q3 0 3 -2q0 -25 18.5 -44t51.5 -19q34 0 56 18t22 45q0 31 -22.5 50.5t-55.5 19.5h-19q-2 0 -2 2z" />
    <glyph glyph-name="acute" unicode="&#xb4;" horiz-adv-x="242" 
d="M126 569h-65q-9 0 -5 7l51 121q2 7 10 7h92q3 0 5 -2t0 -5l-77 -121q-5 -7 -11 -7z" />
    <glyph glyph-name="mu" unicode="&#xb5;" horiz-adv-x="595" 
d="M156 -198h-86q-4 0 -4 5v694q0 5 5 5h85q5 0 5 -5v-275q0 -64 32 -107.5t101 -43.5q60 0 96 44.5t36 106.5v275q0 5 5 5h85q5 0 5 -5v-387q0 -11 9.5 -20t23.5 -9h29q5 0 5 -5v-75q0 -5 -5 -5h-29q-78 0 -106 47q-5 8 -11 0q-17 -23 -57 -40t-86 -17q-86 0 -124 38
q-2 2 -4 2t-3.5 -1.5t-1.5 -4.5v-217q0 -5 -5 -5z" />
    <glyph glyph-name="paragraph" unicode="&#xb6;" horiz-adv-x="562" 
d="M222 -193v504q0 5 -5 5q-75 0 -128.5 57t-53.5 137q0 77 51.5 133.5t127.5 60.5h288q5 0 5 -5v-892q0 -5 -5 -5h-85q-5 0 -5 5v817q0 5 -5 5h-85q-5 0 -5 -5v-817q0 -5 -5 -5h-85q-5 0 -5 5z" />
    <glyph glyph-name="glyph133" unicode="&#xb7;" horiz-adv-x="260" 
d="M190 285h-120q-5 0 -5 5v122q0 5 5 5h120q5 0 5 -5v-122q0 -5 -5 -5z" />
    <glyph glyph-name="cedilla" unicode="&#xb8;" horiz-adv-x="255" 
d="M120 3h61q2 0 3 -1.5t0 -3.5l-41 -43q-2 -2 -1.5 -5t4.5 -3q30 0 54.5 -19t24.5 -55q0 -33 -27 -57t-73 -24q-42 0 -65.5 24t-23.5 57q0 5 5 5h33q5 0 5 -5q0 -17 13.5 -30t32.5 -13q23 0 36.5 13t13.5 30q0 26 -17 37.5t-38 11.5q-13 0 -16 3l-8 8q-7 7 0 14l29 37
q4 6 -5 6q-5 0 -7 3t0 6.5t7 3.5z" />
    <glyph glyph-name="onesuperior" unicode="&#xb9;" horiz-adv-x="243" 
d="M122 858v35q0 3 3 3h46q2 0 2 -3v-374q0 -3 -2 -3h-46q-3 0 -3 3v249q0 16 -17 16h-82q-3 0 -3 3v37q0 3 3 3h67q13 0 22.5 9t9.5 22z" />
    <glyph glyph-name="ordmasculine" unicode="&#xba;" horiz-adv-x="307" 
d="M287 572q0 -65 -35.5 -103.5t-98.5 -38.5q-62 0 -98 39t-36 103t36 103t98 39q63 0 98.5 -39t35.5 -103zM236 572q0 43 -22.5 69.5t-60.5 26.5t-60 -26.5t-22 -69.5t22 -69.5t60 -26.5q39 0 61 26.5t22 69.5z" />
    <glyph glyph-name="guillemotright" unicode="&#xbb;" horiz-adv-x="537" 
d="M201 258l-142 161q-2 1 -0.5 4t4.5 3h74q3 0 6 -3l142 -165q3 -4 0 -9l-142 -166q-3 -3 -6 -3h-74q-3 0 -4.5 3t0.5 4l142 162q3 5 0 9zM392 258l-142 161q-2 1 -0.5 4t4.5 3h74q3 0 6 -3l142 -165q3 -4 0 -9l-142 -166q-3 -3 -6 -3h-74q-3 0 -4.5 3t0.5 4l142 162
q3 5 0 9z" />
    <glyph glyph-name="onequarter" unicode="&#xbc;" 
d="M517 380h45q3 0 3 -3v-241q0 -3 2 -3h60q3 0 3 -3v-40q0 -3 -3 -3h-60q-2 0 -2 -3v-81q0 -3 -3 -3h-46q-3 0 -3 3v81q0 3 -2 3h-178q-3 0 -3 3v37q0 5 2 9l179 241q2 3 6 3zM508 295l-116 -158q-2 -4 3 -4h116q2 0 2 3v158q0 2 -1.5 2.5t-3.5 -1.5zM89 8l420 688
q5 8 10 8h52q8 0 4 -8l-422 -688q-5 -8 -10 -8h-50q-8 0 -4 8zM148 666v35q0 3 3 3h46q2 0 2 -3v-374q0 -3 -2 -3h-46q-3 0 -3 3v249q0 16 -17 16h-82q-3 0 -3 3v37q0 3 3 3h67q13 0 22.5 9t9.5 22z" />
    <glyph glyph-name="onehalf" unicode="&#xbd;" 
d="M140 666v35q0 3 3 3h46q2 0 2 -3v-374q0 -3 -2 -3h-46q-3 0 -3 3v249q0 16 -17 16h-82q-3 0 -3 3v37q0 3 3 3h67q13 0 22.5 9t9.5 22zM389 3v38q0 5 2 7l150 146q46 42 46 77q-1 25 -19 47t-53 22q-30 0 -49.5 -19t-19.5 -45q0 -3 -2 -3h-46q-3 0 -3 3q0 48 34 79t86 31
q57 0 90 -33t33 -82q0 -57 -60 -111l-119 -110q-1 -1 -0.5 -2.5t2.5 -1.5h174q3 0 3 -3v-40q0 -3 -3 -3h-244q-2 0 -2 3zM71 8l420 688q5 8 10 8h52q8 0 4 -8l-422 -688q-5 -8 -10 -8h-50q-8 0 -4 8z" />
    <glyph glyph-name="threequarters" unicode="&#xbe;" 
d="M121 500v40q0 3 2 3h19q31 0 50 17t19 43q0 25 -19 43t-50 18q-28 -1 -48 -20.5t-19 -43.5q0 -3 -3 -3h-46q-2 0 -2 3q-1 47 32.5 78t85.5 32q53 0 87 -30.5t34 -76.5q0 -33 -19 -54t-35 -25q-2 -1 -2 -3t2 -3q19 -4 40.5 -29t21.5 -62q0 -49 -34.5 -78.5t-94.5 -29.5
q-57 0 -89 31t-32 77q0 2 3 2h45q3 0 3 -2q0 -25 18.5 -43.5t51.5 -18.5q34 0 56 18t22 44q0 31 -22 50.5t-56 19.5h-19q-2 0 -2 3zM543 380h45q3 0 3 -3v-241q0 -3 2 -3h60q3 0 3 -3v-40q0 -3 -3 -3h-60q-2 0 -2 -3v-81q0 -3 -3 -3h-46q-3 0 -3 3v81q0 3 -2 3h-178
q-3 0 -3 3v37q0 5 2 9l179 241q2 3 6 3zM534 295l-116 -158q-2 -4 3 -4h116q2 0 2 3v158q0 2 -1.5 2.5t-3.5 -1.5zM115 8l420 688q5 8 10 8h52q8 0 4 -8l-422 -688q-5 -8 -10 -8h-50q-8 0 -4 8z" />
    <glyph glyph-name="questiondown" unicode="&#xbf;" horiz-adv-x="511" 
d="M486 -5v-10q0 -85 -62 -139t-159 -54q-105 0 -169.5 59t-64.5 146q0 33 9 60.5t21.5 45.5t37 36.5t42.5 28.5t52 27q15 8 18 26v71q0 5 5 5h85q5 0 5 -5v-79q0 -66 -72 -96q-67 -28 -88 -55t-21 -65q0 -47 37.5 -83.5t102.5 -36.5q58 0 92 31.5t34 76.5v10q0 5 5 5h85
q5 0 5 -5zM199 506h120q5 0 5 -5v-122q0 -5 -5 -5h-120q-5 0 -5 5v122q0 5 5 5z" />
    <glyph glyph-name="Agrave" unicode="&#xc0;" horiz-adv-x="616" 
d="M248 704h123q4 0 6 -5l233 -694q2 -5 -5 -5h-94q-3 0 -5 5l-46 143q-1 5 -7 5h-290q-4 0 -6 -5l-47 -143q-2 -5 -5 -5h-93q-7 0 -6 5l236 694q2 5 6 5zM190 233h237q6 0 4 5l-117 366q-2 4 -5 4t-5 -4l-118 -366q-2 -5 4 -5zM344 765h-65q-6 0 -11 7l-78 121q-4 7 5 7h92
q8 0 10 -7l52 -121q3 -7 -5 -7z" />
    <glyph glyph-name="Aacute" unicode="&#xc1;" horiz-adv-x="616" 
d="M248 704h123q4 0 6 -5l233 -694q2 -5 -5 -5h-94q-3 0 -5 5l-46 143q-1 5 -7 5h-290q-4 0 -6 -5l-47 -143q-2 -5 -5 -5h-93q-7 0 -6 5l236 694q2 5 6 5zM190 233h237q6 0 4 5l-117 366q-2 4 -5 4t-5 -4l-118 -366q-2 -5 4 -5zM356 767h-65q-9 0 -5 7l51 121q2 7 10 7h92
q3 0 5 -2t0 -5l-77 -121q-5 -7 -11 -7z" />
    <glyph glyph-name="Acircumflex" unicode="&#xc2;" horiz-adv-x="616" 
d="M248 704h123q4 0 6 -5l233 -694q2 -5 -5 -5h-94q-3 0 -5 5l-46 143q-1 5 -7 5h-290q-4 0 -6 -5l-47 -143q-2 -5 -5 -5h-93q-7 0 -6 5l236 694q2 5 6 5zM190 233h237q6 0 4 5l-117 366q-2 4 -5 4t-5 -4l-118 -366q-2 -5 4 -5zM413 765h-63q-4 0 -5 3l-31 54q-5 9 -10 0
l-30 -54q-2 -3 -5 -3h-64q-9 0 -5 7l54 122q2 6 7 6h96q5 0 7 -6l54 -122q4 -7 -5 -7z" />
    <glyph glyph-name="Atilde" unicode="&#xc3;" horiz-adv-x="616" 
d="M248 704h123q4 0 6 -5l233 -694q2 -5 -5 -5h-94q-3 0 -5 5l-46 143q-1 5 -7 5h-290q-4 0 -6 -5l-47 -143q-2 -5 -5 -5h-93q-7 0 -6 5l236 694q2 5 6 5zM190 233h237q6 0 4 5l-117 366q-2 4 -5 4t-5 -4l-118 -366q-2 -5 4 -5zM155 791v23q0 33 24.5 59.5t77.5 26.5
q25 0 47.5 -11.5t37.5 -23t22 -11.5q8 0 13 1t12 10.5t7 29.5q0 5 5 5h60q5 0 5 -5v-24q0 -32 -24.5 -58.5t-77.5 -26.5q-30 0 -64.5 23t-42.5 23t-13 -1t-12 -10.5t-7 -29.5q0 -5 -5 -5h-60q-5 0 -5 5z" />
    <glyph glyph-name="Adieresis" unicode="&#xc4;" horiz-adv-x="616" 
d="M248 704h123q4 0 6 -5l233 -694q2 -5 -5 -5h-94q-3 0 -5 5l-46 143q-1 5 -7 5h-290q-4 0 -6 -5l-47 -143q-2 -5 -5 -5h-93q-7 0 -6 5l236 694q2 5 6 5zM190 233h237q6 0 4 5l-117 366q-2 4 -5 4t-5 -4l-118 -366q-2 -5 4 -5zM256 789h-100q-5 0 -5 5v101q0 5 5 5h100
q5 0 5 -5v-101q0 -5 -5 -5zM475 789h-100q-5 0 -5 5v101q0 5 5 5h100q5 0 5 -5v-101q0 -5 -5 -5z" />
    <glyph glyph-name="Aring" unicode="&#xc5;" horiz-adv-x="616" 
d="M396 835q0 -36 -26 -62t-62 -26t-62 26t-26 62t26 62t62 26t62 -26t26 -62zM349 835q0 17 -12 29t-29 12t-29 -12t-12 -29t12 -29t29 -12t29 12t12 29zM248 704h123q4 0 6 -5l233 -694q2 -5 -5 -5h-94q-3 0 -5 5l-46 143q-1 5 -7 5h-290q-4 0 -6 -5l-47 -143q-2 -5 -5 -5
h-93q-7 0 -6 5l236 694q2 5 6 5zM190 233h237q6 0 4 5l-117 366q-2 4 -5 4t-5 -4l-118 -366q-2 -5 4 -5z" />
    <glyph glyph-name="AE" unicode="&#xc6;" horiz-adv-x="962" 
d="M396 704h531q5 0 5 -5v-75q0 -5 -5 -5h-376q-5 0 -5 -5v-209q0 -5 5 -5h335q5 0 5 -5v-75q0 -5 -5 -5h-335q-5 0 -5 -5v-220q0 -5 5 -5h376q5 0 5 -5v-75q0 -5 -5 -5h-471h-1q-4 0 -4 5v149h-263l-84 -149q-2 -5 -5 -5h-93q-7 0 -6 5l390 694q2 5 6 5zM234 234h217v370
q-3 10 -7 0z" />
    <glyph glyph-name="Ccedilla" unicode="&#xc7;" horiz-adv-x="671" 
d="M540 215q1 5 7 5h88q5 0 5 -5q0 -27 -15 -61.5t-44.5 -70.5t-83.5 -62.5t-122 -30.5l-32 -35q-2 -2 -1.5 -5t4.5 -3q30 0 54.5 -19t24.5 -55q0 -33 -27 -57t-73 -24q-42 0 -65.5 24t-23.5 57q0 5 5 5h33q5 0 5 -5q0 -17 13.5 -30t32.5 -13q23 0 36.5 13t13.5 30
q0 26 -17 37.5t-38 11.5q-13 0 -16 3l-8 8q-7 7 0 14l29 39q2 4 -3 4q-143 0 -214.5 100t-71.5 262t84.5 262t231.5 100q76 0 136 -27t90.5 -65.5t46 -73.5t15.5 -59q0 -5 -5 -5h-88q-5 0 -7 5q-49 140 -188 140q-104 0 -160 -73t-56 -204t56 -204t160 -73q80 0 126 43.5
t62 96.5z" />
    <glyph glyph-name="Egrave" unicode="&#xc8;" horiz-adv-x="596" 
d="M75 5v694q0 5 5 5h481q5 0 5 -5v-75q0 -5 -5 -5h-386q-5 0 -5 -5v-204q0 -5 5 -5h345q5 0 5 -5v-75q0 -5 -5 -5h-345q-5 0 -5 -5v-225q0 -5 5 -5h386q5 0 5 -5v-75q0 -5 -5 -5h-481q-5 0 -5 5zM368 765h-65q-6 0 -11 7l-78 121q-4 7 5 7h92q8 0 10 -7l52 -121q3 -7 -5 -7
z" />
    <glyph glyph-name="Eacute" unicode="&#xc9;" horiz-adv-x="596" 
d="M75 5v694q0 5 5 5h481q5 0 5 -5v-75q0 -5 -5 -5h-386q-5 0 -5 -5v-204q0 -5 5 -5h345q5 0 5 -5v-75q0 -5 -5 -5h-345q-5 0 -5 -5v-225q0 -5 5 -5h386q5 0 5 -5v-75q0 -5 -5 -5h-481q-5 0 -5 5zM360 765h-65q-9 0 -5 7l51 121q2 7 10 7h92q3 0 5 -2t0 -5l-77 -121
q-5 -7 -11 -7z" />
    <glyph glyph-name="Ecircumflex" unicode="&#xca;" horiz-adv-x="596" 
d="M75 5v694q0 5 5 5h481q5 0 5 -5v-75q0 -5 -5 -5h-386q-5 0 -5 -5v-204q0 -5 5 -5h345q5 0 5 -5v-75q0 -5 -5 -5h-345q-5 0 -5 -5v-225q0 -5 5 -5h386q5 0 5 -5v-75q0 -5 -5 -5h-481q-5 0 -5 5zM424 765h-63q-3 0 -5 3l-31 54q-5 9 -10 0l-30 -54q-1 -3 -5 -3h-64
q-8 0 -5 7l54 122q2 6 7 6h96q5 0 7 -6l54 -122q3 -7 -5 -7z" />
    <glyph glyph-name="Edieresis" unicode="&#xcb;" horiz-adv-x="596" 
d="M75 5v694q0 5 5 5h481q5 0 5 -5v-75q0 -5 -5 -5h-386q-5 0 -5 -5v-204q0 -5 5 -5h345q5 0 5 -5v-75q0 -5 -5 -5h-345q-5 0 -5 -5v-225q0 -5 5 -5h386q5 0 5 -5v-75q0 -5 -5 -5h-481q-5 0 -5 5zM270 789h-100q-5 0 -5 5v101q0 5 5 5h100q5 0 5 -5v-101q0 -5 -5 -5z
M489 789h-100q-5 0 -5 5v101q0 5 5 5h100q5 0 5 -5v-101q0 -5 -5 -5z" />
    <glyph glyph-name="Igrave" unicode="&#xcc;" horiz-adv-x="245" 
d="M80 704h85q5 0 5 -5v-694q0 -5 -5 -5h-85q-5 0 -5 5v694q0 5 5 5zM156 765h-65q-6 0 -11 7l-78 121q-4 7 5 7h92q8 0 10 -7l52 -121q3 -7 -5 -7z" />
    <glyph glyph-name="Iacute" unicode="&#xcd;" horiz-adv-x="245" 
d="M80 704h85q5 0 5 -5v-694q0 -5 -5 -5h-85q-5 0 -5 5v694q0 5 5 5zM154 765h-65q-9 0 -5 7l51 121q2 7 10 7h92q3 0 5 -2t0 -5l-77 -121q-5 -7 -11 -7z" />
    <glyph glyph-name="Icircumflex" unicode="&#xce;" horiz-adv-x="245" 
d="M80 704h85q5 0 5 -5v-694q0 -5 -5 -5h-85q-5 0 -5 5v694q0 5 5 5zM225 765h-63q-4 0 -5 3l-31 54q-5 9 -10 0l-30 -54q-2 -3 -5 -3h-64q-9 0 -5 7l54 122q2 6 7 6h96q5 0 7 -6l54 -122q4 -7 -5 -7z" />
    <glyph glyph-name="Idieresis" unicode="&#xcf;" horiz-adv-x="245" 
d="M80 704h85q5 0 5 -5v-694q0 -5 -5 -5h-85q-5 0 -5 5v694q0 5 5 5zM64 789h-100q-5 0 -5 5v101q0 5 5 5h100q5 0 5 -5v-101q0 -5 -5 -5zM283 789h-100q-5 0 -5 5v101q0 5 5 5h100q5 0 5 -5v-101q0 -5 -5 -5z" />
    <glyph glyph-name="Eth" unicode="&#xd0;" horiz-adv-x="687" 
d="M76 5v307q0 5 -5 5h-77q-5 0 -5 5v64q0 5 5 5h77q5 0 5 5v303q0 5 5 5h255q153 0 233 -98t80 -261t-79.5 -254t-233.5 -91h-255q-5 0 -5 5zM323 317h-147q-5 0 -5 -5v-223q0 -5 5 -5h160q102 0 157.5 67t55.5 194q0 126 -56.5 200t-156.5 74h-161q-4 0 -4 -4v-219
q0 -5 5 -5h147q5 0 5 -5v-64q0 -5 -5 -5z" />
    <glyph glyph-name="Ntilde" unicode="&#xd1;" horiz-adv-x="718" 
d="M553 704h85q5 0 5 -5v-694q0 -5 -5 -5h-147q-5 0 -8 5l-303 601q-1 2 -3.5 2.5t-4.5 -0.5t-2 -4v-599q0 -5 -5 -5h-85q-5 0 -5 5v694q0 5 5 5h148q4 0 7 -5l303 -600q2 -4 6 -4t4 5v599q0 5 5 5zM203 791v23q0 33 24.5 59.5t77.5 26.5q25 0 47.5 -11.5t37.5 -23t22 -11.5
q8 0 13 1t12 10.5t7 29.5q0 5 5 5h60q5 0 5 -5v-24q0 -32 -24.5 -58.5t-77.5 -26.5q-30 0 -64.5 23t-42.5 23t-13 -1t-12 -10.5t-7 -29.5q0 -5 -5 -5h-60q-5 0 -5 5z" />
    <glyph glyph-name="Ograve" unicode="&#xd2;" horiz-adv-x="703" 
d="M667 352q0 -164 -81 -263t-234 -99t-234.5 99t-81.5 263t81.5 263t234.5 99t234 -99t81 -263zM352 75q104 0 160 73t56 204t-56 204t-160 73t-160 -73t-56 -204t56 -204t160 -73zM389 765h-65q-6 0 -11 7l-78 121q-3 7 5 7h92q8 0 10 -7l52 -121q4 -7 -5 -7z" />
    <glyph glyph-name="Oacute" unicode="&#xd3;" horiz-adv-x="703" 
d="M667 352q0 -164 -81 -263t-234 -99t-234.5 99t-81.5 263t81.5 263t234.5 99t234 -99t81 -263zM352 75q104 0 160 73t56 204t-56 204t-160 73t-160 -73t-56 -204t56 -204t160 -73zM391 765h-65q-8 0 -5 7l51 121q2 7 10 7h92q3 0 5 -2t0 -5l-77 -121q-5 -7 -11 -7z" />
    <glyph glyph-name="Ocircumflex" unicode="&#xd4;" horiz-adv-x="703" 
d="M667 352q0 -164 -81 -263t-234 -99t-234.5 99t-81.5 263t81.5 263t234.5 99t234 -99t81 -263zM352 75q104 0 160 73t56 204t-56 204t-160 73t-160 -73t-56 -204t56 -204t160 -73zM455 765h-63q-4 0 -5 3l-31 54q-5 9 -10 0l-30 -54q-2 -3 -5 -3h-64q-9 0 -5 7l54 122
q2 6 7 6h96q5 0 7 -6l54 -122q4 -7 -5 -7z" />
    <glyph glyph-name="Otilde" unicode="&#xd5;" horiz-adv-x="703" 
d="M667 352q0 -164 -81 -263t-234 -99t-234.5 99t-81.5 263t81.5 263t234.5 99t234 -99t81 -263zM352 75q104 0 160 73t56 204t-56 204t-160 73t-160 -73t-56 -204t56 -204t160 -73zM197 791v23q0 33 24.5 59.5t77.5 26.5q25 0 47.5 -11.5t37.5 -23t22 -11.5q8 0 13 1
t12 10.5t7 29.5q0 5 5 5h60q5 0 5 -5v-24q0 -32 -24.5 -58.5t-77.5 -26.5q-30 0 -64.5 23t-42.5 23t-13 -1t-12 -10.5t-7 -29.5q0 -5 -5 -5h-60q-5 0 -5 5z" />
    <glyph glyph-name="Odieresis" unicode="&#xd6;" horiz-adv-x="703" 
d="M667 352q0 -164 -81 -263t-234 -99t-234.5 99t-81.5 263t81.5 263t234.5 99t234 -99t81 -263zM352 75q104 0 160 73t56 204t-56 204t-160 73t-160 -73t-56 -204t56 -204t160 -73zM291 789h-100q-5 0 -5 5v101q0 5 5 5h100q5 0 5 -5v-101q0 -5 -5 -5zM510 789h-100
q-5 0 -5 5v101q0 5 5 5h100q5 0 5 -5v-101q0 -5 -5 -5z" />
    <glyph glyph-name="multiply" unicode="&#xd7;" horiz-adv-x="606" 
d="M296 189l-188 -188q-4 -3 -7 0l-50 49q-4 4 0 8l191 191q3 3 0 6l-192 192q-4 4 -1 7l51 50q4 4 7 0l189 -189q5 -5 10 0l189 189q3 4 7 0l50 -49q4 -4 0 -8l-192 -192q-3 -3 0 -6l191 -191q4 -4 0 -8l-50 -49q-3 -3 -7 0l-188 188q-5 5 -10 0z" />
    <glyph glyph-name="Oslash" unicode="&#xd8;" horiz-adv-x="703" 
d="M667 352q0 -164 -81 -263t-234 -99q-139 0 -221 84q-6 6 -11 1l-38 -38q-4 -3 -7 0l-39 39q-4 4 0 7l46 46q4 4 2 8q-48 90 -48 215q0 164 81.5 263t234.5 99q138 0 221 -86q4 -4 8 0l39 39q4 3 7 0l39 -39q4 -4 0 -7l-47 -47q-3 -3 -1 -7q49 -88 49 -215zM352 75
q104 0 160 73t56 204q0 81 -20 138q-3 10 -10 3l-342 -342q-4 -4 0 -8q56 -68 156 -68zM136 352q0 -78 20 -138q3 -8 9 -2l341 341q4 5 0 9q-56 67 -154 67q-104 0 -160 -73t-56 -204z" />
    <glyph glyph-name="Ugrave" unicode="&#xd9;" horiz-adv-x="630" 
d="M160 699v-460q0 -65 46 -114.5t110 -49.5q63 0 108.5 49.5t45.5 114.5v460q0 5 5 5h85q5 0 5 -5v-460q0 -104 -72.5 -176.5t-176.5 -72.5t-177.5 72.5t-73.5 176.5v460q0 5 5 5h85q5 0 5 -5zM361 765h-65q-6 0 -11 7l-78 121q-3 7 5 7h92q8 0 10 -7l52 -121q4 -7 -5 -7z
" />
    <glyph glyph-name="Uacute" unicode="&#xda;" horiz-adv-x="630" 
d="M160 699v-460q0 -65 46 -114.5t110 -49.5q63 0 108.5 49.5t45.5 114.5v460q0 5 5 5h85q5 0 5 -5v-460q0 -104 -72.5 -176.5t-176.5 -72.5t-177.5 72.5t-73.5 176.5v460q0 5 5 5h85q5 0 5 -5zM353 765h-65q-8 0 -5 7l51 121q2 7 10 7h92q3 0 5 -2t0 -5l-77 -121
q-5 -7 -11 -7z" />
    <glyph glyph-name="Ucircumflex" unicode="&#xdb;" horiz-adv-x="630" 
d="M160 699v-460q0 -65 46 -114.5t110 -49.5q63 0 108.5 49.5t45.5 114.5v460q0 5 5 5h85q5 0 5 -5v-460q0 -104 -72.5 -176.5t-176.5 -72.5t-177.5 72.5t-73.5 176.5v460q0 5 5 5h85q5 0 5 -5zM417 765h-63q-4 0 -5 3l-31 54q-5 9 -10 0l-30 -54q-2 -3 -5 -3h-64q-9 0 -5 7
l54 122q2 6 7 6h96q5 0 7 -6l54 -122q4 -7 -5 -7z" />
    <glyph glyph-name="Udieresis" unicode="&#xdc;" horiz-adv-x="630" 
d="M160 699v-460q0 -65 46 -114.5t110 -49.5q63 0 108.5 49.5t45.5 114.5v460q0 5 5 5h85q5 0 5 -5v-460q0 -104 -72.5 -176.5t-176.5 -72.5t-177.5 72.5t-73.5 176.5v460q0 5 5 5h85q5 0 5 -5zM253 789h-100q-5 0 -5 5v101q0 5 5 5h100q5 0 5 -5v-101q0 -5 -5 -5zM472 789
h-100q-5 0 -5 5v101q0 5 5 5h100q5 0 5 -5v-101q0 -5 -5 -5z" />
    <glyph glyph-name="Yacute" unicode="&#xdd;" horiz-adv-x="559" 
d="M568 699l-238 -386q-3 -5 -3 -10v-298q0 -5 -5 -5h-85q-5 0 -5 5v298q0 2 -5 10l-236 386q-3 5 3 5h101q5 0 8 -5l171 -285q5 -7 10 0l172 285q4 5 10 5h99q6 0 3 -5zM317 765h-65q-8 0 -5 7l51 121q2 7 10 7h92q3 0 5 -2t0 -5l-77 -121q-5 -7 -11 -7z" />
    <glyph glyph-name="Thorn" unicode="&#xde;" horiz-adv-x="611" 
d="M80 704h85q5 0 5 -5v-143q0 -5 5 -5h227q81 0 137 -58.5t57 -140.5q-1 -82 -57 -140.5t-137 -58.5h-227q-5 0 -5 -5v-143q0 -5 -5 -5h-85q-5 0 -5 5v694q0 5 5 5zM503 352q-1 44 -31.5 79t-69.5 35h-227q-5 0 -5 -5v-218q0 -5 5 -5h227q39 0 69.5 35t31.5 79z" />
    <glyph glyph-name="germandbls" unicode="&#xdf;" horiz-adv-x="576" 
d="M289 402h18q48 0 83 28.5t35 85.5q0 58 -39.5 85.5t-103.5 27.5q-56 0 -84.5 -37t-28.5 -82v-505q0 -5 -5 -5h-85q-5 0 -5 5v505q0 82 57 143t151 61q110 0 171 -55.5t61 -142.5q0 -47 -27 -89t-70 -63q-3 -2 -3 -4t3 -3q39 -11 78.5 -57t39.5 -102q0 -198 -240 -198h-29
q-5 0 -5 5v75q0 5 5 5h29q73 0 109.5 26.5t36.5 86.5q0 56 -42.5 88t-91.5 32h-18q-5 0 -5 5v74q0 5 5 5z" />
    <glyph glyph-name="agrave" unicode="&#xe0;" horiz-adv-x="558" 
d="M539 80v-75q0 -5 -5 -5h-19q-85 0 -106 51q-3 8 -9 2q-63 -63 -173 -63q-92 0 -143.5 43.5t-51.5 116.5q0 67 57 109.5t158 42.5h107q15 0 24 10.5t9 22.5q0 20 -3 33t-14 29.5t-38 25t-69 8.5q-61 0 -90.5 -25t-29.5 -66q0 -5 -5 -5h-85q-5 0 -5 5q0 84 62 130t153 46
q105 0 162 -45.5t57 -135.5v-217q0 -12 9 -22.5t24 -10.5h19q5 0 5 -5zM387 208v14q0 5 -5 5h-135q-62 0 -91 -23t-29 -54q0 -29 27 -52t73 -23q83 0 121.5 39.5t38.5 93.5zM304 569h-65q-6 0 -11 7l-78 121q-4 7 5 7h92q8 0 10 -7l52 -121q3 -7 -5 -7z" />
    <glyph glyph-name="aacute" unicode="&#xe1;" horiz-adv-x="558" 
d="M539 80v-75q0 -5 -5 -5h-19q-85 0 -106 51q-3 8 -9 2q-63 -63 -173 -63q-92 0 -143.5 43.5t-51.5 116.5q0 67 57 109.5t158 42.5h107q15 0 24 10.5t9 22.5q0 20 -3 33t-14 29.5t-38 25t-69 8.5q-61 0 -90.5 -25t-29.5 -66q0 -5 -5 -5h-85q-5 0 -5 5q0 84 62 130t153 46
q105 0 162 -45.5t57 -135.5v-217q0 -12 9 -22.5t24 -10.5h19q5 0 5 -5zM387 208v14q0 5 -5 5h-135q-62 0 -91 -23t-29 -54q0 -29 27 -52t73 -23q83 0 121.5 39.5t38.5 93.5zM296 569h-65q-9 0 -5 7l51 121q2 7 10 7h92q3 0 5 -2t0 -5l-77 -121q-5 -7 -11 -7z" />
    <glyph glyph-name="acircumflex" unicode="&#xe2;" horiz-adv-x="558" 
d="M539 80v-75q0 -5 -5 -5h-19q-85 0 -106 51q-3 8 -9 2q-63 -63 -173 -63q-92 0 -143.5 43.5t-51.5 116.5q0 67 57 109.5t158 42.5h107q15 0 24 10.5t9 22.5q0 20 -3 33t-14 29.5t-38 25t-69 8.5q-61 0 -90.5 -25t-29.5 -66q0 -5 -5 -5h-85q-5 0 -5 5q0 84 62 130t153 46
q105 0 162 -45.5t57 -135.5v-217q0 -12 9 -22.5t24 -10.5h19q5 0 5 -5zM387 208v14q0 5 -5 5h-135q-62 0 -91 -23t-29 -54q0 -29 27 -52t73 -23q83 0 121.5 39.5t38.5 93.5zM370 569h-63q-3 0 -5 3l-31 54q-5 9 -10 0l-30 -54q-1 -3 -5 -3h-64q-8 0 -5 7l54 122q2 6 7 6h96
q5 0 7 -6l54 -122q3 -7 -5 -7z" />
    <glyph glyph-name="atilde" unicode="&#xe3;" horiz-adv-x="558" 
d="M539 80v-75q0 -5 -5 -5h-19q-85 0 -106 51q-3 8 -9 2q-63 -63 -173 -63q-92 0 -143.5 43.5t-51.5 116.5q0 67 57 109.5t158 42.5h107q15 0 24 10.5t9 22.5q0 20 -3 33t-14 29.5t-38 25t-69 8.5q-61 0 -90.5 -25t-29.5 -66q0 -5 -5 -5h-85q-5 0 -5 5q0 84 62 130t153 46
q105 0 162 -45.5t57 -135.5v-217q0 -12 9 -22.5t24 -10.5h19q5 0 5 -5zM387 208v14q0 5 -5 5h-135q-62 0 -91 -23t-29 -54q0 -29 27 -52t73 -23q83 0 121.5 39.5t38.5 93.5zM119 595v23q0 33 24.5 59.5t77.5 26.5q25 0 47.5 -11.5t37.5 -23t22 -11.5q8 0 13 1t12 10.5
t7 29.5q0 5 5 5h60q5 0 5 -5v-24q0 -32 -24.5 -58.5t-77.5 -26.5q-30 0 -64.5 23t-42.5 23t-13 -1t-12 -10.5t-7 -29.5q0 -5 -5 -5h-60q-5 0 -5 5z" />
    <glyph glyph-name="adieresis" unicode="&#xe4;" horiz-adv-x="558" 
d="M539 80v-75q0 -5 -5 -5h-19q-85 0 -106 51q-3 8 -9 2q-63 -63 -173 -63q-92 0 -143.5 43.5t-51.5 116.5q0 67 57 109.5t158 42.5h107q15 0 24 10.5t9 22.5q0 20 -3 33t-14 29.5t-38 25t-69 8.5q-61 0 -90.5 -25t-29.5 -66q0 -5 -5 -5h-85q-5 0 -5 5q0 84 62 130t153 46
q105 0 162 -45.5t57 -135.5v-217q0 -12 9 -22.5t24 -10.5h19q5 0 5 -5zM387 208v14q0 5 -5 5h-135q-62 0 -91 -23t-29 -54q0 -29 27 -52t73 -23q83 0 121.5 39.5t38.5 93.5zM206 593h-100q-5 0 -5 5v101q0 5 5 5h100q5 0 5 -5v-101q0 -5 -5 -5zM425 593h-100q-5 0 -5 5v101
q0 5 5 5h100q5 0 5 -5v-101q0 -5 -5 -5z" />
    <glyph glyph-name="aring" unicode="&#xe5;" horiz-adv-x="558" 
d="M539 80v-75q0 -5 -5 -5h-19q-85 0 -106 51q-3 8 -9 2q-63 -63 -173 -63q-92 0 -143.5 43.5t-51.5 116.5q0 67 57 109.5t158 42.5h107q15 0 24 10.5t9 22.5q0 20 -3 33t-14 29.5t-38 25t-69 8.5q-61 0 -90.5 -25t-29.5 -66q0 -5 -5 -5h-85q-5 0 -5 5q0 84 62 130t153 46
q105 0 162 -45.5t57 -135.5v-217q0 -12 9 -22.5t24 -10.5h19q5 0 5 -5zM387 208v14q0 5 -5 5h-135q-62 0 -91 -23t-29 -54q0 -29 27 -52t73 -23q83 0 121.5 39.5t38.5 93.5zM355 637q0 -36 -26 -62t-62 -26t-62 26t-26 62t26 62t62 26t62 -26t26 -62zM308 637q0 17 -12 29
t-29 12t-29 -12t-12 -29t12 -29t29 -12t29 12t12 29z" />
    <glyph glyph-name="ae" unicode="&#xe6;" horiz-adv-x="913" 
d="M870 219h-373q-5 0 -5 -5q0 -57 39 -98t103 -41q49 0 76.5 18t45.5 52q2 5 7 5h94q6 0 5 -5q-19 -73 -80.5 -114t-147.5 -41q-125 0 -191 89q-6 9 -12 0q-26 -38 -76 -63.5t-112 -25.5q-93 0 -147 44.5t-54 115.5q0 67 56 109.5t155 42.5h111q14 0 23.5 9t9.5 22
q0 20 -3 33.5t-14 30t-38 25.5t-69 9q-117 0 -117 -91q0 -5 -5 -5h-86q-5 0 -5 5q0 84 61.5 130t151.5 46q119 0 178 -65q4 -6 9 -1q66 66 174 66q115 0 179.5 -72t64.5 -191q0 -17 -3 -29q-2 -5 -5 -5zM397 208v14q0 5 -5 5h-135q-63 0 -91.5 -23t-28.5 -54q0 -29 27 -52
t73 -23q83 0 121.5 39.5t38.5 93.5zM774 299q0 50 -36 91t-104 41q-66 0 -104 -44.5t-38 -87.5q0 -5 5 -5h272q5 0 5 5z" />
    <glyph glyph-name="ccedilla" unicode="&#xe7;" horiz-adv-x="554" 
d="M516 335h-89q-4 0 -6 5q-34 91 -138 91q-70 0 -111 -49.5t-41 -128.5t41 -128.5t111 -49.5q104 0 138 91q2 5 6 5h89q6 0 5 -5q-19 -74 -68 -118.5t-125 -54.5l-36 -38q-2 -2 -1.5 -5t4.5 -3q30 0 54.5 -19t24.5 -55q0 -33 -27 -57t-73 -24q-42 0 -65.5 24t-23.5 57
q0 5 5 5h33q5 0 5 -5q0 -17 13 -30t33 -13q23 0 36.5 13t13.5 30q0 26 -17 37.5t-38 11.5q-13 0 -16 3l-8 8q-7 7 0 14l29 37q4 6 -5 6h-5q-107 0 -167.5 73.5t-60.5 189.5q0 120 65.5 191.5t181.5 71.5q94 0 156 -46.5t82 -129.5q1 -5 -5 -5z" />
    <glyph glyph-name="egrave" unicode="&#xe8;" horiz-adv-x="558" 
d="M513 219h-371q-5 0 -5 -5q0 -57 39 -98t103 -41q90 0 127 70q2 5 7 5h89q6 0 5 -5q-19 -73 -80.5 -114t-147.5 -41q-111 0 -177 72.5t-66 190.5q0 120 64.5 191.5t178.5 71.5q115 0 179.5 -72t64.5 -191q0 -16 -3 -28q-2 -6 -7 -6zM419 299q0 50 -36 91t-104 41
q-66 0 -104 -44.5t-38 -87.5q0 -5 5 -5h272q5 0 5 5zM320 569h-65q-6 0 -11 7l-78 121q-4 7 5 7h92q8 0 10 -7l52 -121q3 -7 -5 -7z" />
    <glyph glyph-name="eacute" unicode="&#xe9;" horiz-adv-x="558" 
d="M513 219h-371q-5 0 -5 -5q0 -57 39 -98t103 -41q90 0 127 70q2 5 7 5h89q6 0 5 -5q-19 -73 -80.5 -114t-147.5 -41q-111 0 -177 72.5t-66 190.5q0 120 64.5 191.5t178.5 71.5q115 0 179.5 -72t64.5 -191q0 -16 -3 -28q-2 -6 -7 -6zM419 299q0 50 -36 91t-104 41
q-66 0 -104 -44.5t-38 -87.5q0 -5 5 -5h272q5 0 5 5zM322 569h-65q-9 0 -5 7l51 121q2 7 10 7h92q3 0 5 -2t0 -5l-77 -121q-5 -7 -11 -7z" />
    <glyph glyph-name="ecircumflex" unicode="&#xea;" horiz-adv-x="558" 
d="M513 219h-371q-5 0 -5 -5q0 -57 39 -98t103 -41q90 0 127 70q2 5 7 5h89q6 0 5 -5q-19 -73 -80.5 -114t-147.5 -41q-111 0 -177 72.5t-66 190.5q0 120 64.5 191.5t178.5 71.5q115 0 179.5 -72t64.5 -191q0 -16 -3 -28q-2 -6 -7 -6zM419 299q0 50 -36 91t-104 41
q-66 0 -104 -44.5t-38 -87.5q0 -5 5 -5h272q5 0 5 5zM376 569h-63q-3 0 -5 3l-31 54q-5 9 -10 0l-30 -54q-1 -3 -5 -3h-64q-8 0 -5 7l54 122q2 6 7 6h96q5 0 7 -6l54 -122q3 -7 -5 -7z" />
    <glyph glyph-name="edieresis" unicode="&#xeb;" horiz-adv-x="558" 
d="M513 219h-371q-5 0 -5 -5q0 -57 39 -98t103 -41q90 0 127 70q2 5 7 5h89q6 0 5 -5q-19 -73 -80.5 -114t-147.5 -41q-111 0 -177 72.5t-66 190.5q0 120 64.5 191.5t178.5 71.5q115 0 179.5 -72t64.5 -191q0 -16 -3 -28q-2 -6 -7 -6zM419 299q0 50 -36 91t-104 41
q-66 0 -104 -44.5t-38 -87.5q0 -5 5 -5h272q5 0 5 5zM222 593h-100q-5 0 -5 5v101q0 5 5 5h100q5 0 5 -5v-101q0 -5 -5 -5zM441 593h-100q-5 0 -5 5v101q0 5 5 5h100q5 0 5 -5v-101q0 -5 -5 -5z" />
    <glyph glyph-name="igrave" unicode="&#xec;" horiz-adv-x="243" 
d="M169 501v-496q0 -5 -5 -5h-85q-5 0 -5 5v496q0 5 5 5h85q5 0 5 -5zM152 569h-65q-6 0 -11 7l-78 121q-4 7 5 7h92q8 0 10 -7l52 -121q3 -7 -5 -7z" />
    <glyph glyph-name="iacute" unicode="&#xed;" horiz-adv-x="243" 
d="M169 501v-496q0 -5 -5 -5h-85q-5 0 -5 5v496q0 5 5 5h85q5 0 5 -5zM160 569h-65q-9 0 -5 7l51 121q2 7 10 7h92q3 0 5 -2t0 -5l-77 -121q-5 -7 -11 -7z" />
    <glyph glyph-name="icircumflex" unicode="&#xee;" horiz-adv-x="243" 
d="M169 501v-496q0 -5 -5 -5h-85q-5 0 -5 5v496q0 5 5 5h85q5 0 5 -5zM224 569h-63q-3 0 -5 3l-31 54q-5 9 -10 0l-30 -54q-1 -3 -5 -3h-64q-8 0 -5 7l54 122q2 6 7 6h96q5 0 7 -6l54 -122q3 -7 -5 -7z" />
    <glyph glyph-name="idieresis" unicode="&#xef;" horiz-adv-x="243" 
d="M169 501v-496q0 -5 -5 -5h-85q-5 0 -5 5v496q0 5 5 5h85q5 0 5 -5zM63 593h-100q-5 0 -5 5v101q0 5 5 5h100q5 0 5 -5v-101q0 -5 -5 -5zM282 593h-100q-5 0 -5 5v101q0 5 5 5h100q5 0 5 -5v-101q0 -5 -5 -5z" />
    <glyph glyph-name="eth" unicode="&#xf0;" horiz-adv-x="568" 
d="M325 521l-27 46q-2 5 -8 2l-63 -33q-5 -3 -7 2l-26 48q-3 5 2 7l62 33q5 2 2 8l-35 65q-3 5 5 5h88q4 0 7 -5l13 -25q3 -6 8 -2l55 30q8 4 11 -2l23 -45q3 -7 -3 -10l-55 -29q-4 -2 -2 -6l60 -104q1 -2 27 -43t35.5 -61t22 -63.5t12.5 -85.5q0 -119 -66.5 -191
t-181.5 -72q-116 0 -182 72t-66 191t66 191t182 72q20 0 36 -3q6 -1 6.5 2.5t-1.5 5.5zM437 253q0 79 -41 128.5t-112 49.5q-70 0 -111.5 -49.5t-41.5 -128.5t41.5 -128.5t111.5 -49.5q71 0 112 49.5t41 128.5z" />
    <glyph glyph-name="ntilde" unicode="&#xf1;" horiz-adv-x="595" 
d="M79 506h75q3 0 5 -5l10 -45q1 -4 5 -4t6 3q41 61 131 61q104 0 161 -66.5t57 -169.5v-275q0 -5 -5 -5h-85q-5 0 -5 5v275q0 64 -32 107.5t-101 43.5q-60 0 -96 -44.5t-36 -106.5v-275q0 -5 -5 -5h-85q-5 0 -5 5v496q0 5 5 5zM152 595v23q0 33 24.5 59.5t77.5 26.5
q25 0 47.5 -11.5t37.5 -23t22 -11.5q8 0 13 1t12 10.5t7 29.5q0 5 5 5h60q5 0 5 -5v-24q0 -32 -24.5 -58.5t-77.5 -26.5q-30 0 -64.5 23t-42.5 23t-13 -1t-12 -10.5t-7 -29.5q0 -5 -5 -5h-60q-5 0 -5 5z" />
    <glyph glyph-name="ograve" unicode="&#xf2;" horiz-adv-x="568" 
d="M532 253q0 -119 -66.5 -191t-181.5 -72q-116 0 -182 72t-66 191t66 191t182 72q115 0 181.5 -72t66.5 -191zM437 253q0 79 -41 128.5t-112 49.5q-70 0 -111.5 -49.5t-41.5 -128.5t41.5 -128.5t111.5 -49.5q71 0 112 49.5t41 128.5zM320 569h-65q-6 0 -11 7l-78 121
q-4 7 5 7h92q8 0 10 -7l52 -121q3 -7 -5 -7z" />
    <glyph glyph-name="oacute" unicode="&#xf3;" horiz-adv-x="568" 
d="M532 253q0 -119 -66.5 -191t-181.5 -72q-116 0 -182 72t-66 191t66 191t182 72q115 0 181.5 -72t66.5 -191zM437 253q0 79 -41 128.5t-112 49.5q-70 0 -111.5 -49.5t-41.5 -128.5t41.5 -128.5t111.5 -49.5q71 0 112 49.5t41 128.5zM322 569h-65q-9 0 -5 7l51 121
q2 7 10 7h92q3 0 5 -2t0 -5l-77 -121q-5 -7 -11 -7z" />
    <glyph glyph-name="ocircumflex" unicode="&#xf4;" horiz-adv-x="568" 
d="M532 253q0 -119 -66.5 -191t-181.5 -72q-116 0 -182 72t-66 191t66 191t182 72q115 0 181.5 -72t66.5 -191zM437 253q0 79 -41 128.5t-112 49.5q-70 0 -111.5 -49.5t-41.5 -128.5t41.5 -128.5t111.5 -49.5q71 0 112 49.5t41 128.5zM386 569h-63q-3 0 -5 3l-31 54
q-5 9 -10 0l-30 -54q-1 -3 -5 -3h-64q-8 0 -5 7l54 122q2 6 7 6h96q5 0 7 -6l54 -122q3 -7 -5 -7z" />
    <glyph glyph-name="otilde" unicode="&#xf5;" horiz-adv-x="568" 
d="M532 253q0 -119 -66.5 -191t-181.5 -72q-116 0 -182 72t-66 191t66 191t182 72q115 0 181.5 -72t66.5 -191zM437 253q0 79 -41 128.5t-112 49.5q-70 0 -111.5 -49.5t-41.5 -128.5t41.5 -128.5t111.5 -49.5q71 0 112 49.5t41 128.5zM135 595v23q0 33 24.5 59.5t77.5 26.5
q25 0 47.5 -11.5t37.5 -23t22 -11.5q8 0 13 1t12 10.5t7 29.5q0 5 5 5h60q5 0 5 -5v-24q0 -32 -24.5 -58.5t-77.5 -26.5q-30 0 -64.5 23t-42.5 23t-13 -1t-12 -10.5t-7 -29.5q0 -5 -5 -5h-60q-5 0 -5 5z" />
    <glyph glyph-name="odieresis" unicode="&#xf6;" horiz-adv-x="568" 
d="M532 253q0 -119 -66.5 -191t-181.5 -72q-116 0 -182 72t-66 191t66 191t182 72q115 0 181.5 -72t66.5 -191zM437 253q0 79 -41 128.5t-112 49.5q-70 0 -111.5 -49.5t-41.5 -128.5t41.5 -128.5t111.5 -49.5q71 0 112 49.5t41 128.5zM222 593h-100q-5 0 -5 5v101q0 5 5 5
h100q5 0 5 -5v-101q0 -5 -5 -5zM441 593h-100q-5 0 -5 5v101q0 5 5 5h100q5 0 5 -5v-101q0 -5 -5 -5z" />
    <glyph glyph-name="divide" unicode="&#xf7;" horiz-adv-x="612" 
d="M554 208h-496q-5 0 -5 5v80q0 5 5 5h496q5 0 5 -5v-80q0 -5 -5 -5zM366 374h-120q-5 0 -5 5v122q0 5 5 5h120q5 0 5 -5v-122q0 -5 -5 -5zM366 0h-120q-5 0 -5 5v122q0 5 5 5h120q5 0 5 -5v-122q0 -5 -5 -5z" />
    <glyph glyph-name="oslash" unicode="&#xf8;" horiz-adv-x="568" 
d="M535 458l-41 -42q-4 -4 0 -11q38 -66 38 -152q0 -119 -66.5 -191t-181.5 -72q-97 0 -158 49q-4 5 -9 0l-37 -37q-4 -4 -7 0l-39 39q-4 3 0 7l40 40q4 4 1 9q-39 63 -39 156q0 119 66 191t182 72q93 0 158 -51q5 -4 9 0l38 39q3 4 7 0l39 -39q3 -3 0 -7zM131 253
q0 -46 14 -83q3 -8 9 -2l222 222q6 6 0 11q-39 30 -92 30q-70 0 -111.5 -49.5t-41.5 -128.5zM437 253q0 45 -14 82q-3 8 -10 1l-221 -222q-6 -6 1 -11q35 -28 91 -28q71 0 112 49.5t41 128.5z" />
    <glyph glyph-name="ugrave" unicode="&#xf9;" horiz-adv-x="595" 
d="M516 0h-75q-3 0 -5 5l-10 45q-2 4 -5.5 4t-5.5 -3q-16 -23 -51.5 -42t-79.5 -19q-116 0 -167 64.5t-51 171.5v275q0 5 5 5h85q5 0 5 -5v-275q0 -64 32 -107.5t101 -43.5q60 0 96 44.5t36 106.5v275q0 5 5 5h85q5 0 5 -5v-496q0 -5 -5 -5zM340 569h-65q-6 0 -11 7l-78 121
q-4 7 5 7h92q8 0 10 -7l52 -121q3 -7 -5 -7z" />
    <glyph glyph-name="uacute" unicode="&#xfa;" horiz-adv-x="595" 
d="M516 0h-75q-3 0 -5 5l-10 45q-2 4 -5.5 4t-5.5 -3q-16 -23 -51.5 -42t-79.5 -19q-116 0 -167 64.5t-51 171.5v275q0 5 5 5h85q5 0 5 -5v-275q0 -64 32 -107.5t101 -43.5q60 0 96 44.5t36 106.5v275q0 5 5 5h85q5 0 5 -5v-496q0 -5 -5 -5zM332 569h-65q-9 0 -5 7l51 121
q2 7 10 7h92q3 0 5 -2t0 -5l-77 -121q-5 -7 -11 -7z" />
    <glyph glyph-name="ucircumflex" unicode="&#xfb;" horiz-adv-x="595" 
d="M516 0h-75q-3 0 -5 5l-10 45q-2 4 -5.5 4t-5.5 -3q-16 -23 -51.5 -42t-79.5 -19q-116 0 -167 64.5t-51 171.5v275q0 5 5 5h85q5 0 5 -5v-275q0 -64 32 -107.5t101 -43.5q60 0 96 44.5t36 106.5v275q0 5 5 5h85q5 0 5 -5v-496q0 -5 -5 -5zM396 569h-63q-3 0 -5 3l-31 54
q-5 9 -10 0l-30 -54q-1 -3 -5 -3h-64q-8 0 -5 7l54 122q2 6 7 6h96q5 0 7 -6l54 -122q3 -7 -5 -7z" />
    <glyph glyph-name="udieresis" unicode="&#xfc;" horiz-adv-x="595" 
d="M516 0h-75q-3 0 -5 5l-10 45q-2 4 -5.5 4t-5.5 -3q-16 -23 -51.5 -42t-79.5 -19q-116 0 -167 64.5t-51 171.5v275q0 5 5 5h85q5 0 5 -5v-275q0 -64 32 -107.5t101 -43.5q60 0 96 44.5t36 106.5v275q0 5 5 5h85q5 0 5 -5v-496q0 -5 -5 -5zM242 593h-100q-5 0 -5 5v101
q0 5 5 5h100q5 0 5 -5v-101q0 -5 -5 -5zM461 593h-100q-5 0 -5 5v101q0 5 5 5h100q5 0 5 -5v-101q0 -5 -5 -5z" />
    <glyph glyph-name="yacute" unicode="&#xfd;" horiz-adv-x="474" 
d="M-4 -193v75q0 5 5 5h113q43 0 58 25t1 66l-178 523q-1 5 6 5h91q3 0 5 -5l131 -402q2 -5 5 -5t5 5l132 402q2 5 5 5h91q7 0 5 -5l-200 -588q-22 -62 -51.5 -86.5t-88.5 -24.5h-130q-5 0 -5 5zM278 569h-65q-9 0 -5 7l51 121q2 7 10 7h92q3 0 5 -2t0 -5l-77 -121
q-5 -7 -11 -7z" />
    <glyph glyph-name="thorn" unicode="&#xfe;" horiz-adv-x="596" 
d="M164 -198h-85q-5 0 -5 5v892q0 5 5 5h85q5 0 5 -5v-228q0 -11 10 -3q63 48 133 48q110 0 179 -73t69 -190q0 -119 -66.5 -191t-181.5 -72q-33 0 -71 13t-62 37q-7 8 -10 0v-233q-2 -5 -5 -5zM465 253q0 79 -41 128.5t-112 49.5q-67 0 -105 -49t-38 -129t38 -129t105 -49
q71 0 112 49.5t41 128.5z" />
    <glyph glyph-name="ydieresis" unicode="&#xff;" horiz-adv-x="474" 
d="M-4 -193v75q0 5 5 5h113q43 0 58 25t1 66l-178 523q-1 5 6 5h91q3 0 5 -5l131 -402q2 -5 5 -5t5 5l132 402q2 5 5 5h91q7 0 5 -5l-200 -588q-22 -62 -51.5 -86.5t-88.5 -24.5h-130q-5 0 -5 5zM178 593h-100q-5 0 -5 5v101q0 5 5 5h100q5 0 5 -5v-101q0 -5 -5 -5zM397 593
h-100q-5 0 -5 5v101q0 5 5 5h100q5 0 5 -5v-101q0 -5 -5 -5z" />
    <glyph glyph-name="Amacron" unicode="&#x100;" horiz-adv-x="616" 
d="M248 704h123q4 0 6 -5l233 -694q2 -5 -5 -5h-94q-3 0 -5 5l-46 143q-1 5 -7 5h-290q-4 0 -6 -5l-47 -143q-2 -5 -5 -5h-93q-7 0 -6 5l236 694q2 5 6 5zM190 233h237q6 0 4 5l-117 366q-2 4 -5 4t-5 -4l-118 -366q-2 -5 4 -5zM465 786h-313q-5 0 -5 5v60q0 5 5 5h313
q5 0 5 -5v-60q0 -5 -5 -5z" />
    <glyph glyph-name="amacron" unicode="&#x101;" horiz-adv-x="558" 
d="M539 80v-75q0 -5 -5 -5h-19q-85 0 -106 51q-3 8 -9 2q-63 -63 -173 -63q-92 0 -143.5 43.5t-51.5 116.5q0 67 57 109.5t158 42.5h107q15 0 24 10.5t9 22.5q0 20 -3 33t-14 29.5t-38 25t-69 8.5q-61 0 -90.5 -25t-29.5 -66q0 -5 -5 -5h-85q-5 0 -5 5q0 84 62 130t153 46
q105 0 162 -45.5t57 -135.5v-217q0 -12 9 -22.5t24 -10.5h19q5 0 5 -5zM387 208v14q0 5 -5 5h-135q-62 0 -91 -23t-29 -54q0 -29 27 -52t73 -23q83 0 121.5 39.5t38.5 93.5zM434 590h-313q-5 0 -5 5v60q0 5 5 5h313q5 0 5 -5v-60q0 -5 -5 -5z" />
    <glyph glyph-name="Abreve" unicode="&#x102;" horiz-adv-x="616" 
d="M248 704h123q4 0 6 -5l233 -694q2 -5 -5 -5h-94q-3 0 -5 5l-46 143q-1 5 -7 5h-290q-4 0 -6 -5l-47 -143q-2 -5 -5 -5h-93q-7 0 -6 5l236 694q2 5 6 5zM190 233h237q6 0 4 5l-117 366q-2 4 -5 4t-5 -4l-118 -366q-2 -5 4 -5zM184 900h60q5 0 5 -5q0 -24 15 -43.5
t46 -19.5t46 19.5t15 43.5q0 5 5 5h60q5 0 5 -5q0 -61 -35.5 -95.5t-95.5 -34.5t-95.5 34.5t-35.5 95.5q0 5 5 5z" />
    <glyph glyph-name="abreve" unicode="&#x103;" horiz-adv-x="558" 
d="M539 80v-75q0 -5 -5 -5h-19q-85 0 -106 51q-3 8 -9 2q-63 -63 -173 -63q-92 0 -143.5 43.5t-51.5 116.5q0 67 57 109.5t158 42.5h107q15 0 24 10.5t9 22.5q0 20 -3 33t-14 29.5t-38 25t-69 8.5q-61 0 -90.5 -25t-29.5 -66q0 -5 -5 -5h-85q-5 0 -5 5q0 84 62 130t153 46
q105 0 162 -45.5t57 -135.5v-217q0 -12 9 -22.5t24 -10.5h19q5 0 5 -5zM387 208v14q0 5 -5 5h-135q-62 0 -91 -23t-29 -54q0 -29 27 -52t73 -23q83 0 121.5 39.5t38.5 93.5zM139 704h60q5 0 5 -5q0 -24 15 -43.5t46 -19.5t46 19.5t15 43.5q0 5 5 5h60q5 0 5 -5
q0 -61 -35.5 -95.5t-95.5 -34.5t-95.5 34.5t-35.5 95.5q0 5 5 5z" />
    <glyph glyph-name="Aogonek" unicode="&#x104;" horiz-adv-x="618" 
d="M248 704h123q4 0 6 -5l233 -694q2 -5 -5 -5h-29q-31 0 -53 -18.5t-22 -43.5q0 -30 19.5 -45.5t52.5 -15.5h34q5 0 5 -5v-65q0 -5 -5 -5h-44q-60 0 -96.5 26.5t-37.5 72.5q-1 34 20.5 60t52.5 39q5 2 4 7l-46 141q-1 5 -7 5h-290q-4 0 -6 -5l-47 -143q-2 -5 -5 -5h-93
q-7 0 -6 5l236 694q2 5 6 5zM190 233h237q6 0 4 5l-117 366q-2 4 -5 4t-5 -4l-118 -366q-2 -5 4 -5z" />
    <glyph glyph-name="aogonek" unicode="&#x105;" horiz-adv-x="558" 
d="M539 80v-75q0 -5 -5 -5h-7q-29 0 -49 -18.5t-20 -43.5q0 -30 19.5 -45.5t52.5 -15.5h4q5 0 5 -5v-65q0 -5 -5 -5h-14q-60 0 -96.5 26.5t-37.5 72.5q-1 67 67 96q4 1 4 5t-4 5q-28 11 -44 44q-3 8 -9 2q-60 -63 -172 -63q-92 0 -144 43.5t-52 116.5q0 67 57 109.5
t158 42.5h107q12 0 22.5 9t10.5 22q0 20 -3 33.5t-14 30t-38 25.5t-69 9q-117 0 -117 -91q0 -5 -5 -5h-86q-5 0 -5 5q0 84 61.5 130t151.5 46q105 0 162 -47t57 -138v-196q0 -27 8 -38.5t35 -11.5h9q5 0 5 -5zM387 208v14q0 5 -5 5h-135q-63 0 -91.5 -23t-28.5 -54
q0 -29 27 -52t73 -23q83 0 120.5 39.5t39.5 93.5z" />
    <glyph glyph-name="Cacute" unicode="&#x106;" horiz-adv-x="671" 
d="M540 215q1 5 7 5h88q5 0 5 -5q0 -28 -16.5 -63.5t-48.5 -73t-91 -63t-132 -25.5q-159 0 -237.5 97.5t-78.5 264.5q0 162 84.5 262t231.5 100q76 0 136 -27t90.5 -65.5t46 -73.5t15.5 -59q0 -5 -5 -5h-88q-5 0 -7 5q-49 140 -188 140q-104 0 -160 -73t-56 -204t56 -204
t160 -73q80 0 126 43.5t62 96.5zM378 765h-65q-9 0 -5 7l51 121q2 7 10 7h92q3 0 5 -2t0 -5l-77 -121q-5 -7 -11 -7z" />
    <glyph glyph-name="cacute" unicode="&#x107;" horiz-adv-x="554" 
d="M516 335h-89q-4 0 -6 5q-34 91 -138 91q-70 0 -111 -49.5t-41 -128.5t41 -128.5t111 -49.5q104 0 138 91q2 5 6 5h89q6 0 5 -5q-21 -84 -82.5 -130t-155.5 -46q-116 0 -181.5 72t-65.5 191q0 120 65.5 191.5t181.5 71.5q94 0 156 -46.5t82 -129.5q1 -5 -5 -5zM327 569
h-65q-8 0 -5 7l51 121q2 7 10 7h92q3 0 5 -2t0 -5l-77 -121q-5 -7 -11 -7z" />
    <glyph glyph-name="Ccircumflex" unicode="&#x108;" horiz-adv-x="671" 
d="M540 215q1 5 7 5h88q5 0 5 -5q0 -28 -16.5 -63.5t-48.5 -73t-91 -63t-132 -25.5q-159 0 -237.5 97.5t-78.5 264.5q0 162 84.5 262t231.5 100q76 0 136 -27t90.5 -65.5t46 -73.5t15.5 -59q0 -5 -5 -5h-88q-5 0 -7 5q-49 140 -188 140q-104 0 -160 -73t-56 -204t56 -204
t160 -73q80 0 126 43.5t62 96.5zM462 765h-63q-3 0 -5 3l-31 54q-5 9 -10 0l-30 -54q-1 -3 -5 -3h-64q-8 0 -5 7l54 122q2 6 7 6h96q5 0 7 -6l54 -122q3 -7 -5 -7z" />
    <glyph glyph-name="ccircumflex" unicode="&#x109;" horiz-adv-x="554" 
d="M516 335h-89q-4 0 -6 5q-34 91 -138 91q-70 0 -111 -49.5t-41 -128.5t41 -128.5t111 -49.5q104 0 138 91q2 5 6 5h89q6 0 5 -5q-21 -84 -82.5 -130t-155.5 -46q-116 0 -181.5 72t-65.5 191q0 120 65.5 191.5t181.5 71.5q94 0 156 -46.5t82 -129.5q1 -5 -5 -5zM391 569
h-63q-4 0 -5 3l-31 54q-5 9 -10 0l-30 -54q-2 -3 -5 -3h-64q-9 0 -5 7l54 122q2 6 7 6h96q5 0 7 -6l54 -122q4 -7 -5 -7z" />
    <glyph glyph-name="Cdotaccent" unicode="&#x10a;" horiz-adv-x="671" 
d="M540 215q1 5 7 5h88q5 0 5 -5q0 -28 -16.5 -63.5t-48.5 -73t-91 -63t-132 -25.5q-159 0 -237.5 97.5t-78.5 264.5q0 162 84.5 262t231.5 100q76 0 136 -27t90.5 -65.5t46 -73.5t15.5 -59q0 -5 -5 -5h-88q-5 0 -7 5q-49 140 -188 140q-104 0 -160 -73t-56 -204t56 -204
t160 -73q80 0 126 43.5t62 96.5zM404 789h-100q-5 0 -5 5v101q0 5 5 5h100q5 0 5 -5v-101q0 -5 -5 -5z" />
    <glyph glyph-name="cdotaccent" unicode="&#x10b;" horiz-adv-x="554" 
d="M516 335h-89q-4 0 -6 5q-34 91 -138 91q-70 0 -111 -49.5t-41 -128.5t41 -128.5t111 -49.5q104 0 138 91q2 5 6 5h89q6 0 5 -5q-21 -84 -82.5 -130t-155.5 -46q-116 0 -181.5 72t-65.5 191q0 120 65.5 191.5t181.5 71.5q94 0 156 -46.5t82 -129.5q1 -5 -5 -5zM334 593
h-100q-5 0 -5 5v101q0 5 5 5h100q5 0 5 -5v-101q0 -5 -5 -5z" />
    <glyph glyph-name="Ccaron" unicode="&#x10c;" horiz-adv-x="671" 
d="M540 215q1 5 7 5h88q5 0 5 -5q0 -28 -16.5 -63.5t-48.5 -73t-91 -63t-132 -25.5q-159 0 -237.5 97.5t-78.5 264.5q0 162 84.5 262t231.5 100q76 0 136 -27t90.5 -65.5t46 -73.5t15.5 -59q0 -5 -5 -5h-88q-5 0 -7 5q-49 140 -188 140q-104 0 -160 -73t-56 -204t56 -204
t160 -73q80 0 126 43.5t62 96.5zM399 900h63q8 0 5 -7l-54 -123q-2 -5 -7 -5h-96q-5 0 -7 5l-54 123q-3 7 5 7h64q4 0 5 -3l30 -55q6 -8 10 0l31 55q2 3 5 3z" />
    <glyph glyph-name="ccaron" unicode="&#x10d;" horiz-adv-x="554" 
d="M516 335h-89q-4 0 -6 5q-34 91 -138 91q-70 0 -111 -49.5t-41 -128.5t41 -128.5t111 -49.5q104 0 138 91q2 5 6 5h89q6 0 5 -5q-21 -84 -82.5 -130t-155.5 -46q-116 0 -181.5 72t-65.5 191q0 120 65.5 191.5t181.5 71.5q94 0 156 -46.5t82 -129.5q1 -5 -5 -5zM318 704h63
q9 0 5 -7l-54 -123q-2 -5 -7 -5h-96q-5 0 -7 5l-54 123q-4 7 5 7h64q3 0 5 -3l30 -55q6 -8 10 0l31 55q1 3 5 3z" />
    <glyph glyph-name="Dcaron" unicode="&#x10e;" horiz-adv-x="687" 
d="M338 0h-258q-5 0 -5 5v694q0 5 5 5h258q153 -1 233 -98.5t80 -260.5t-79.5 -254t-233.5 -91zM175 85h163q101 0 157 67t56 193t-56.5 200t-156.5 74h-163q-5 0 -5 -5v-524q0 -5 5 -5zM357 900h63q8 0 5 -7l-54 -123q-2 -5 -7 -5h-96q-5 0 -7 5l-54 123q-3 7 5 7h64
q4 0 5 -3l30 -55q6 -8 10 0l31 55q2 3 5 3z" />
    <glyph glyph-name="dcaron" unicode="&#x10f;" horiz-adv-x="596" 
d="M517 0h-75q-3 0 -5 5l-10 40q-3 9 -10 2q-21 -21 -64 -39t-79 -18q-109 0 -173.5 72.5t-64.5 190.5t64.5 190.5t173.5 72.5q46 0 87.5 -20.5t55.5 -36.5q4 -4 7 -2.5t3 4.5v238q0 5 5 5h85q5 0 5 -5v-694q0 -5 -5 -5zM131 253q0 -79 41 -128.5t112 -49.5q67 0 105 49
t38 129t-38 129t-105 49q-71 0 -112 -49.5t-41 -128.5zM589 625h-22q-5 0 -5 5v69q0 5 5 5h68q5 0 5 -5v-71q0 -35 -20.5 -58.5t-52.5 -23.5q-5 0 -5 5v29q0 5 5 5q10 0 18.5 10t8.5 25q0 5 -5 5z" />
    <glyph glyph-name="Dcroat" unicode="&#x110;" horiz-adv-x="687" 
d="M76 5v307q0 5 -5 5h-77q-5 0 -5 5v64q0 5 5 5h77q5 0 5 5v303q0 5 5 5h255q153 0 233 -98t80 -261t-79.5 -254t-233.5 -91h-255q-5 0 -5 5zM323 317h-147q-5 0 -5 -5v-223q0 -5 5 -5h160q102 0 157.5 67t55.5 194q0 126 -56.5 200t-156.5 74h-161q-4 0 -4 -4v-219
q0 -5 5 -5h147q5 0 5 -5v-64q0 -5 -5 -5z" />
    <glyph glyph-name="dcroat" unicode="&#x111;" horiz-adv-x="596" 
d="M517 0h-75q-3 0 -5 5l-10 41q-2 4 -5 4t-5 -3q-20 -22 -63 -39.5t-80 -17.5q-109 0 -173.5 72.5t-64.5 190.5t64.5 190.5t173.5 72.5q46 0 87.5 -20.5t55.5 -36.5q4 -4 7 -2.5t3 4.5v94q0 5 -5 5h-144q-5 0 -5 5v55q0 5 5 5h144q5 0 5 5v69q0 5 5 5h85q5 0 5 -5v-69
q0 -5 5 -5h54q5 0 5 -5v-55q0 -5 -5 -5h-54q-5 0 -5 -5v-550q0 -5 -5 -5zM131 253q0 -79 41 -128.5t112 -49.5q67 0 105 49t38 129t-38 129t-105 49q-71 0 -112 -49.5t-41 -128.5z" />
    <glyph glyph-name="Emacron" unicode="&#x112;" horiz-adv-x="596" 
d="M75 5v694q0 5 5 5h481q5 0 5 -5v-75q0 -5 -5 -5h-386q-5 0 -5 -5v-204q0 -5 5 -5h345q5 0 5 -5v-75q0 -5 -5 -5h-345q-5 0 -5 -5v-225q0 -5 5 -5h386q5 0 5 -5v-75q0 -5 -5 -5h-481q-5 0 -5 5zM486 786h-313q-5 0 -5 5v60q0 5 5 5h313q5 0 5 -5v-60q0 -5 -5 -5z" />
    <glyph glyph-name="emacron" unicode="&#x113;" horiz-adv-x="558" 
d="M513 219h-371q-5 0 -5 -5q0 -57 39 -98t103 -41q90 0 127 70q2 5 7 5h89q6 0 5 -5q-19 -73 -80.5 -114t-147.5 -41q-111 0 -177 72.5t-66 190.5q0 120 64.5 191.5t178.5 71.5q115 0 179.5 -72t64.5 -191q0 -16 -3 -28q-2 -6 -7 -6zM419 299q0 50 -36 91t-104 41
q-66 0 -104 -44.5t-38 -87.5q0 -5 5 -5h272q5 0 5 5zM430 590h-313q-5 0 -5 5v60q0 5 5 5h313q5 0 5 -5v-60q0 -5 -5 -5z" />
    <glyph glyph-name="Ebreve" unicode="&#x114;" horiz-adv-x="596" 
d="M75 5v694q0 5 5 5h481q5 0 5 -5v-75q0 -5 -5 -5h-386q-5 0 -5 -5v-204q0 -5 5 -5h345q5 0 5 -5v-75q0 -5 -5 -5h-345q-5 0 -5 -5v-225q0 -5 5 -5h386q5 0 5 -5v-75q0 -5 -5 -5h-481q-5 0 -5 5zM203 900h60q5 0 5 -5q0 -24 15 -43.5t46 -19.5t46 19.5t15 43.5q0 5 5 5h60
q5 0 5 -5q0 -61 -35.5 -95.5t-95.5 -34.5t-95.5 34.5t-35.5 95.5q0 5 5 5z" />
    <glyph glyph-name="ebreve" unicode="&#x115;" horiz-adv-x="558" 
d="M513 219h-371q-5 0 -5 -5q0 -57 39 -98t103 -41q90 0 127 70q2 5 7 5h89q6 0 5 -5q-19 -73 -80.5 -114t-147.5 -41q-111 0 -177 72.5t-66 190.5q0 120 64.5 191.5t178.5 71.5q115 0 179.5 -72t64.5 -191q0 -16 -3 -28q-2 -6 -7 -6zM419 299q0 50 -36 91t-104 41
q-66 0 -104 -44.5t-38 -87.5q0 -5 5 -5h272q5 0 5 5zM155 704h60q5 0 5 -5q0 -24 15 -43.5t46 -19.5t46 19.5t15 43.5q0 5 5 5h60q5 0 5 -5q0 -61 -35.5 -95.5t-95.5 -34.5t-95.5 34.5t-35.5 95.5q0 5 5 5z" />
    <glyph glyph-name="Edotaccent" unicode="&#x116;" horiz-adv-x="596" 
d="M75 5v694q0 5 5 5h481q5 0 5 -5v-75q0 -5 -5 -5h-386q-5 0 -5 -5v-204q0 -5 5 -5h345q5 0 5 -5v-75q0 -5 -5 -5h-345q-5 0 -5 -5v-225q0 -5 5 -5h386q5 0 5 -5v-75q0 -5 -5 -5h-481q-5 0 -5 5zM376 789h-100q-5 0 -5 5v101q0 5 5 5h100q5 0 5 -5v-101q0 -5 -5 -5z" />
    <glyph glyph-name="edotaccent" unicode="&#x117;" horiz-adv-x="558" 
d="M513 219h-371q-5 0 -5 -5q0 -57 39 -98t103 -41q90 0 127 70q2 5 7 5h89q6 0 5 -5q-19 -73 -80.5 -114t-147.5 -41q-111 0 -177 72.5t-66 190.5q0 120 64.5 191.5t178.5 71.5q115 0 179.5 -72t64.5 -191q0 -16 -3 -28q-2 -6 -7 -6zM419 299q0 50 -36 91t-104 41
q-66 0 -104 -44.5t-38 -87.5q0 -5 5 -5h272q5 0 5 5zM327 593h-100q-5 0 -5 5v101q0 5 5 5h100q5 0 5 -5v-101q0 -5 -5 -5z" />
    <glyph glyph-name="Eogonek" unicode="&#x118;" horiz-adv-x="596" 
d="M75 5v694q0 5 5 5h481q5 0 5 -5v-75q0 -5 -5 -5h-386q-5 0 -5 -5v-204q0 -5 5 -5h345q5 0 5 -5v-75q0 -5 -5 -5h-345q-5 0 -5 -5v-225q0 -5 5 -5h386q5 0 5 -5v-75q0 -5 -5 -5h-11q-31 0 -53 -18.5t-22 -43.5q0 -30 19.5 -45.5t52.5 -15.5h14q5 0 5 -5v-65q0 -5 -5 -5
h-24q-60 0 -96.5 26.5t-37.5 72.5q0 56 53 89q4 2 3 6t-6 4h-373q-5 0 -5 5z" />
    <glyph glyph-name="eogonek" unicode="&#x119;" horiz-adv-x="558" 
d="M515 219h-373q-5 0 -5 -5q0 -57 39 -98t103 -41q90 0 127 70q2 5 7 5h89q6 0 5 -5q-17 -61 -68 -104q-6 -5 -27 -20.5t-29.5 -23.5t-17.5 -24t-9 -35q0 -30 19.5 -45.5t52.5 -15.5h14q5 0 5 -5v-65q0 -5 -5 -5h-24q-59 0 -95.5 26t-38.5 73q-2 49 29 81q2 2 1 5.5t-5 3.5
q-16 -1 -30 -1q-111 0 -177 72.5t-66 190.5q0 120 64.5 191.5t178.5 71.5q115 0 179.5 -72t64.5 -191q0 -17 -3 -29q-2 -5 -5 -5zM419 299q0 50 -36 91t-104 41q-66 0 -104 -44.5t-38 -87.5q0 -5 5 -5h272q5 0 5 5z" />
    <glyph glyph-name="Ecaron" unicode="&#x11a;" horiz-adv-x="596" 
d="M75 5v694q0 5 5 5h481q5 0 5 -5v-75q0 -5 -5 -5h-386q-5 0 -5 -5v-204q0 -5 5 -5h345q5 0 5 -5v-75q0 -5 -5 -5h-345q-5 0 -5 -5v-225q0 -5 5 -5h386q5 0 5 -5v-75q0 -5 -5 -5h-481q-5 0 -5 5zM361 900h63q8 0 5 -7l-54 -123q-2 -5 -7 -5h-96q-5 0 -7 5l-54 123q-3 7 5 7
h64q4 0 5 -3l30 -55q6 -8 10 0l31 55q2 3 5 3z" />
    <glyph glyph-name="ecaron" unicode="&#x11b;" horiz-adv-x="558" 
d="M513 219h-371q-5 0 -5 -5q0 -57 39 -98t103 -41q90 0 127 70q2 5 7 5h89q6 0 5 -5q-19 -73 -80.5 -114t-147.5 -41q-111 0 -177 72.5t-66 190.5q0 120 64.5 191.5t178.5 71.5q115 0 179.5 -72t64.5 -191q0 -16 -3 -28q-2 -6 -7 -6zM419 299q0 50 -36 91t-104 41
q-66 0 -104 -44.5t-38 -87.5q0 -5 5 -5h272q5 0 5 5zM313 704h63q8 0 5 -7l-54 -123q-2 -5 -7 -5h-96q-5 0 -7 5l-54 123q-3 7 5 7h64q4 0 5 -3l30 -55q6 -8 10 0l31 55q2 3 5 3z" />
    <glyph glyph-name="Gcircumflex" unicode="&#x11c;" horiz-adv-x="726" 
d="M663 390v-385q0 -5 -5 -5h-73q-6 0 -7 6l-10 70q0 3 -3.5 4t-5.5 -2q-25 -34 -83.5 -61t-123.5 -27q-159 0 -237.5 97.5t-78.5 264.5q0 162 84.5 262t231.5 100q124 0 192.5 -57.5t93.5 -145.5q1 -5 -5 -5h-93q-5 0 -6 5q-22 58 -70 88t-112 30q-104 0 -160 -73t-56 -204
t56 -204t160 -73q107 0 161.5 55.5t54.5 174.5q0 5 -5 5h-206q-5 0 -5 5v75q0 5 5 5h301q5 0 5 -5zM466 765h-63q-3 0 -5 3l-31 54q-5 9 -10 0l-30 -54q-1 -3 -5 -3h-64q-8 0 -5 7l54 122q2 6 7 6h96q5 0 7 -6l54 -122q3 -7 -5 -7z" />
    <glyph glyph-name="gcircumflex" unicode="&#x11d;" horiz-adv-x="596" 
d="M158 -59q8 -23 40 -43.5t87 -20.5q73 0 107.5 41.5t34.5 100.5v27q0 3 -3.5 4.5t-6.5 -2.5q-12 -16 -54.5 -37t-88.5 -21q-103 0 -170.5 73.5t-67.5 189.5q0 118 64.5 190.5t173.5 72.5q36 0 78.5 -17t64.5 -39q7 -7 10 1l10 40q2 5 5 5h75q5 0 5 -5v-482
q0 -101 -65.5 -164t-171.5 -63q-90 0 -154 44t-70 105q0 5 5 5h87q3 0 5 -5zM131 253q0 -79 41 -128.5t112 -49.5q67 0 105 49t38 129t-38 129t-105 49q-71 0 -112 -49.5t-41 -128.5zM389 569h-63q-4 0 -5 3l-31 54q-5 9 -10 0l-30 -54q-2 -3 -5 -3h-64q-9 0 -5 7l54 122
q2 6 7 6h96q5 0 7 -6l54 -122q4 -7 -5 -7z" />
    <glyph glyph-name="Gbreve" unicode="&#x11e;" horiz-adv-x="726" 
d="M663 390v-385q0 -5 -5 -5h-73q-6 0 -7 6l-10 70q0 3 -3.5 4t-5.5 -2q-25 -34 -83.5 -61t-123.5 -27q-159 0 -237.5 97.5t-78.5 264.5q0 162 84.5 262t231.5 100q124 0 192.5 -57.5t93.5 -145.5q1 -5 -5 -5h-93q-5 0 -6 5q-22 58 -70 88t-112 30q-104 0 -160 -73t-56 -204
t56 -204t160 -73q107 0 161.5 55.5t54.5 174.5q0 5 -5 5h-206q-5 0 -5 5v75q0 5 5 5h301q5 0 5 -5zM226 900h60q5 0 5 -5q0 -24 15 -43.5t46 -19.5t46 19.5t15 43.5q0 5 5 5h60q5 0 5 -5q0 -61 -35.5 -95.5t-95.5 -34.5t-95.5 34.5t-35.5 95.5q0 5 5 5z" />
    <glyph glyph-name="gbreve" unicode="&#x11f;" horiz-adv-x="596" 
d="M158 -59q8 -23 40 -43.5t87 -20.5q73 0 107.5 41.5t34.5 100.5v27q0 3 -3.5 4.5t-6.5 -2.5q-12 -16 -54.5 -37t-88.5 -21q-103 0 -170.5 73.5t-67.5 189.5q0 118 64.5 190.5t173.5 72.5q36 0 78.5 -17t64.5 -39q7 -7 10 1l10 40q2 5 5 5h75q5 0 5 -5v-482
q0 -101 -65.5 -164t-171.5 -63q-90 0 -154 44t-70 105q0 5 5 5h87q3 0 5 -5zM131 253q0 -79 41 -128.5t112 -49.5q67 0 105 49t38 129t-38 129t-105 49q-71 0 -112 -49.5t-41 -128.5zM158 704h60q5 0 5 -5q0 -24 15 -43.5t46 -19.5t46 19.5t15 43.5q0 5 5 5h60q5 0 5 -5
q0 -61 -35.5 -95.5t-95.5 -34.5t-95.5 34.5t-35.5 95.5q0 5 5 5z" />
    <glyph glyph-name="Gdotaccent" unicode="&#x120;" horiz-adv-x="726" 
d="M663 390v-385q0 -5 -5 -5h-73q-6 0 -7 6l-10 70q0 3 -3.5 4t-5.5 -2q-25 -34 -83.5 -61t-123.5 -27q-159 0 -237.5 97.5t-78.5 264.5q0 162 84.5 262t231.5 100q124 0 192.5 -57.5t93.5 -145.5q1 -5 -5 -5h-93q-5 0 -6 5q-22 58 -70 88t-112 30q-104 0 -160 -73t-56 -204
t56 -204t160 -73q107 0 161.5 55.5t54.5 174.5q0 5 -5 5h-206q-5 0 -5 5v75q0 5 5 5h301q5 0 5 -5zM418 789h-100q-5 0 -5 5v101q0 5 5 5h100q5 0 5 -5v-101q0 -5 -5 -5z" />
    <glyph glyph-name="gdotaccent" unicode="&#x121;" horiz-adv-x="596" 
d="M158 -59q8 -23 40 -43.5t87 -20.5q73 0 107.5 41.5t34.5 100.5v27q0 3 -3.5 4.5t-6.5 -2.5q-12 -16 -54.5 -37t-88.5 -21q-103 0 -170.5 73.5t-67.5 189.5q0 118 64.5 190.5t173.5 72.5q36 0 78.5 -17t64.5 -39q7 -7 10 1l10 40q2 5 5 5h75q5 0 5 -5v-482
q0 -101 -65.5 -164t-171.5 -63q-90 0 -154 44t-70 105q0 5 5 5h87q3 0 5 -5zM131 253q0 -79 41 -128.5t112 -49.5q67 0 105 49t38 129t-38 129t-105 49q-71 0 -112 -49.5t-41 -128.5zM340 593h-100q-5 0 -5 5v101q0 5 5 5h100q5 0 5 -5v-101q0 -5 -5 -5z" />
    <glyph glyph-name="uni0122" unicode="&#x122;" horiz-adv-x="726" 
d="M663 390v-385q0 -5 -5 -5h-73q-6 0 -7 6l-10 70q0 3 -3.5 4t-5.5 -2q-25 -34 -83.5 -61t-123.5 -27q-159 0 -237.5 97.5t-78.5 264.5q0 162 84.5 262t231.5 100q124 0 192.5 -57.5t93.5 -145.5q1 -5 -5 -5h-93q-5 0 -6 5q-22 58 -70 88t-112 30q-104 0 -160 -73t-56 -204
t56 -204t160 -73q107 0 161.5 55.5t54.5 174.5q0 5 -5 5h-206q-5 0 -5 5v75q0 5 5 5h301q5 0 5 -5zM349 -129h-22q-5 0 -5 5v69q0 5 5 5h68q5 0 5 -5v-71q0 -35 -20.5 -58.5t-52.5 -23.5q-5 0 -5 5v29q0 5 5 5q10 0 18.5 10t8.5 25q0 5 -5 5z" />
    <glyph glyph-name="uni0123" unicode="&#x123;" horiz-adv-x="596" 
d="M158 -59q8 -23 40 -43.5t87 -20.5q73 0 107.5 41.5t34.5 100.5v27q0 3 -3.5 4.5t-6.5 -2.5q-12 -16 -54.5 -37t-88.5 -21q-103 0 -170.5 73.5t-67.5 189.5q0 118 64.5 190.5t173.5 72.5q36 0 78.5 -17t64.5 -39q7 -7 10 1l10 40q2 5 5 5h75q5 0 5 -5v-482
q0 -101 -65.5 -164t-171.5 -63q-90 0 -154 44t-70 105q0 5 5 5h87q3 0 5 -5zM131 253q0 -79 41 -128.5t112 -49.5q67 0 105 49t38 129t-38 129t-105 49q-71 0 -112 -49.5t-41 -128.5zM299 635h22q5 0 5 -5v-69q0 -5 -5 -5h-68q-5 0 -5 5v71q0 35 20.5 58.5t52.5 23.5
q5 0 5 -5v-29q0 -5 -5 -5q-10 0 -18.5 -10t-8.5 -25q0 -5 5 -5z" />
    <glyph glyph-name="Hcircumflex" unicode="&#x124;" horiz-adv-x="667" 
d="M502 704h85q5 0 5 -5v-694q0 -5 -5 -5h-85q-5 0 -5 5v310q0 5 -5 5h-317q-5 0 -5 -4v-311q0 -5 -5 -5h-85q-5 0 -5 5v694q0 5 5 5h85q5 0 5 -5v-289q0 -5 5 -5h317q5 0 5 5v289q0 5 5 5zM436 765h-63q-3 0 -5 3l-31 54q-5 9 -10 0l-30 -54q-1 -3 -5 -3h-64q-8 0 -5 7
l54 122q2 6 7 6h96q5 0 7 -6l54 -122q3 -7 -5 -7z" />
    <glyph glyph-name="hcircumflex" unicode="&#x125;" horiz-adv-x="595" 
d="M79 704h85q5 0 5 -5v-242q0 -4 4 -5t7 3q48 61 131 61q110 0 164 -65.5t54 -170.5v-275q0 -5 -5 -5h-85q-5 0 -5 5v275q0 64 -32 107.5t-101 43.5q-60 0 -96 -44.5t-36 -106.5v-275q0 -5 -5 -5h-85q-5 0 -5 5v694q0 5 5 5zM224 765h-63q-3 0 -5 3l-31 54q-5 9 -10 0
l-30 -54q-1 -3 -5 -3h-64q-8 0 -5 7l54 122q2 6 7 6h96q5 0 7 -6l54 -122q3 -7 -5 -7z" />
    <glyph glyph-name="Hbar" unicode="&#x126;" horiz-adv-x="667" 
d="M75 5v550q0 5 -5 5h-54q-4 0 -4 5v55q0 5 4 5h54q5 0 5 5v69q0 5 5 5h85q5 0 5 -5v-69q0 -5 5 -5h317q5 0 5 5v69q0 5 5 5h85q5 0 5 -5v-69q0 -5 5 -5h53q5 0 5 -5v-55q0 -5 -5 -5h-53q-5 0 -5 -5v-550q0 -5 -5 -5h-85q-5 0 -5 5v310q0 5 -5 5h-317q-5 0 -5 -4v-311
q0 -5 -5 -5h-85q-5 0 -5 5zM497 410v145q0 5 -5 5h-317q-5 0 -5 -5v-145q0 -5 5 -5h317q5 0 5 5z" />
    <glyph glyph-name="hbar" unicode="&#x127;" horiz-adv-x="595" 
d="M74 5v550q0 5 -5 5h-55q-4 0 -4 5v55q0 5 4 5h55q5 0 5 5v69q0 5 5 5h85q5 0 5 -5v-69q0 -5 5 -5h144q5 0 5 -5v-55q0 -5 -5 -5h-144q-5 0 -5 -5v-98q0 -4 4 -5t7 3q48 61 131 61q110 0 164 -65.5t54 -170.5v-275q0 -5 -5 -5h-85q-5 0 -5 5v275q0 64 -32 107.5t-101 43.5
q-60 0 -96 -44.5t-36 -106.5v-275q0 -5 -5 -5h-85q-5 0 -5 5z" />
    <glyph glyph-name="Itilde" unicode="&#x128;" horiz-adv-x="245" 
d="M80 704h85q5 0 5 -5v-694q0 -5 -5 -5h-85q-5 0 -5 5v694q0 5 5 5zM-33 791v23q0 33 24.5 59.5t77.5 26.5q25 0 47.5 -11.5t37.5 -23t22 -11.5q8 0 13 1t12 10.5t7 29.5q0 5 5 5h60q5 0 5 -5v-24q0 -32 -24.5 -58.5t-77.5 -26.5q-30 0 -64.5 23t-42.5 23t-13 -1t-12 -10.5
t-7 -29.5q0 -5 -5 -5h-60q-5 0 -5 5z" />
    <glyph glyph-name="itilde" unicode="&#x129;" horiz-adv-x="243" 
d="M169 501v-496q0 -5 -5 -5h-85q-5 0 -5 5v496q0 5 5 5h85q5 0 5 -5zM-27 595v23q0 33 24.5 59.5t77.5 26.5q25 0 47.5 -11.5t37.5 -23t22 -11.5q8 0 13 1t12 10.5t7 29.5q0 5 5 5h60q5 0 5 -5v-24q0 -32 -24.5 -58.5t-77.5 -26.5q-30 0 -64.5 23t-42.5 23t-13 -1
t-12 -10.5t-7 -29.5q0 -5 -5 -5h-60q-5 0 -5 5z" />
    <glyph glyph-name="Imacron" unicode="&#x12a;" horiz-adv-x="245" 
d="M80 704h85q5 0 5 -5v-694q0 -5 -5 -5h-85q-5 0 -5 5v694q0 5 5 5zM279 786h-313q-5 0 -5 5v60q0 5 5 5h313q5 0 5 -5v-60q0 -5 -5 -5z" />
    <glyph glyph-name="imacron" unicode="&#x12b;" horiz-adv-x="243" 
d="M169 501v-496q0 -5 -5 -5h-85q-5 0 -5 5v496q0 5 5 5h85q5 0 5 -5zM278 590h-313q-5 0 -5 5v60q0 5 5 5h313q5 0 5 -5v-60q0 -5 -5 -5z" />
    <glyph glyph-name="Iogonek" unicode="&#x12e;" horiz-adv-x="245" 
d="M80 704h85q5 0 5 -5v-694q0 -5 -5 -5h-4h-1h-12q-29 -1 -49 -19.5t-20 -42.5q0 -30 19.5 -45.5t52.5 -15.5h14q5 0 5 -5v-65q0 -5 -5 -5h-24q-60 0 -96.5 26.5t-37.5 72.5q0 71 68 99v699q0 5 5 5z" />
    <glyph glyph-name="iogonek" unicode="&#x12f;" horiz-adv-x="243" 
d="M169 501v-496q0 -5 -5 -5h-6h-1h-12q-29 -1 -49 -19.5t-20 -42.5q0 -30 19.5 -45.5t52.5 -15.5h14q5 0 5 -5v-65q0 -5 -5 -5h-24q-60 0 -96.5 26.5t-37.5 72.5q-2 75 70 99v501q0 5 5 5h85q5 0 5 -5zM171 593h-100q-5 0 -5 5v101q0 5 5 5h100q5 0 5 -5v-101q0 -5 -5 -5z
" />
    <glyph glyph-name="Idotaccent" unicode="&#x130;" horiz-adv-x="245" 
d="M80 704h85q5 0 5 -5v-694q0 -5 -5 -5h-85q-5 0 -5 5v694q0 5 5 5zM172 789h-100q-5 0 -5 5v101q0 5 5 5h100q5 0 5 -5v-101q0 -5 -5 -5z" />
    <glyph glyph-name="dotlessi" unicode="&#x131;" horiz-adv-x="243" 
d="M169 501v-496q0 -5 -5 -5h-85q-5 0 -5 5v496q0 5 5 5h85q5 0 5 -5z" />
    <glyph glyph-name="IJ" unicode="&#x132;" horiz-adv-x="718" 
d="M80 704h85q5 0 5 -5v-694q0 -5 -5 -5h-85q-5 0 -5 5v694q0 5 5 5zM260 220h85q5 0 5 -5v-17q0 -25 3 -43.5t13 -38.5t32 -30.5t56 -10.5q33 0 55.5 10.5t32 30.5t13 38.5t3.5 43.5v501q0 5 5 5h85q5 0 5 -5v-501q0 -97 -44.5 -152.5t-155.5 -55.5q-104 0 -151 57t-47 151
v17q0 5 5 5z" />
    <glyph glyph-name="ij" unicode="&#x133;" horiz-adv-x="486" 
d="M199 -193v75q0 5 5 5h59q54 0 54 50v564q0 5 5 5h85q5 0 5 -5v-581q0 -121 -131 -118h-77q-5 0 -5 5zM414 593h-100q-5 0 -5 5v101q0 5 5 5h100q5 0 5 -5v-101q0 -5 -5 -5zM169 501v-496q0 -5 -5 -5h-85q-5 0 -5 5v496q0 5 5 5h85q5 0 5 -5zM172 593h-100q-5 0 -5 5v101
q0 5 5 5h100q5 0 5 -5v-101q0 -5 -5 -5z" />
    <glyph glyph-name="Jcircumflex" unicode="&#x134;" horiz-adv-x="473" 
d="M15 220h85q5 0 5 -5v-17q0 -25 3 -43.5t13 -38.5t32 -30.5t56 -10.5q33 0 55.5 10.5t32 30.5t13 38.5t3.5 43.5v501q0 5 5 5h85q5 0 5 -5v-501q0 -97 -44.5 -152.5t-155.5 -55.5q-104 0 -151 57t-47 151v17q0 5 5 5zM463 765h-63q-4 0 -5 3l-31 54q-5 9 -10 0l-30 -54
q-2 -3 -5 -3h-64q-9 0 -5 7l54 122q2 6 7 6h96q5 0 7 -6l54 -122q4 -7 -5 -7z" />
    <glyph glyph-name="jcircumflex" unicode="&#x135;" horiz-adv-x="243" 
d="M-44 -193v75q0 5 5 5h59q54 0 54 50v564q0 5 5 5h85q5 0 5 -5v-581q0 -121 -131 -118h-77q-5 0 -5 5zM224 569h-63q-3 0 -5 3l-31 54q-5 9 -10 0l-30 -54q-1 -3 -5 -3h-64q-8 0 -5 7l54 122q2 6 7 6h96q5 0 7 -6l54 -122q3 -7 -5 -7z" />
    <glyph glyph-name="uni0136" unicode="&#x136;" horiz-adv-x="599" 
d="M502 5l-232 353q-2 4 -6 0l-90 -89q-4 -4 -4 -8v-256q0 -5 -5 -5h-85q-5 0 -5 5v694q0 5 5 5h85q5 0 5 -5v-299q0 -6 4 -2l307 301q5 5 8 5h114q2 0 3 -2t0 -3l-269 -267q-3 -3 0 -8l275 -419q5 -5 -3 -5h-99q-3 0 -8 5zM319 -129h-22q-5 0 -5 5v69q0 5 5 5h68q5 0 5 -5
v-71q0 -35 -20.5 -58.5t-52.5 -23.5q-5 0 -5 5v29q0 5 5 5q10 0 18.5 10t8.5 25q0 5 -5 5z" />
    <glyph glyph-name="uni0137" unicode="&#x137;" horiz-adv-x="550" 
d="M550 0h-90q-6 0 -9 5l-159 273q-3 4 -7 0l-114 -98q-2 -2 -2 -6v-169q0 -5 -5 -5h-85q-5 0 -5 5v694q0 5 5 5h85q5 0 5 -5v-392q0 -2 2.5 -3t4.5 1l230 196q6 5 15 5h123q2 0 3 -2t0 -3l-186 -158q-3 -3 0 -8l193 -330q2 -5 -4 -5zM284 -129h-22q-5 0 -5 5v69q0 5 5 5h68
q5 0 5 -5v-71q0 -35 -20.5 -58.5t-52.5 -23.5q-5 0 -5 5v29q0 5 5 5q10 0 18.5 10t8.5 25q0 5 -5 5z" />
    <glyph glyph-name="kgreenlandic" unicode="&#x138;" horiz-adv-x="550" 
d="M550 0h-90q-6 0 -9 5l-159 273q-3 4 -7 0l-114 -98q-2 -2 -2 -6v-169q0 -5 -5 -5h-85q-5 0 -5 5v496q0 5 5 5h85q5 0 5 -5v-194q0 -2 2.5 -3t4.5 1l230 196q6 5 15 5h123q2 0 3 -2t0 -3l-186 -158q-3 -3 0 -8l193 -330q2 -5 -4 -5z" />
    <glyph glyph-name="Lacute" unicode="&#x139;" horiz-adv-x="542" 
d="M75 5v694q0 5 5 5h85q5 0 5 -5v-609q0 -5 5 -5h350q5 0 5 -5v-75q0 -5 -5 -5h-445q-5 0 -5 5zM161 765h-65q-8 0 -5 7l51 121q2 7 10 7h92q3 0 5 -2t0 -5l-77 -121q-5 -7 -11 -7z" />
    <glyph glyph-name="lacute" unicode="&#x13a;" horiz-adv-x="243" 
d="M169 699v-694q0 -5 -5 -5h-85q-5 0 -5 5v694q0 5 5 5h85q5 0 5 -5zM160 765h-65q-9 0 -5 7l51 121q2 7 10 7h92q3 0 5 -2t0 -5l-77 -121q-5 -7 -11 -7z" />
    <glyph glyph-name="uni013B" unicode="&#x13b;" horiz-adv-x="542" 
d="M75 5v694q0 5 5 5h85q5 0 5 -5v-609q0 -5 5 -5h350q5 0 5 -5v-75q0 -5 -5 -5h-445q-5 0 -5 5zM294 -129h-22q-5 0 -5 5v69q0 5 5 5h68q5 0 5 -5v-71q0 -35 -20.5 -58.5t-52.5 -23.5q-5 0 -5 5v29q0 5 5 5q10 0 18.5 10t8.5 25q0 5 -5 5z" />
    <glyph glyph-name="uni013C" unicode="&#x13c;" horiz-adv-x="243" 
d="M169 699v-694q0 -5 -5 -5h-85q-5 0 -5 5v694q0 5 5 5h85q5 0 5 -5zM110 -129h-22q-5 0 -5 5v69q0 5 5 5h68q5 0 5 -5v-71q0 -35 -20.5 -58.5t-52.5 -23.5q-5 0 -5 5v29q0 5 5 5q10 0 18.5 10t8.5 25q0 5 -5 5z" />
    <glyph glyph-name="Lcaron" unicode="&#x13d;" horiz-adv-x="541" 
d="M75 5v694q0 5 5 5h85q5 0 5 -5v-609q0 -5 5 -5h350q5 0 5 -5v-75q0 -5 -5 -5h-445q-5 0 -5 5zM237 625h-22q-5 0 -5 5v69q0 5 5 5h68q5 0 5 -5v-71q0 -35 -20.5 -58.5t-52.5 -23.5q-5 0 -5 5v29q0 5 5 5q10 0 18.5 10t8.5 25q0 5 -5 5z" />
    <glyph glyph-name="lcaron" unicode="&#x13e;" horiz-adv-x="243" 
d="M169 699v-694q0 -5 -5 -5h-85q-5 0 -5 5v694q0 5 5 5h85q5 0 5 -5zM236 625h-22q-5 0 -5 5v69q0 5 5 5h68q5 0 5 -5v-71q0 -35 -20.5 -58.5t-52.5 -23.5q-5 0 -5 5v29q0 5 5 5q10 0 18.5 10t8.5 25q0 5 -5 5z" />
    <glyph glyph-name="Ldot" unicode="&#x13f;" horiz-adv-x="542" 
d="M75 5v694q0 5 5 5h85q5 0 5 -5v-609q0 -5 5 -5h350q5 0 5 -5v-75q0 -5 -5 -5h-445q-5 0 -5 5zM388 296h-100q-5 0 -5 5v101q0 5 5 5h100q5 0 5 -5v-101q0 -5 -5 -5z" />
    <glyph glyph-name="ldot" unicode="&#x140;" horiz-adv-x="299" 
d="M169 699v-694q0 -5 -5 -5h-85q-5 0 -5 5v694q0 5 5 5h85q5 0 5 -5zM314 296h-100q-5 0 -5 5v101q0 5 5 5h100q5 0 5 -5v-101q0 -5 -5 -5z" />
    <glyph glyph-name="Lslash" unicode="&#x141;" horiz-adv-x="557" 
d="M90 5v278q0 2 -2.5 3t-5.5 -1l-58 -46q-2 -2 -4.5 0t-2.5 5v73q0 4 3 7l67 53q3 3 3 7v315q0 5 5 5h85q5 0 5 -5v-236q0 -3 2.5 -4.5t5.5 0.5l58 46q1 2 4 1t3 -4v-73q0 -5 -3 -8l-68 -54q-2 -2 -2 -7v-270q0 -5 5 -5h350q5 0 5 -5v-75q0 -5 -5 -5h-445q-5 0 -5 5z" />
    <glyph glyph-name="lslash" unicode="&#x142;" horiz-adv-x="249" 
d="M77 5v278q0 2 -2.5 3t-5.5 -1l-58 -46q-2 -2 -4.5 0t-2.5 5v73q0 4 3 7l67 53q3 3 3 7v315q0 5 5 5h85q5 0 5 -5v-236q0 -3 2.5 -4.5t5.5 0.5l58 46q2 2 4.5 1t2.5 -4v-72q0 -6 -3 -9l-68 -54q-2 -2 -2 -6v-356q0 -5 -5 -5h-85q-5 0 -5 5z" />
    <glyph glyph-name="Nacute" unicode="&#x143;" horiz-adv-x="718" 
d="M553 704h85q5 0 5 -5v-694q0 -5 -5 -5h-147q-5 0 -8 5l-303 601q-1 2 -3.5 2.5t-4.5 -0.5t-2 -4v-599q0 -5 -5 -5h-85q-5 0 -5 5v694q0 5 5 5h148q4 0 7 -5l303 -600q2 -4 6 -4t4 5v599q0 5 5 5zM387 765h-65q-8 0 -5 7l51 121q2 7 10 7h92q3 0 5 -2t0 -5l-77 -121
q-5 -7 -11 -7z" />
    <glyph glyph-name="nacute" unicode="&#x144;" horiz-adv-x="595" 
d="M79 506h75q3 0 5 -5l10 -45q1 -4 5 -4t6 3q41 61 131 61q104 0 161 -66.5t57 -169.5v-275q0 -5 -5 -5h-85q-5 0 -5 5v275q0 64 -32 107.5t-101 43.5q-60 0 -96 -44.5t-36 -106.5v-275q0 -5 -5 -5h-85q-5 0 -5 5v496q0 5 5 5zM349 569h-65q-8 0 -5 7l51 121q2 7 10 7h92
q3 0 5 -2t0 -5l-77 -121q-5 -7 -11 -7z" />
    <glyph glyph-name="uni0145" unicode="&#x145;" horiz-adv-x="718" 
d="M553 704h85q5 0 5 -5v-694q0 -5 -5 -5h-147q-5 0 -8 5l-303 601q-1 2 -3.5 2.5t-4.5 -0.5t-2 -4v-599q0 -5 -5 -5h-85q-5 0 -5 5v694q0 5 5 5h148q4 0 7 -5l303 -600q2 -4 6 -4t4 5v599q0 5 5 5zM347 -129h-22q-5 0 -5 5v69q0 5 5 5h68q5 0 5 -5v-71q0 -35 -20.5 -58.5
t-52.5 -23.5q-5 0 -5 5v29q0 5 5 5q10 0 18.5 10t8.5 25q0 5 -5 5z" />
    <glyph glyph-name="uni0146" unicode="&#x146;" horiz-adv-x="595" 
d="M79 506h75q3 0 5 -5l10 -45q1 -4 5 -4t6 3q41 61 131 61q104 0 161 -66.5t57 -169.5v-275q0 -5 -5 -5h-85q-5 0 -5 5v275q0 64 -32 107.5t-101 43.5q-60 0 -96 -44.5t-36 -106.5v-275q0 -5 -5 -5h-85q-5 0 -5 5v496q0 5 5 5zM289 -129h-22q-5 0 -5 5v69q0 5 5 5h68
q5 0 5 -5v-71q0 -35 -20.5 -58.5t-52.5 -23.5q-5 0 -5 5v29q0 5 5 5q10 0 18.5 10t8.5 25q0 5 -5 5z" />
    <glyph glyph-name="Ncaron" unicode="&#x147;" horiz-adv-x="718" 
d="M553 704h85q5 0 5 -5v-694q0 -5 -5 -5h-147q-5 0 -8 5l-303 601q-1 2 -3.5 2.5t-4.5 -0.5t-2 -4v-599q0 -5 -5 -5h-85q-5 0 -5 5v694q0 5 5 5h148q4 0 7 -5l303 -600q2 -4 6 -4t4 5v599q0 5 5 5zM398 900h63q9 0 5 -7l-54 -123q-2 -5 -7 -5h-96q-5 0 -7 5l-54 123
q-4 7 5 7h64q3 0 5 -3l30 -55q6 -8 10 0l31 55q1 3 5 3z" />
    <glyph glyph-name="ncaron" unicode="&#x148;" horiz-adv-x="595" 
d="M79 506h75q3 0 5 -5l10 -45q1 -4 5 -4t6 3q41 61 131 61q104 0 161 -66.5t57 -169.5v-275q0 -5 -5 -5h-85q-5 0 -5 5v275q0 64 -32 107.5t-101 43.5q-60 0 -96 -44.5t-36 -106.5v-275q0 -5 -5 -5h-85q-5 0 -5 5v496q0 5 5 5zM340 704h63q9 0 5 -7l-54 -123q-2 -5 -7 -5
h-96q-5 0 -7 5l-54 123q-4 7 5 7h64q3 0 5 -3l30 -55q6 -8 10 0l31 55q1 3 5 3z" />
    <glyph glyph-name="napostrophe" unicode="&#x149;" horiz-adv-x="595" 
d="M79 506h75q3 0 5 -5l10 -45q1 -4 5 -4t6 3q41 61 131 61q104 0 161 -66.5t57 -169.5v-275q0 -5 -5 -5h-85q-5 0 -5 5v275q0 64 -32 107.5t-101 43.5q-60 0 -96 -44.5t-36 -106.5v-275q0 -5 -5 -5h-85q-5 0 -5 5v496q0 5 5 5zM62 625h-22q-5 0 -5 5v69q0 5 5 5h68
q5 0 5 -5v-71q0 -35 -20.5 -58.5t-52.5 -23.5q-5 0 -5 5v29q0 5 5 5q10 0 18.5 10t8.5 25q0 5 -5 5z" />
    <glyph glyph-name="Omacron" unicode="&#x14c;" horiz-adv-x="703" 
d="M667 352q0 -164 -81 -263t-234 -99t-234.5 99t-81.5 263t81.5 263t234.5 99t234 -99t81 -263zM352 75q104 0 160 73t56 204t-56 204t-160 73t-160 -73t-56 -204t56 -204t160 -73zM509 786h-313q-5 0 -5 5v60q0 5 5 5h313q5 0 5 -5v-60q0 -5 -5 -5z" />
    <glyph glyph-name="omacron" unicode="&#x14d;" horiz-adv-x="568" 
d="M532 253q0 -119 -66.5 -191t-181.5 -72q-116 0 -182 72t-66 191t66 191t182 72q115 0 181.5 -72t66.5 -191zM437 253q0 79 -41 128.5t-112 49.5q-70 0 -111.5 -49.5t-41.5 -128.5t41.5 -128.5t111.5 -49.5q71 0 112 49.5t41 128.5zM440 590h-313q-5 0 -5 5v60q0 5 5 5
h313q5 0 5 -5v-60q0 -5 -5 -5z" />
    <glyph glyph-name="Obreve" unicode="&#x14e;" horiz-adv-x="703" 
d="M225 900h60q5 0 5 -5q0 -24 15 -43.5t46 -19.5t46 19.5t15 43.5q0 5 5 5h60q5 0 5 -5q0 -61 -35.5 -95.5t-95.5 -34.5t-95.5 34.5t-35.5 95.5q0 5 5 5zM667 352q0 -164 -81 -263t-234 -99t-234.5 99t-81.5 263t81.5 263t234.5 99t234 -99t81 -263zM352 75q104 0 160 73
t56 204t-56 204t-160 73t-160 -73t-56 -204t56 -204t160 -73z" />
    <glyph glyph-name="obreve" unicode="&#x14f;" horiz-adv-x="568" 
d="M158 704h60q5 0 5 -5q0 -24 15 -43.5t46 -19.5t46 19.5t15 43.5q0 5 5 5h60q5 0 5 -5q0 -61 -35.5 -95.5t-95.5 -34.5t-95.5 34.5t-35.5 95.5q0 5 5 5zM532 253q0 -119 -66.5 -191t-181.5 -72q-116 0 -182 72t-66 191t66 191t182 72q115 0 181.5 -72t66.5 -191zM437 253
q0 79 -41 128.5t-112 49.5q-70 0 -111.5 -49.5t-41.5 -128.5t41.5 -128.5t111.5 -49.5q71 0 112 49.5t41 128.5z" />
    <glyph glyph-name="Ohungarumlaut" unicode="&#x150;" horiz-adv-x="703" 
d="M667 352q0 -164 -81 -263t-234 -99t-234.5 99t-81.5 263t81.5 263t234.5 99t234 -99t81 -263zM352 75q104 0 160 73t56 204t-56 204t-160 73t-160 -73t-56 -204t56 -204t160 -73zM280 765h-65q-9 0 -5 7l51 121q2 7 10 7h92q3 0 5 -2t0 -5l-77 -121q-5 -7 -11 -7z
M470 765h-65q-9 0 -5 7l51 121q2 7 10 7h92q3 0 5 -2t0 -5l-77 -121q-5 -7 -11 -7z" />
    <glyph glyph-name="ohungarumlaut" unicode="&#x151;" horiz-adv-x="568" 
d="M532 253q0 -119 -66.5 -191t-181.5 -72q-116 0 -182 72t-66 191t66 191t182 72q115 0 181.5 -72t66.5 -191zM437 253q0 79 -41 128.5t-112 49.5q-70 0 -111.5 -49.5t-41.5 -128.5t41.5 -128.5t111.5 -49.5q71 0 112 49.5t41 128.5zM208 569h-65q-9 0 -5 7l51 121
q2 7 10 7h92q3 0 5 -2t0 -5l-77 -121q-5 -7 -11 -7zM398 569h-65q-9 0 -5 7l51 121q2 7 10 7h92q3 0 5 -2t0 -5l-77 -121q-5 -7 -11 -7z" />
    <glyph glyph-name="OE" unicode="&#x152;" horiz-adv-x="1079" 
d="M568 645v54q0 5 5 5h471q5 0 5 -5v-75q0 -5 -5 -5h-376q-5 0 -5 -5v-209q0 -5 5 -5h335q5 0 5 -5v-75q0 -5 -5 -5h-335q-5 0 -5 -5v-220q0 -5 5 -5h376q5 0 5 -5v-75q0 -5 -5 -5h-471q-5 0 -5 5v54q0 4 -3 5t-5 -1q-72 -73 -208 -73q-153 0 -234.5 99t-81.5 263t81.5 263
t234.5 99q67 0 113.5 -17t93.5 -55q4 -3 6.5 -1.5t2.5 4.5zM352 75q104 0 160 73t56 204t-56 204t-160 73t-160 -73t-56 -204t56 -204t160 -73z" />
    <glyph glyph-name="oe" unicode="&#x153;" horiz-adv-x="952" 
d="M909 219h-373q-5 0 -5 -5q0 -57 39 -98t103 -41q49 0 76.5 18t45.5 52q3 5 7 5h94q6 0 5 -5q-19 -73 -80.5 -114t-147.5 -41q-122 0 -188 83q-5 7 -10 0q-66 -83 -191 -83q-116 0 -182 72t-66 191t66 191t182 72q121 0 190 -82q5 -6 11 0q68 82 188 82q115 0 179.5 -72
t64.5 -191q0 -17 -3 -29q-2 -5 -5 -5zM437 253q0 79 -41 128.5t-112 49.5q-70 0 -111.5 -49.5t-41.5 -128.5t41.5 -128.5t111.5 -49.5q71 0 112 49.5t41 128.5zM813 299q0 50 -36 91t-104 41q-66 0 -104 -44.5t-38 -87.5q0 -5 5 -5h272q5 0 5 5z" />
    <glyph glyph-name="Racute" unicode="&#x154;" horiz-adv-x="609" 
d="M75 5v694q0 5 5 5h292q83 0 143.5 -62.5t60.5 -151.5q0 -64 -33 -114.5t-86 -75.5q-5 -2 -2 -8l126 -283q5 -9 -4 -9h-85q-5 0 -7 5l-120 270q-2 5 -9 5h-181q-5 0 -5 -5v-270q0 -5 -5 -5h-85q-5 0 -5 5zM360 619h-185q-5 0 -5 -5v-244q0 -5 5 -5h189q46 0 81.5 37
t35.5 88t-36.5 90t-84.5 39zM336 765h-65q-9 0 -5 7l51 121q2 7 10 7h92q3 0 5 -2t0 -5l-77 -121q-5 -7 -11 -7z" />
    <glyph glyph-name="racute" unicode="&#x155;" horiz-adv-x="366" 
d="M352 431h-51q-60 0 -96 -44.5t-36 -106.5v-275q0 -5 -5 -5h-85q-5 0 -5 5v496q0 5 5 5h75q3 0 5 -5l10 -45q3 -9 11 -1q61 61 121 61h51q5 0 5 -5v-75q0 -5 -5 -5zM248 569h-65q-9 0 -5 7l51 121q2 7 10 7h92q3 0 5 -2t0 -5l-77 -121q-5 -7 -11 -7z" />
    <glyph glyph-name="uni0156" unicode="&#x156;" horiz-adv-x="609" 
d="M75 5v694q0 5 5 5h292q83 0 143.5 -62.5t60.5 -151.5q0 -64 -33 -114.5t-86 -75.5q-5 -2 -2 -8l126 -283q5 -9 -4 -9h-85q-5 0 -7 5l-120 270q-2 5 -9 5h-181q-5 0 -5 -5v-270q0 -5 -5 -5h-85q-5 0 -5 5zM360 619h-185q-5 0 -5 -5v-244q0 -5 5 -5h189q46 0 81.5 37
t35.5 88t-36.5 90t-84.5 39zM296 -129h-22q-5 0 -5 5v69q0 5 5 5h68q5 0 5 -5v-71q0 -35 -20.5 -58.5t-52.5 -23.5q-5 0 -5 5v29q0 5 5 5q10 0 18.5 10t8.5 25q0 5 -5 5z" />
    <glyph glyph-name="uni0157" unicode="&#x157;" horiz-adv-x="366" 
d="M352 431h-51q-60 0 -96 -44.5t-36 -106.5v-275q0 -5 -5 -5h-85q-5 0 -5 5v496q0 5 5 5h75q3 0 5 -5l10 -45q3 -9 11 -1q61 61 121 61h51q5 0 5 -5v-75q0 -5 -5 -5zM110 -129h-22q-5 0 -5 5v69q0 5 5 5h68q5 0 5 -5v-71q0 -35 -20.5 -58.5t-52.5 -23.5q-5 0 -5 5v29
q0 5 5 5q10 0 18.5 10t8.5 25q0 5 -5 5z" />
    <glyph glyph-name="Rcaron" unicode="&#x158;" horiz-adv-x="609" 
d="M75 5v694q0 5 5 5h292q83 0 143.5 -62.5t60.5 -151.5q0 -64 -33 -114.5t-86 -75.5q-5 -2 -2 -8l126 -283q5 -9 -4 -9h-85q-5 0 -7 5l-120 270q-2 5 -9 5h-181q-5 0 -5 -5v-270q0 -5 -5 -5h-85q-5 0 -5 5zM360 619h-185q-5 0 -5 -5v-244q0 -5 5 -5h189q46 0 81.5 37
t35.5 88t-36.5 90t-84.5 39zM347 900h63q8 0 5 -7l-54 -123q-2 -5 -7 -5h-96q-5 0 -7 5l-54 123q-3 7 5 7h64q4 0 5 -3l30 -55q6 -8 10 0l31 55q2 3 5 3z" />
    <glyph glyph-name="rcaron" unicode="&#x159;" horiz-adv-x="366" 
d="M352 431h-51q-60 0 -96 -44.5t-36 -106.5v-275q0 -5 -5 -5h-85q-5 0 -5 5v496q0 5 5 5h75q3 0 5 -5l10 -45q3 -9 11 -1q61 61 121 61h51q5 0 5 -5v-75q0 -5 -5 -5zM239 704h63q8 0 5 -7l-54 -123q-2 -5 -7 -5h-96q-5 0 -7 5l-54 123q-3 7 5 7h64q4 0 5 -3l30 -55
q6 -8 10 0l31 55q2 3 5 3z" />
    <glyph glyph-name="Sacute" unicode="&#x15a;" horiz-adv-x="604" 
d="M442 511q0 51 -42.5 84.5t-108.5 33.5q-60 0 -102 -33t-42 -83q0 -29 13.5 -49t39.5 -30.5t47.5 -15t54.5 -8.5q58 -7 98.5 -17t82.5 -32t64 -63t22 -100q0 -85 -66 -146.5t-201 -61.5q-124 0 -195.5 59t-71.5 144q0 5 5 5h89q6 0 6 -6q0 -43 44.5 -80t122.5 -37
q77 0 122 35.5t45 87.5q0 32 -13 54.5t-39 34.5t-51.5 18t-63.5 10q-39 4 -70 10t-67.5 20.5t-60.5 34.5t-40.5 54t-16.5 79q0 91 73 146t171 55q103 0 177 -53t74 -150q0 -5 -5 -5h-90q-5 0 -5 5zM334 765h-65q-9 0 -5 7l51 121q2 7 10 7h92q3 0 5 -2t0 -5l-77 -121
q-5 -7 -11 -7z" />
    <glyph glyph-name="sacute" unicode="&#x15b;" horiz-adv-x="513" 
d="M458 335h-86q-5 0 -5 5q0 42 -32.5 66.5t-92.5 24.5q-53 0 -80.5 -19t-27.5 -45q0 -12 3.5 -21t12 -15.5t16 -10.5t22 -7.5t22 -4.5t24.5 -3t22 -3q104 -15 139 -29q81 -34 81 -122q0 -82 -60 -121.5t-160 -39.5q-109 0 -167.5 50t-58.5 126q0 5 5 5h84q6 0 6 -5
q0 -39 36 -65t95 -26q125 0 125 76q0 9 -2.5 17t-8.5 14t-11.5 10.5t-16 8l-16.5 5.5t-19 4t-18 3t-18 2.5t-15 1.5q-32 4 -50.5 6.5t-48 9.5t-47 17t-36 25.5t-27 38.5t-8.5 53q0 63 56 106t147 43q97 0 158.5 -45.5t61.5 -130.5q0 -5 -4 -5zM290 569h-65q-9 0 -5 7l51 121
q2 7 10 7h92q3 0 5 -2t0 -5l-77 -121q-5 -7 -11 -7z" />
    <glyph glyph-name="Scircumflex" unicode="&#x15c;" horiz-adv-x="604" 
d="M442 511q0 51 -42.5 84.5t-108.5 33.5q-60 0 -102 -33t-42 -83q0 -29 13.5 -49t39.5 -30.5t47.5 -15t54.5 -8.5q58 -7 98.5 -17t82.5 -32t64 -63t22 -100q0 -85 -66 -146.5t-201 -61.5q-124 0 -195.5 59t-71.5 144q0 5 5 5h89q6 0 6 -6q0 -43 44.5 -80t122.5 -37
q77 0 122 35.5t45 87.5q0 32 -13 54.5t-39 34.5t-51.5 18t-63.5 10q-39 4 -70 10t-67.5 20.5t-60.5 34.5t-40.5 54t-16.5 79q0 91 73 146t171 55q103 0 177 -53t74 -150q0 -5 -5 -5h-90q-5 0 -5 5zM408 765h-63q-3 0 -5 3l-31 54q-5 9 -10 0l-30 -54q-1 -3 -5 -3h-64
q-8 0 -5 7l54 122q2 6 7 6h96q5 0 7 -6l54 -122q3 -7 -5 -7z" />
    <glyph glyph-name="scircumflex" unicode="&#x15d;" horiz-adv-x="513" 
d="M458 335h-86q-5 0 -5 5q0 42 -32.5 66.5t-92.5 24.5q-53 0 -80.5 -19t-27.5 -45q0 -12 3.5 -21t12 -15.5t16 -10.5t22 -7.5t22 -4.5t24.5 -3t22 -3q104 -15 139 -29q81 -34 81 -122q0 -82 -60 -121.5t-160 -39.5q-109 0 -167.5 50t-58.5 126q0 5 5 5h84q6 0 6 -5
q0 -39 36 -65t95 -26q125 0 125 76q0 9 -2.5 17t-8.5 14t-11.5 10.5t-16 8l-16.5 5.5t-19 4t-18 3t-18 2.5t-15 1.5q-32 4 -50.5 6.5t-48 9.5t-47 17t-36 25.5t-27 38.5t-8.5 53q0 63 56 106t147 43q97 0 158.5 -45.5t61.5 -130.5q0 -5 -4 -5zM354 569h-63q-3 0 -5 3l-31 54
q-5 9 -10 0l-30 -54q-1 -3 -5 -3h-64q-8 0 -5 7l54 122q2 6 7 6h96q5 0 7 -6l54 -122q3 -7 -5 -7z" />
    <glyph glyph-name="Scedilla" unicode="&#x15e;" horiz-adv-x="604" 
d="M442 511q0 51 -42.5 84.5t-108.5 33.5q-60 0 -102 -33t-42 -83q0 -29 13.5 -49t39.5 -30.5t47.5 -15t54.5 -8.5q58 -7 98.5 -17t82.5 -32t64 -63t22 -100q0 -72 -48.5 -129t-146.5 -73l-58 -41q-2 -1 -1.5 -4.5t4.5 -3.5q30 0 54.5 -19t24.5 -55q0 -33 -27 -57t-73 -24
q-42 0 -65.5 24t-23.5 57q0 5 5 5h33q5 0 5 -5q0 -17 13 -30t33 -13q23 0 36.5 13t13.5 30q0 26 -17 37.5t-38 11.5q-13 0 -16 3l-8 8q-7 7 -1 12l44 36q3 1 2 5t-5 4h-7q-124 0 -195.5 59t-71.5 144q0 5 5 5h89q6 0 6 -6q0 -43 44.5 -80t122.5 -37q77 0 122 35.5t45 87.5
q0 32 -13 54.5t-39 34.5t-51.5 18t-63.5 10q-39 4 -70 10t-67.5 20.5t-60.5 34.5t-40.5 54t-16.5 79q0 91 73 146t171 55q102 0 174.5 -52.5t76.5 -150.5q0 -5 -5 -5h-90q-5 0 -5 5z" />
    <glyph glyph-name="scedilla" unicode="&#x15f;" horiz-adv-x="513" 
d="M458 335h-86q-5 0 -5 5q0 42 -32.5 66.5t-92.5 24.5q-53 0 -80.5 -19t-27.5 -45q0 -12 3.5 -21t12 -15.5t16 -10.5t22 -7.5t22 -4.5t24.5 -3t22 -3q106 -14 144 -31q76 -34 76 -120q0 -69 -44 -108.5t-120 -48.5l-53 -39q-2 -1 -1.5 -4.5t4.5 -3.5q30 0 54.5 -19
t24.5 -55q0 -33 -27 -57t-73 -24q-42 0 -65.5 24t-23.5 57q0 5 5 5h33q5 0 5 -5q0 -17 13.5 -30t32.5 -13q23 0 36.5 13t13.5 30q0 26 -17 37.5t-38 11.5q-13 0 -16 3l-8 8q-6 7 -1 12l50 40q2 1 1 3t-3 2h-3q-109 0 -167.5 50t-58.5 126q0 5 5 5h84q6 0 6 -5q0 -39 36 -65
t95 -26q125 0 125 76q0 9 -2.5 17t-8.5 14t-11.5 10.5t-16 8l-16.5 5.5t-19 4t-18 3t-18 2.5t-15 1.5q-32 4 -50.5 6.5t-48 9.5t-47 17t-36 25.5t-27 38.5t-8.5 53q0 63 56 106t147 43q97 0 158.5 -45.5t61.5 -130.5q0 -5 -4 -5z" />
    <glyph glyph-name="Scaron" unicode="&#x160;" horiz-adv-x="604" 
d="M442 511q0 51 -42.5 84.5t-108.5 33.5q-60 0 -102 -33t-42 -83q0 -29 13.5 -49t39.5 -30.5t47.5 -15t54.5 -8.5q58 -7 98.5 -17t82.5 -32t64 -63t22 -100q0 -85 -66 -146.5t-201 -61.5q-124 0 -195.5 59t-71.5 144q0 5 5 5h89q6 0 6 -6q0 -43 44.5 -80t122.5 -37
q77 0 122 35.5t45 87.5q0 32 -13 54.5t-39 34.5t-51.5 18t-63.5 10q-39 4 -70 10t-67.5 20.5t-60.5 34.5t-40.5 54t-16.5 79q0 91 73 146t171 55q103 0 177 -53t74 -150q0 -5 -5 -5h-90q-5 0 -5 5zM345 900h63q8 0 5 -7l-54 -123q-2 -5 -7 -5h-96q-5 0 -7 5l-54 123
q-3 7 5 7h64q4 0 5 -3l30 -55q6 -8 10 0l31 55q2 3 5 3z" />
    <glyph glyph-name="scaron" unicode="&#x161;" horiz-adv-x="513" 
d="M458 335h-86q-5 0 -5 5q0 42 -32.5 66.5t-92.5 24.5q-53 0 -80.5 -19t-27.5 -45q0 -12 3.5 -21t12 -15.5t16 -10.5t22 -7.5t22 -4.5t24.5 -3t22 -3q104 -15 139 -29q81 -34 81 -122q0 -82 -60 -121.5t-160 -39.5q-109 0 -167.5 50t-58.5 126q0 5 5 5h84q6 0 6 -5
q0 -39 36 -65t95 -26q125 0 125 76q0 9 -2.5 17t-8.5 14t-11.5 10.5t-16 8l-16.5 5.5t-19 4t-18 3t-18 2.5t-15 1.5q-32 4 -50.5 6.5t-48 9.5t-47 17t-36 25.5t-27 38.5t-8.5 53q0 63 56 106t147 43q97 0 158.5 -45.5t61.5 -130.5q0 -5 -4 -5zM291 704h63q8 0 5 -7l-54 -123
q-2 -5 -7 -5h-96q-5 0 -7 5l-54 123q-3 7 5 7h64q4 0 5 -3l30 -55q6 -8 10 0l31 55q2 3 5 3z" />
    <glyph glyph-name="uni0162" unicode="&#x162;" horiz-adv-x="491" 
d="M198 5v610q-2 4 -5 4h-193q-5 0 -5 5v75q0 5 5 5h491q5 0 5 -5v-75q0 -5 -5 -5h-193q-5 0 -5 -5v-609q0 -5 -5 -5h-85q-5 0 -5 5zM234 -129h-22q-5 0 -5 5v69q0 5 5 5h68q5 0 5 -5v-71q0 -35 -20.5 -58.5t-52.5 -23.5q-5 0 -5 5v29q0 5 5 5q10 0 18.5 10t8.5 25q0 5 -5 5
z" />
    <glyph glyph-name="uni0163" unicode="&#x163;" horiz-adv-x="333" 
d="M303 80v-75q0 -5 -5 -5h-77q-131 0 -131 118v308q0 5 -5 5h-89q-5 0 -5 5v65q0 5 5 5h89q5 0 5 5v135q0 5 5 5h85q5 0 5 -5v-135q0 -5 5 -5h108q5 0 5 -5v-65q0 -5 -5 -5h-108q-5 0 -5 -5v-291q0 -50 54 -50h59q5 0 5 -5zM173 -129h-22q-5 0 -5 5v69q0 5 5 5h68q5 0 5 -5
v-71q0 -35 -20.5 -58.5t-52.5 -23.5q-5 0 -5 5v29q0 5 5 5q10 0 18.5 10t8.5 25q0 5 -5 5z" />
    <glyph glyph-name="Tcaron" unicode="&#x164;" horiz-adv-x="491" 
d="M198 5v610q-2 4 -5 4h-193q-5 0 -5 5v75q0 5 5 5h491q5 0 5 -5v-75q0 -5 -5 -5h-193q-5 0 -5 -5v-609q0 -5 -5 -5h-85q-5 0 -5 5zM285 900h63q8 0 5 -7l-54 -123q-2 -5 -7 -5h-96q-5 0 -7 5l-54 123q-3 7 5 7h64q4 0 5 -3l30 -55q6 -8 10 0l31 55q2 3 5 3z" />
    <glyph glyph-name="tcaron" unicode="&#x165;" horiz-adv-x="333" 
d="M303 80v-75q0 -5 -5 -5h-77q-131 0 -131 118v308q0 5 -5 5h-89q-5 0 -5 5v65q0 5 5 5h89q5 0 5 5v135q0 5 5 5h85q5 0 5 -5v-135q0 -5 5 -5h108q5 0 5 -5v-65q0 -5 -5 -5h-108q-5 0 -5 -5v-291q0 -50 54 -50h59q5 0 5 -5zM252 625h-22q-5 0 -5 5v69q0 5 5 5h68q5 0 5 -5
v-71q0 -35 -20.5 -58.5t-52.5 -23.5q-5 0 -5 5v29q0 5 5 5q10 0 18.5 10t8.5 25q0 5 -5 5z" />
    <glyph glyph-name="Tbar" unicode="&#x166;" horiz-adv-x="491" 
d="M198 387v228q-2 4 -5 4h-193q-5 0 -5 5v75q0 5 5 5h491q5 0 5 -5v-75q0 -5 -5 -5h-193q-5 0 -5 -5v-227q0 -5 5 -5h156q5 0 5 -5v-55q0 -5 -5 -5h-156q-5 0 -5 -5v-307q0 -5 -5 -5h-85q-5 0 -5 5v307q0 5 -5 5h-156q-5 0 -5 5v55q0 5 5 5h156q5 0 5 5z" />
    <glyph glyph-name="tbar" unicode="&#x167;" horiz-adv-x="333" 
d="M185 312v-177q0 -50 54 -50h59q5 0 5 -5v-75q0 -5 -5 -5h-77q-131 -3 -131 118v194q0 5 -5 5h-89q-5 0 -5 5v65q0 5 5 5h89q5 0 5 5v29q0 5 -5 5h-89q-5 0 -5 5v65q0 5 5 5h89q5 0 5 5v135q0 5 5 5h85q5 0 5 -5v-135q0 -5 5 -5h108q5 0 5 -5v-65q0 -5 -5 -5h-108
q-5 0 -5 -5v-29q0 -5 5 -5h108q5 0 5 -5v-65q0 -5 -5 -5h-108q-5 0 -5 -5z" />
    <glyph glyph-name="Utilde" unicode="&#x168;" horiz-adv-x="630" 
d="M160 699v-460q0 -65 46 -114.5t110 -49.5q63 0 108.5 49.5t45.5 114.5v460q0 5 5 5h85q5 0 5 -5v-460q0 -104 -72.5 -176.5t-176.5 -72.5t-177.5 72.5t-73.5 176.5v460q0 5 5 5h85q5 0 5 -5zM159 791v23q0 33 24.5 59.5t77.5 26.5q25 0 47.5 -11.5t37.5 -23t22 -11.5
q8 0 13 1t12 10.5t7 29.5q0 5 5 5h60q5 0 5 -5v-24q0 -32 -24.5 -58.5t-77.5 -26.5q-30 0 -64.5 23t-42.5 23t-13 -1t-12 -10.5t-7 -29.5q0 -5 -5 -5h-60q-5 0 -5 5z" />
    <glyph glyph-name="utilde" unicode="&#x169;" horiz-adv-x="595" 
d="M516 0h-75q-3 0 -5 5l-10 45q-2 4 -5.5 4t-5.5 -3q-16 -23 -51.5 -42t-79.5 -19q-116 0 -167 64.5t-51 171.5v275q0 5 5 5h85q5 0 5 -5v-275q0 -64 32 -107.5t101 -43.5q60 0 96 44.5t36 106.5v275q0 5 5 5h85q5 0 5 -5v-496q0 -5 -5 -5zM145 595v23q0 33 24.5 59.5
t77.5 26.5q25 0 47.5 -11.5t37.5 -23t22 -11.5q8 0 13 1t12 10.5t7 29.5q0 5 5 5h60q5 0 5 -5v-24q0 -32 -24.5 -58.5t-77.5 -26.5q-30 0 -64.5 23t-42.5 23t-13 -1t-12 -10.5t-7 -29.5q0 -5 -5 -5h-60q-5 0 -5 5z" />
    <glyph glyph-name="Umacron" unicode="&#x16a;" horiz-adv-x="630" 
d="M160 699v-460q0 -65 46 -114.5t110 -49.5q63 0 108.5 49.5t45.5 114.5v460q0 5 5 5h85q5 0 5 -5v-460q0 -104 -72.5 -176.5t-176.5 -72.5t-177.5 72.5t-73.5 176.5v460q0 5 5 5h85q5 0 5 -5zM471 786h-313q-5 0 -5 5v60q0 5 5 5h313q5 0 5 -5v-60q0 -5 -5 -5z" />
    <glyph glyph-name="umacron" unicode="&#x16b;" horiz-adv-x="595" 
d="M516 0h-75q-3 0 -5 5l-10 45q-2 4 -5.5 4t-5.5 -3q-16 -23 -51.5 -42t-79.5 -19q-116 0 -167 64.5t-51 171.5v275q0 5 5 5h85q5 0 5 -5v-275q0 -64 32 -107.5t101 -43.5q60 0 96 44.5t36 106.5v275q0 5 5 5h85q5 0 5 -5v-496q0 -5 -5 -5zM450 590h-313q-5 0 -5 5v60
q0 5 5 5h313q5 0 5 -5v-60q0 -5 -5 -5z" />
    <glyph glyph-name="Ubreve" unicode="&#x16c;" horiz-adv-x="630" 
d="M160 699v-460q0 -65 46 -114.5t110 -49.5q63 0 108.5 49.5t45.5 114.5v460q0 5 5 5h85q5 0 5 -5v-460q0 -104 -72.5 -176.5t-176.5 -72.5t-177.5 72.5t-73.5 176.5v460q0 5 5 5h85q5 0 5 -5zM196 900h60q5 0 5 -5q0 -24 15 -43.5t46 -19.5t46 19.5t15 43.5q0 5 5 5h60
q5 0 5 -5q0 -61 -35.5 -95.5t-95.5 -34.5t-95.5 34.5t-35.5 95.5q0 5 5 5z" />
    <glyph glyph-name="ubreve" unicode="&#x16d;" horiz-adv-x="595" 
d="M516 0h-75q-3 0 -5 5l-10 45q-2 4 -5.5 4t-5.5 -3q-16 -23 -51.5 -42t-79.5 -19q-116 0 -167 64.5t-51 171.5v275q0 5 5 5h85q5 0 5 -5v-275q0 -64 32 -107.5t101 -43.5q60 0 96 44.5t36 106.5v275q0 5 5 5h85q5 0 5 -5v-496q0 -5 -5 -5zM175 704h60q5 0 5 -5
q0 -24 15 -43.5t46 -19.5t46 19.5t15 43.5q0 5 5 5h60q5 0 5 -5q0 -61 -35.5 -95.5t-95.5 -34.5t-95.5 34.5t-35.5 95.5q0 5 5 5z" />
    <glyph glyph-name="Uring" unicode="&#x16e;" horiz-adv-x="630" 
d="M160 699v-460q0 -65 46 -114.5t110 -49.5q63 0 108.5 49.5t45.5 114.5v460q0 5 5 5h85q5 0 5 -5v-460q0 -104 -72.5 -176.5t-176.5 -72.5t-177.5 72.5t-73.5 176.5v460q0 5 5 5h85q5 0 5 -5zM402 835q0 -36 -26 -62t-62 -26t-62 26t-26 62t26 62t62 26t62 -26t26 -62z
M355 835q0 17 -12 29t-29 12t-29 -12t-12 -29t12 -29t29 -12t29 12t12 29z" />
    <glyph glyph-name="uring" unicode="&#x16f;" horiz-adv-x="595" 
d="M516 0h-75q-3 0 -5 5l-10 45q-2 4 -5.5 4t-5.5 -3q-16 -23 -51.5 -42t-79.5 -19q-116 0 -167 64.5t-51 171.5v275q0 5 5 5h85q5 0 5 -5v-275q0 -64 32 -107.5t101 -43.5q60 0 96 44.5t36 106.5v275q0 5 5 5h85q5 0 5 -5v-496q0 -5 -5 -5zM381 637q0 -36 -26 -62t-62 -26
t-62 26t-26 62t26 62t62 26t62 -26t26 -62zM334 637q0 17 -12 29t-29 12t-29 -12t-12 -29t12 -29t29 -12t29 12t12 29z" />
    <glyph glyph-name="Uhungarumlaut" unicode="&#x170;" horiz-adv-x="630" 
d="M160 699v-460q0 -65 46 -114.5t110 -49.5q63 0 108.5 49.5t45.5 114.5v460q0 5 5 5h85q5 0 5 -5v-460q0 -104 -72.5 -176.5t-176.5 -72.5t-177.5 72.5t-73.5 176.5v460q0 5 5 5h85q5 0 5 -5zM242 765h-65q-9 0 -5 7l51 121q2 7 10 7h92q3 0 5 -2t0 -5l-77 -121
q-5 -7 -11 -7zM432 765h-65q-9 0 -5 7l51 121q2 7 10 7h92q3 0 5 -2t0 -5l-77 -121q-5 -7 -11 -7z" />
    <glyph glyph-name="uhungarumlaut" unicode="&#x171;" horiz-adv-x="595" 
d="M516 0h-75q-3 0 -5 5l-10 45q-2 4 -5.5 4t-5.5 -3q-16 -23 -51.5 -42t-79.5 -19q-116 0 -167 64.5t-51 171.5v275q0 5 5 5h85q5 0 5 -5v-275q0 -64 32 -107.5t101 -43.5q60 0 96 44.5t36 106.5v275q0 5 5 5h85q5 0 5 -5v-496q0 -5 -5 -5zM228 569h-65q-9 0 -5 7l51 121
q2 7 10 7h92q3 0 5 -2t0 -5l-77 -121q-5 -7 -11 -7zM418 569h-65q-9 0 -5 7l51 121q2 7 10 7h92q3 0 5 -2t0 -5l-77 -121q-5 -7 -11 -7z" />
    <glyph glyph-name="Uogonek" unicode="&#x172;" horiz-adv-x="630" 
d="M160 699v-460q0 -65 46 -114.5t110 -49.5q63 0 108.5 49.5t45.5 114.5v460q0 5 5 5h85q5 0 5 -5v-460q0 -126 -103 -203q-5 -4 -20.5 -14.5t-22.5 -16.5t-17 -17t-14 -23t-4 -27q0 -30 19.5 -45.5t52.5 -15.5h14q5 0 5 -5v-65q0 -5 -5 -5h-24q-60 0 -96.5 26.5
t-37.5 72.5q-1 44 28 80q3 4 1.5 7.5t-6.5 2.5q-8 -1 -19 -1q-104 0 -177.5 72.5t-73.5 176.5v460q0 5 5 5h85q5 0 5 -5z" />
    <glyph glyph-name="uogonek" unicode="&#x173;" horiz-adv-x="595" 
d="M516 0h-17q-29 -1 -49 -19.5t-20 -42.5q0 -30 19.5 -45.5t52.5 -15.5h14q5 0 5 -5v-65q0 -5 -5 -5h-24q-60 0 -96.5 26.5t-37.5 72.5q0 74 73 99q5 2 4 8l-9 42q-1 4 -5 4t-6 -3q-16 -23 -51.5 -42t-79.5 -19q-116 0 -167 64.5t-51 171.5v275q0 5 5 5h85q5 0 5 -5v-275
q0 -64 32 -107.5t101 -43.5q60 0 96 44.5t36 106.5v275q0 5 5 5h85q5 0 5 -5v-496q0 -5 -5 -5z" />
    <glyph glyph-name="Wcircumflex" unicode="&#x174;" horiz-adv-x="880" 
d="M529 699l124 -599q1 -4 5 -4t5 4l110 599q2 5 5 5h91q7 0 6 -5l-138 -694q-2 -5 -6 -5h-152q-3 0 -5 5l-129 598q-1 4 -5 4t-5 -4l-129 -598q-2 -5 -5 -5h-152q-4 0 -6 5l-138 694q-1 5 6 5h91q3 0 5 -5l110 -599q1 -4 5 -4t5 4l124 599q2 5 5 5h168q3 0 5 -5zM544 765
h-63q-3 0 -5 3l-31 54q-5 9 -10 0l-30 -54q-1 -3 -5 -3h-64q-8 0 -5 7l54 122q2 6 7 6h96q5 0 7 -6l54 -122q3 -7 -5 -7z" />
    <glyph glyph-name="wcircumflex" unicode="&#x175;" horiz-adv-x="735" 
d="M600 0h-127q-3 0 -5 5l-97 399q-1 4 -5 4t-5 -4l-96 -399q-2 -5 -5 -5h-127q-4 0 -6 5l-119 496q-1 5 6 5h85q3 0 5 -5l87 -402q1 -4 5 -4t5 4l99 402q2 5 5 5h123q3 0 5 -5l99 -402q1 -4 5 -4t5 4l87 402q2 5 5 5h85q7 0 6 -5l-119 -496q-2 -5 -6 -5zM470 569h-63
q-3 0 -5 3l-31 54q-5 9 -10 0l-30 -54q-1 -3 -5 -3h-64q-8 0 -5 7l54 122q2 6 7 6h96q5 0 7 -6l54 -122q3 -7 -5 -7z" />
    <glyph glyph-name="Ycircumflex" unicode="&#x176;" horiz-adv-x="559" 
d="M568 699l-238 -386q-3 -5 -3 -10v-298q0 -5 -5 -5h-85q-5 0 -5 5v298q0 2 -5 10l-236 386q-3 5 3 5h101q5 0 8 -5l171 -285q5 -7 10 0l172 285q4 5 10 5h99q6 0 3 -5zM383 765h-63q-4 0 -5 3l-31 54q-5 9 -10 0l-30 -54q-2 -3 -5 -3h-64q-9 0 -5 7l54 122q2 6 7 6h96
q5 0 7 -6l54 -122q4 -7 -5 -7z" />
    <glyph glyph-name="ycircumflex" unicode="&#x177;" horiz-adv-x="474" 
d="M-4 -193v75q0 5 5 5h113q43 0 58 25t1 66l-178 523q-1 5 6 5h91q3 0 5 -5l131 -402q2 -5 5 -5t5 5l132 402q2 5 5 5h91q7 0 5 -5l-200 -588q-22 -62 -51.5 -86.5t-88.5 -24.5h-130q-5 0 -5 5zM332 569h-63q-3 0 -5 3l-31 54q-5 9 -10 0l-30 -54q-1 -3 -5 -3h-64
q-8 0 -5 7l54 122q2 6 7 6h96q5 0 7 -6l54 -122q3 -7 -5 -7z" />
    <glyph glyph-name="Ydieresis" unicode="&#x178;" horiz-adv-x="559" 
d="M568 699l-238 -386q-3 -5 -3 -10v-298q0 -5 -5 -5h-85q-5 0 -5 5v298q0 2 -5 10l-236 386q-3 5 3 5h101q5 0 8 -5l171 -285q5 -7 10 0l172 285q4 5 10 5h99q6 0 3 -5zM227 789h-100q-5 0 -5 5v101q0 5 5 5h100q5 0 5 -5v-101q0 -5 -5 -5zM446 789h-100q-5 0 -5 5v101
q0 5 5 5h100q5 0 5 -5v-101q0 -5 -5 -5z" />
    <glyph glyph-name="Zacute" unicode="&#x179;" horiz-adv-x="556" 
d="M28 5v70q0 9 3 13l381 525q4 6 -2 6h-377q-5 0 -5 5v75q0 5 5 5h490q5 0 5 -5v-70q0 -10 -2 -13l-383 -526q-3 -5 2 -5h378q5 0 5 -5v-75q0 -5 -5 -5h-490q-5 0 -5 5zM304 765h-65q-9 0 -5 7l51 121q2 7 10 7h92q3 0 5 -2t0 -5l-77 -121q-5 -7 -11 -7z" />
    <glyph glyph-name="zacute" unicode="&#x17a;" horiz-adv-x="474" 
d="M35 5v75q0 4 4 10l268 323q2 1 0.5 4.5t-4.5 3.5h-252q-5 0 -5 5v75q0 5 5 5h369q5 0 5 -5v-75q0 -5 -4 -10l-266 -323q-2 -2 -0.5 -5t4.5 -3h274q5 0 5 -5v-75q0 -5 -5 -5h-393q-5 0 -5 5zM287 569h-65q-8 0 -5 7l51 121q2 7 10 7h92q3 0 5 -2t0 -5l-77 -121
q-5 -7 -11 -7z" />
    <glyph glyph-name="Zdotaccent" unicode="&#x17b;" horiz-adv-x="556" 
d="M28 5v70q0 9 3 13l381 525q4 6 -2 6h-377q-5 0 -5 5v75q0 5 5 5h490q5 0 5 -5v-70q0 -10 -2 -13l-383 -526q-3 -5 2 -5h378q5 0 5 -5v-75q0 -5 -5 -5h-490q-5 0 -5 5zM340 789h-100q-5 0 -5 5v101q0 5 5 5h100q5 0 5 -5v-101q0 -5 -5 -5z" />
    <glyph glyph-name="zdotaccent" unicode="&#x17c;" horiz-adv-x="474" 
d="M35 5v75q0 4 4 10l268 323q2 1 0.5 4.5t-4.5 3.5h-252q-5 0 -5 5v75q0 5 5 5h369q5 0 5 -5v-75q0 -5 -4 -10l-266 -323q-2 -2 -0.5 -5t4.5 -3h274q5 0 5 -5v-75q0 -5 -5 -5h-393q-5 0 -5 5zM292 593h-100q-5 0 -5 5v101q0 5 5 5h100q5 0 5 -5v-101q0 -5 -5 -5z" />
    <glyph glyph-name="Zcaron" unicode="&#x17d;" horiz-adv-x="556" 
d="M28 5v70q0 9 3 13l381 525q4 6 -2 6h-377q-5 0 -5 5v75q0 5 5 5h490q5 0 5 -5v-70q0 -10 -2 -13l-383 -526q-3 -5 2 -5h378q5 0 5 -5v-75q0 -5 -5 -5h-490q-5 0 -5 5zM315 900h63q8 0 5 -7l-54 -123q-2 -5 -7 -5h-96q-5 0 -7 5l-54 123q-3 7 5 7h64q4 0 5 -3l30 -55
q6 -8 10 0l31 55q2 3 5 3z" />
    <glyph glyph-name="zcaron" unicode="&#x17e;" horiz-adv-x="474" 
d="M35 5v75q0 4 4 10l268 323q2 1 0.5 4.5t-4.5 3.5h-252q-5 0 -5 5v75q0 5 5 5h369q5 0 5 -5v-75q0 -5 -4 -10l-266 -323q-2 -2 -0.5 -5t4.5 -3h274q5 0 5 -5v-75q0 -5 -5 -5h-393q-5 0 -5 5zM278 704h63q9 0 5 -7l-54 -123q-2 -5 -7 -5h-96q-5 0 -7 5l-54 123q-4 7 5 7h64
q3 0 5 -3l30 -55q6 -8 10 0l31 55q1 3 5 3z" />
    <glyph glyph-name="longs" unicode="&#x17f;" horiz-adv-x="284" 
d="M315 699v-75q0 -5 -5 -5h-66q-22 0 -34.5 -13.5t-12.5 -36.5v-564q0 -5 -5 -5h-85q-5 0 -5 5v421q0 5 -5 5h-89q-5 0 -5 5v65q0 5 5 5h89q5 0 5 5v75q0 121 141 118h67q5 0 5 -5z" />
    <glyph glyph-name="florin" unicode="&#x192;" horiz-adv-x="403" 
d="M-90 -193l14 75q2 5 6 5h59q53 0 63 50l95 490q0 4 -4 4h-89q-6 0 -4 5l13 65q0 5 6 5h89q4 0 6 5l14 75q24 121 164 118h67q6 0 4 -5l-14 -75q-2 -5 -6 -5h-66q-47 0 -57 -50l-11 -58q-2 -5 4 -5h108q4 0 4 -5l-13 -65q-2 -5 -6 -5h-108q-4 0 -6 -5l-98 -506
q-24 -121 -153 -118h-77q-6 0 -4 5z" />
    <glyph glyph-name="uni0218" unicode="&#x218;" horiz-adv-x="604" 
d="M442 511q0 51 -42.5 84.5t-108.5 33.5q-60 0 -102 -33t-42 -83q0 -29 13.5 -49t39.5 -30.5t47.5 -15t54.5 -8.5q58 -7 98.5 -17t82.5 -32t64 -63t22 -100q0 -85 -66 -146.5t-201 -61.5q-124 0 -195.5 59t-71.5 144q0 5 5 5h89q6 0 6 -6q0 -43 44.5 -80t122.5 -37
q77 0 122 35.5t45 87.5q0 32 -13 54.5t-39 34.5t-51.5 18t-63.5 10q-39 4 -70 10t-67.5 20.5t-60.5 34.5t-40.5 54t-16.5 79q0 91 73 146t171 55q103 0 177 -53t74 -150q0 -5 -5 -5h-90q-5 0 -5 5zM294 -129h-22q-5 0 -5 5v69q0 5 5 5h68q5 0 5 -5v-71q0 -35 -20.5 -58.5
t-52.5 -23.5q-5 0 -5 5v29q0 5 5 5q10 0 18.5 10t8.5 25q0 5 -5 5z" />
    <glyph glyph-name="uni0219" unicode="&#x219;" horiz-adv-x="513" 
d="M458 335h-86q-5 0 -5 5q0 42 -32.5 66.5t-92.5 24.5q-53 0 -80.5 -19t-27.5 -45q0 -12 3.5 -21t12 -15.5t16 -10.5t22 -7.5t22 -4.5t24.5 -3t22 -3q104 -15 139 -29q81 -34 81 -122q0 -82 -60 -121.5t-160 -39.5q-109 0 -167.5 50t-58.5 126q0 5 5 5h84q6 0 6 -5
q0 -39 36 -65t95 -26q125 0 125 76q0 9 -2.5 17t-8.5 14t-11.5 10.5t-16 8l-16.5 5.5t-19 4t-18 3t-18 2.5t-15 1.5q-32 4 -50.5 6.5t-48 9.5t-47 17t-36 25.5t-27 38.5t-8.5 53q0 63 56 106t147 43q97 0 158.5 -45.5t61.5 -130.5q0 -5 -4 -5zM246 -129h-22q-5 0 -5 5v69
q0 5 5 5h68q5 0 5 -5v-71q0 -35 -20.5 -58.5t-52.5 -23.5q-5 0 -5 5v29q0 5 5 5q10 0 18.5 10t8.5 25q0 5 -5 5z" />
    <glyph glyph-name="uni021A" unicode="&#x21a;" horiz-adv-x="491" 
d="M198 5v610q-2 4 -5 4h-193q-5 0 -5 5v75q0 5 5 5h491q5 0 5 -5v-75q0 -5 -5 -5h-193q-5 0 -5 -5v-609q0 -5 -5 -5h-85q-5 0 -5 5zM234 -129h-22q-5 0 -5 5v69q0 5 5 5h68q5 0 5 -5v-71q0 -35 -20.5 -58.5t-52.5 -23.5q-5 0 -5 5v29q0 5 5 5q10 0 18.5 10t8.5 25q0 5 -5 5
z" />
    <glyph glyph-name="uni021B" unicode="&#x21b;" horiz-adv-x="333" 
d="M303 80v-75q0 -5 -5 -5h-77q-131 0 -131 118v308q0 5 -5 5h-89q-5 0 -5 5v65q0 5 5 5h89q5 0 5 5v135q0 5 5 5h85q5 0 5 -5v-135q0 -5 5 -5h108q5 0 5 -5v-65q0 -5 -5 -5h-108q-5 0 -5 -5v-291q0 -50 54 -50h59q5 0 5 -5zM173 -129h-22q-5 0 -5 5v69q0 5 5 5h68q5 0 5 -5
v-71q0 -35 -20.5 -58.5t-52.5 -23.5q-5 0 -5 5v29q0 5 5 5q10 0 18.5 10t8.5 25q0 5 -5 5z" />
    <glyph glyph-name="uni0237" unicode="&#x237;" horiz-adv-x="243" 
d="M-44 -193v75q0 5 5 5h59q54 0 54 50v564q0 5 5 5h85q5 0 5 -5v-581q0 -121 -131 -118h-77q-5 0 -5 5z" />
    <glyph glyph-name="circumflex" unicode="&#x2c6;" horiz-adv-x="308" 
d="M253 569h-63q-4 0 -5 3l-31 54q-5 9 -10 0l-30 -54q-2 -3 -5 -3h-64q-9 0 -5 7l54 122q2 6 7 6h96q5 0 7 -6l54 -122q4 -7 -5 -7z" />
    <glyph glyph-name="caron" unicode="&#x2c7;" horiz-adv-x="308" 
d="M190 704h63q9 0 5 -7l-54 -123q-2 -5 -7 -5h-96q-5 0 -7 5l-54 123q-4 7 5 7h64q3 0 5 -3l30 -55q6 -8 10 0l31 55q1 3 5 3z" />
    <glyph glyph-name="uni02C9" unicode="&#x2c9;" horiz-adv-x="366" 
d="M339 590h-313q-5 0 -5 5v60q0 5 5 5h313q5 0 5 -5v-60q0 -5 -5 -5z" />
    <glyph glyph-name="breve" unicode="&#x2d8;" horiz-adv-x="335" 
d="M39 704h60q5 0 5 -5q0 -24 15 -43.5t46 -19.5t46 19.5t15 43.5q0 5 5 5h60q5 0 5 -5q0 -61 -35.5 -95.5t-95.5 -34.5t-95.5 34.5t-35.5 95.5q0 5 5 5z" />
    <glyph glyph-name="dotaccent" unicode="&#x2d9;" horiz-adv-x="242" 
d="M171 593h-100q-5 0 -5 5v101q0 5 5 5h100q5 0 5 -5v-101q0 -5 -5 -5z" />
    <glyph glyph-name="ring" unicode="&#x2da;" horiz-adv-x="246" 
d="M211 637q0 -36 -26 -62t-62 -26t-62 26t-26 62t26 62t62 26t62 -26t26 -62zM164 637q0 17 -12 29t-29 12t-29 -12t-12 -29t12 -29t29 -12t29 12t12 29z" />
    <glyph glyph-name="ogonek" unicode="&#x2db;" horiz-adv-x="255" 
d="M163 10h6q5 0 5 -5t-5 -5h-6q-31 0 -53 -18.5t-22 -43.5q0 -30 19.5 -45.5t52.5 -15.5h14q5 0 5 -5v-65q0 -5 -5 -5h-24q-60 0 -96.5 26.5t-37.5 72.5q-1 51 40 81t107 28z" />
    <glyph glyph-name="tilde" unicode="&#x2dc;" horiz-adv-x="437" 
d="M43 595v23q0 33 24.5 59.5t77.5 26.5q25 0 47.5 -11.5t37.5 -23t22 -11.5q8 0 13 1t12 10.5t7 29.5q0 5 5 5h60q5 0 5 -5v-24q0 -32 -24.5 -58.5t-77.5 -26.5q-30 0 -64.5 23t-42.5 23t-13 -1t-12 -10.5t-7 -29.5q0 -5 -5 -5h-60q-5 0 -5 5z" />
    <glyph glyph-name="hungarumlaut" unicode="&#x2dd;" horiz-adv-x="429" 
d="M112 569h-65q-9 0 -5 7l51 121q2 7 10 7h92q3 0 5 -2t0 -5l-77 -121q-5 -7 -11 -7zM302 569h-65q-9 0 -5 7l51 121q2 7 10 7h92q3 0 5 -2t0 -5l-77 -121q-5 -7 -11 -7z" />
    <glyph glyph-name="Gamma" unicode="&#x393;" horiz-adv-x="542" 
d="M75 5v694q0 5 5 5h445q5 0 5 -5v-75q0 -5 -5 -5h-350q-5 0 -5 -5v-609q0 -5 -5 -5h-85q-5 0 -5 5z" />
    <glyph glyph-name="uni0394" unicode="&#x394;" 
d="M613 0h-547q-5 0 -5 5v71q0 2 3 11l208 612q2 5 6 5h127q3 0 5 -5l205 -611q3 -9 3 -12v-71q0 -5 -5 -5zM336 605l-168 -514q-2 -6 5 -6h333q7 0 5 7l-165 513q-2 4 -5 4t-5 -4z" />
    <glyph glyph-name="Lambda" unicode="&#x39b;" horiz-adv-x="619" 
d="M248 704h127q3 0 5 -5l233 -694q2 -5 -5 -5h-94q-3 0 -5 5l-193 600q-2 4 -5 4t-5 -4l-196 -600q-2 -5 -5 -5h-93q-7 0 -6 5l236 694q2 5 6 5z" />
    <glyph glyph-name="uni03A9" unicode="&#x3a9;" horiz-adv-x="703" 
d="M268 0h-224q-5 0 -5 5v75q0 5 5 5h85q4 0 4.5 3.5t-1.5 5.5q-96 99 -96 258q0 164 81.5 263t234.5 99t234 -99t81 -263q0 -78 -25.5 -147t-70.5 -111q-3 -2 -2 -5.5t5 -3.5h85q5 0 5 -5v-75q0 -5 -5 -5h-224q-5 0 -5 5v73q0 5 5 7q64 24 98.5 94t34.5 173q0 131 -56 204
t-160 73t-160 -73t-56 -204q0 -103 34 -173t98 -94q5 -2 5 -7v-73q0 -5 -5 -5z" />
    <glyph glyph-name="gamma" unicode="&#x3b3;" horiz-adv-x="545" 
d="M163 460l118 -361q1 -5 5 -5t5 5l131 402q2 5 5 5h91q7 0 6 -5l-188 -543q-4 -13 -4 -27v-124q0 -5 -5 -5h-85q-5 0 -5 5v124q0 14 -4 27l-150 442q-8 21 -31 21h-27q-5 0 -5 5v75q0 5 5 5h57q66 0 81 -46z" />
    <glyph glyph-name="lambda" unicode="&#x3bb;" horiz-adv-x="495" 
d="M367 46l-118 361q-1 4 -5 4t-5 -4l-131 -402q-2 -5 -5 -5h-91q-7 0 -6 5l178 523q14 41 -1 66t-58 25h-93q-5 0 -5 5v75q0 5 5 5h110q59 0 88.5 -24.5t51.5 -86.5l165 -487q8 -21 31 -21h7q5 0 5 -5v-75q0 -5 -5 -5h-37q-66 0 -81 46z" />
    <glyph glyph-name="uni03BC" unicode="&#x3bc;" horiz-adv-x="595" 
d="M156 -198h-86q-4 0 -4 5v694q0 5 5 5h85q5 0 5 -5v-275q0 -64 32 -107.5t101 -43.5q60 0 96 44.5t36 106.5v275q0 5 5 5h85q5 0 5 -5v-387q0 -11 9.5 -20t23.5 -9h29q5 0 5 -5v-75q0 -5 -5 -5h-29q-78 0 -106 47q-5 8 -11 0q-17 -23 -57 -40t-86 -17q-86 0 -124 38
q-2 2 -4 2t-3.5 -1.5t-1.5 -4.5v-217q0 -5 -5 -5z" />
    <glyph glyph-name="pi" unicode="&#x3c0;" horiz-adv-x="665" 
d="M207 426v-421q0 -5 -5 -5h-85q-5 0 -5 5v421q0 5 -5 5h-58q-5 0 -5 5v65q0 5 5 5h567q5 0 5 -5v-65q0 -5 -5 -5h-58q-5 0 -5 -5v-291q0 -50 54 -50h9q5 0 5 -5v-75q0 -5 -5 -5h-27q-131 0 -131 118v308q0 5 -5 5h-241q-5 0 -5 -5z" />
    <glyph glyph-name="Wgrave" unicode="&#x1e80;" horiz-adv-x="880" 
d="M529 699l124 -599q1 -4 5 -4t5 4l110 599q2 5 5 5h91q7 0 6 -5l-138 -694q-2 -5 -6 -5h-152q-3 0 -5 5l-129 598q-1 4 -5 4t-5 -4l-129 -598q-2 -5 -5 -5h-152q-4 0 -6 5l-138 694q-1 5 6 5h91q3 0 5 -5l110 -599q1 -4 5 -4t5 4l124 599q2 5 5 5h168q3 0 5 -5zM476 765
h-65q-6 0 -11 7l-78 121q-4 7 5 7h92q8 0 10 -7l52 -121q3 -7 -5 -7z" />
    <glyph glyph-name="wgrave" unicode="&#x1e81;" horiz-adv-x="735" 
d="M600 0h-127q-3 0 -5 5l-97 399q-1 4 -5 4t-5 -4l-96 -399q-2 -5 -5 -5h-127q-4 0 -6 5l-119 496q-1 5 6 5h85q3 0 5 -5l87 -402q1 -4 5 -4t5 4l99 402q2 5 5 5h123q3 0 5 -5l99 -402q1 -4 5 -4t5 4l87 402q2 5 5 5h85q7 0 6 -5l-119 -496q-2 -5 -6 -5zM413 569h-65
q-6 0 -11 7l-78 121q-3 7 5 7h92q8 0 10 -7l52 -121q4 -7 -5 -7z" />
    <glyph glyph-name="Wacute" unicode="&#x1e82;" horiz-adv-x="880" 
d="M529 699l124 -599q1 -4 5 -4t5 4l110 599q2 5 5 5h91q7 0 6 -5l-138 -694q-2 -5 -6 -5h-152q-3 0 -5 5l-129 598q-1 4 -5 4t-5 -4l-129 -598q-2 -5 -5 -5h-152q-4 0 -6 5l-138 694q-1 5 6 5h91q3 0 5 -5l110 -599q1 -4 5 -4t5 4l124 599q2 5 5 5h168q3 0 5 -5zM478 765
h-65q-9 0 -5 7l51 121q2 7 10 7h92q3 0 5 -2t0 -5l-77 -121q-5 -7 -11 -7z" />
    <glyph glyph-name="wacute" unicode="&#x1e83;" horiz-adv-x="735" 
d="M600 0h-127q-3 0 -5 5l-97 399q-1 4 -5 4t-5 -4l-96 -399q-2 -5 -5 -5h-127q-4 0 -6 5l-119 496q-1 5 6 5h85q3 0 5 -5l87 -402q1 -4 5 -4t5 4l99 402q2 5 5 5h123q3 0 5 -5l99 -402q1 -4 5 -4t5 4l87 402q2 5 5 5h85q7 0 6 -5l-119 -496q-2 -5 -6 -5zM415 569h-65
q-8 0 -5 7l51 121q2 7 10 7h92q3 0 5 -2t0 -5l-77 -121q-5 -7 -11 -7z" />
    <glyph glyph-name="Wdieresis" unicode="&#x1e84;" horiz-adv-x="880" 
d="M529 699l124 -599q1 -4 5 -4t5 4l110 599q2 5 5 5h91q7 0 6 -5l-138 -694q-2 -5 -6 -5h-152q-3 0 -5 5l-129 598q-1 4 -5 4t-5 -4l-129 -598q-2 -5 -5 -5h-152q-4 0 -6 5l-138 694q-1 5 6 5h91q3 0 5 -5l110 -599q1 -4 5 -4t5 4l124 599q2 5 5 5h168q3 0 5 -5zM381 789
h-100q-5 0 -5 5v101q0 5 5 5h100q5 0 5 -5v-101q0 -5 -5 -5zM600 789h-100q-5 0 -5 5v101q0 5 5 5h100q5 0 5 -5v-101q0 -5 -5 -5z" />
    <glyph glyph-name="wdieresis" unicode="&#x1e85;" horiz-adv-x="735" 
d="M600 0h-127q-3 0 -5 5l-97 399q-1 4 -5 4t-5 -4l-96 -399q-2 -5 -5 -5h-127q-4 0 -6 5l-119 496q-1 5 6 5h85q3 0 5 -5l87 -402q1 -4 5 -4t5 4l99 402q2 5 5 5h123q3 0 5 -5l99 -402q1 -4 5 -4t5 4l87 402q2 5 5 5h85q7 0 6 -5l-119 -496q-2 -5 -6 -5zM315 593h-100
q-5 0 -5 5v101q0 5 5 5h100q5 0 5 -5v-101q0 -5 -5 -5zM534 593h-100q-5 0 -5 5v101q0 5 5 5h100q5 0 5 -5v-101q0 -5 -5 -5z" />
    <glyph glyph-name="endash" unicode="&#x2013;" horiz-adv-x="545" 
d="M495 211h-445q-5 0 -5 5v75q0 5 5 5h445q5 0 5 -5v-75q0 -5 -5 -5z" />
    <glyph glyph-name="emdash" unicode="&#x2014;" horiz-adv-x="821" 
d="M771 211h-721q-5 0 -5 5v75q0 5 5 5h721q5 0 5 -5v-75q0 -5 -5 -5z" />
    <glyph glyph-name="quoteleft" unicode="&#x2018;" horiz-adv-x="260" 
d="M146 572h44q5 0 5 -5v-122q0 -5 -5 -5h-120q-5 0 -5 5v121q0 58 35 98t90 40q5 0 5 -5v-55q0 -5 -5 -5q-16 0 -32.5 -18.5t-16.5 -43.5q0 -5 5 -5z" />
    <glyph glyph-name="quoteright" unicode="&#x2019;" horiz-adv-x="260" 
d="M114 572h-44q-5 0 -5 5v122q0 5 5 5h120q5 0 5 -5v-121q0 -58 -35 -98t-90 -40q-5 0 -5 5v55q0 5 5 5q16 0 32.5 18.5t16.5 43.5q0 5 -5 5z" />
    <glyph glyph-name="quotesinglbase" unicode="&#x201a;" horiz-adv-x="260" 
d="M114 0h-44q-5 0 -5 5v122q0 5 5 5h120q5 0 5 -5v-121q0 -58 -35 -98t-90 -40q-5 0 -5 5v55q0 5 5 5q16 0 32.5 18.5t16.5 43.5q0 5 -5 5z" />
    <glyph glyph-name="quotedblleft" unicode="&#x201c;" horiz-adv-x="440" 
d="M146 572h44q5 0 5 -5v-122q0 -5 -5 -5h-120q-5 0 -5 5v121q0 58 35 98t90 40q5 0 5 -5v-55q0 -5 -5 -5q-16 0 -32.5 -18.5t-16.5 -43.5q0 -5 5 -5zM326 572h44q5 0 5 -5v-122q0 -5 -5 -5h-120q-5 0 -5 5v121q0 58 35 98t90 40q5 0 5 -5v-55q0 -5 -5 -5q-16 0 -32.5 -18.5
t-16.5 -43.5q0 -5 5 -5z" />
    <glyph glyph-name="quotedblright" unicode="&#x201d;" horiz-adv-x="440" 
d="M114 572h-44q-5 0 -5 5v122q0 5 5 5h120q5 0 5 -5v-121q0 -58 -35 -98t-90 -40q-5 0 -5 5v55q0 5 5 5q16 0 32.5 18.5t16.5 43.5q0 5 -5 5zM294 572h-44q-5 0 -5 5v122q0 5 5 5h120q5 0 5 -5v-121q0 -58 -35 -98t-90 -40q-5 0 -5 5v55q0 5 5 5q16 0 32.5 18.5t16.5 43.5
q0 5 -5 5z" />
    <glyph glyph-name="quotedblbase" unicode="&#x201e;" horiz-adv-x="440" 
d="M114 0h-44q-5 0 -5 5v122q0 5 5 5h120q5 0 5 -5v-121q0 -58 -35 -98t-90 -40q-5 0 -5 5v55q0 5 5 5q16 0 32.5 18.5t16.5 43.5q0 5 -5 5zM294 0h-44q-5 0 -5 5v122q0 5 5 5h120q5 0 5 -5v-121q0 -58 -35 -98t-90 -40q-5 0 -5 5v55q0 5 5 5q16 0 32.5 18.5t16.5 43.5
q0 5 -5 5z" />
    <glyph glyph-name="dagger" unicode="&#x2020;" horiz-adv-x="537" 
d="M20 506h196q5 0 5 5v189q0 5 5 5h85q5 0 5 -5v-189q0 -5 5 -5h196q5 0 5 -5v-85q0 -5 -5 -5h-196q-5 0 -5 -5v-599q0 -5 -5 -5h-85q-5 0 -5 5v599q0 5 -5 5h-196q-5 0 -5 5v85q0 5 5 5z" />
    <glyph glyph-name="daggerdbl" unicode="&#x2021;" horiz-adv-x="537" 
d="M216 1h-196q-5 0 -5 5v85q0 5 5 5h196q5 0 5 5v305q0 5 -5 5h-196q-5 0 -5 5v85q0 5 5 5h196q5 0 5 5v189q0 5 5 5h85q5 0 5 -5v-189q0 -5 5 -5h196q5 0 5 -5v-85q0 -5 -5 -5h-196q-5 0 -5 -5v-305q0 -5 5 -5h196q5 0 5 -5v-85q0 -5 -5 -5h-196q-5 0 -5 -5v-189
q0 -5 -5 -5h-85q-5 0 -5 5v189q0 5 -5 5z" />
    <glyph glyph-name="bullet" unicode="&#x2022;" horiz-adv-x="646" 
d="M60 253q0 109 77 186t186 77t186 -77t77 -186t-77 -186t-186 -77t-186 77t-77 186z" />
    <glyph glyph-name="ellipsis" unicode="&#x2026;" horiz-adv-x="779" 
d="M190 0h-120q-5 0 -5 5v122q0 5 5 5h120q5 0 5 -5v-122q0 -5 -5 -5zM450 0h-120q-5 0 -5 5v122q0 5 5 5h120q5 0 5 -5v-122q0 -5 -5 -5zM710 0h-120q-5 0 -5 5v122q0 5 5 5h120q5 0 5 -5v-122q0 -5 -5 -5z" />
    <glyph glyph-name="perthousand" unicode="&#x2030;" horiz-adv-x="1159" 
d="M760 190q0 -200 -147 -200q-148 0 -148 200q0 199 148 199q147 0 147 -199zM696 190q0 137 -83 137t-83 -137q0 -138 83 -138t83 138zM344 515q0 -200 -147 -200q-148 0 -148 200q0 199 148 199q147 0 147 -199zM280 515q0 137 -83 137t-83 -137q0 -138 83 -138t83 138z
M1110 190q0 -200 -147 -200q-148 0 -148 200q0 199 148 199q147 0 147 -199zM1046 190q0 137 -83 137t-83 -137q0 -138 83 -138t83 138zM161 8l420 688q5 8 10 8h52q8 0 4 -8l-422 -688q-5 -8 -10 -8h-50q-8 0 -4 8z" />
    <glyph glyph-name="guilsinglleft" unicode="&#x2039;" horiz-adv-x="346" 
d="M287 419l-142 -161q-3 -4 0 -9l142 -162q2 -1 0.5 -4t-4.5 -3h-74q-3 0 -6 3l-142 166q-3 5 0 9l142 165q3 3 6 3h74q3 0 4.5 -3t-0.5 -4z" />
    <glyph glyph-name="guilsinglright" unicode="&#x203a;" horiz-adv-x="346" 
d="M201 258l-142 161q-2 1 -0.5 4t4.5 3h74q3 0 6 -3l142 -165q3 -4 0 -9l-142 -166q-3 -3 -6 -3h-74q-3 0 -4.5 3t0.5 4l142 162q3 5 0 9z" />
    <glyph glyph-name="glyph374" unicode="&#x2044;" horiz-adv-x="228" 
d="M-129 8l420 688q5 8 10 8h52q8 0 4 -8l-422 -688q-5 -8 -10 -8h-50q-8 0 -4 8z" />
    <glyph glyph-name="zero.superior" unicode="&#x2070;" horiz-adv-x="329" 
d="M309 706q0 -196 -145 -196q-144 0 -144 196t144 196q145 0 145 -196zM255 706q0 150 -91 150q-48 0 -69 -37.5t-21 -112.5q0 -150 90 -150q91 0 91 150z" />
    <glyph glyph-name="four.superior" unicode="&#x2074;" horiz-adv-x="340" 
d="M207 896h45q3 0 3 -3v-241q0 -3 2 -3h60q3 0 3 -3v-40q0 -3 -3 -3h-60q-2 0 -2 -3v-81q0 -3 -3 -3h-46q-3 0 -3 3v81q0 3 -2 3h-178q-3 0 -3 3v37q0 5 2 9l179 241q2 3 6 3zM198 811l-116 -158q-2 -4 3 -4h116q2 0 2 3v158q0 2 -1.5 2.5t-3.5 -1.5z" />
    <glyph glyph-name="five.superior" unicode="&#x2075;" horiz-adv-x="302" 
d="M24 697l24 195q0 4 3 4h203q3 0 3 -3v-40q0 -3 -3 -3h-159q-3 0 -3 -2l-11 -90q-1 -2 0.5 -2.5t3.5 1.5q27 23 66 23q59 0 95 -37t36 -96q0 -64 -34.5 -100t-96.5 -36q-66 0 -98.5 36t-32.5 72q0 2 3 2h49q3 0 3 -2q0 -20 19 -41.5t57 -21.5q36 0 58 24.5t22 66.5
q0 38 -22.5 62.5t-57.5 24.5q-53 0 -76 -37q-1 -3 -6 -3h-42q-3 0 -3 3z" />
    <glyph glyph-name="six.superior" unicode="&#x2076;" horiz-adv-x="309" 
d="M188 893l-63 -117q-1 -2 1 -3.5t3 -0.5q6 6 32 6q55 0 91.5 -37t36.5 -96q0 -60 -36.5 -97.5t-98.5 -37.5t-98 37.5t-36 97.5q0 41 21 78l93 170q1 3 3 3h48q4 0 3 -3zM235 645q0 42 -20.5 65.5t-60.5 23.5t-60 -23.5t-20 -65.5q0 -41 20.5 -65t59.5 -24q40 0 60.5 24
t20.5 65z" />
    <glyph glyph-name="seven.superior" unicode="&#x2077;" horiz-adv-x="286" 
d="M266 893v-36q0 -5 -2 -9l-123 -329q-1 -3 -3 -3h-50q-4 0 -2 3l127 329q2 2 -2 2h-188q-3 0 -3 3v40q0 3 3 3h240q3 0 3 -3z" />
    <glyph glyph-name="eight.superior" unicode="&#x2078;" horiz-adv-x="298" 
d="M149 511q-60 0 -94.5 29.5t-34.5 78.5q0 38 20.5 61t41.5 30q2 1 2 3t-2 3q-16 5 -35 26.5t-19 54.5q0 46 33.5 75.5t87.5 29.5q53 0 86.5 -29.5t33.5 -75.5q0 -32 -19 -54t-34 -27q-3 -1 -3 -3t3 -3q21 -7 41.5 -30t20.5 -61q0 -49 -35 -78.5t-94 -29.5zM149 556
q33 0 55 18t22 45q0 31 -22 50.5t-55 19.5t-55.5 -19.5t-22.5 -50.5q0 -27 22 -45t56 -18zM218 797q0 25 -19 42t-50 17t-50 -17t-19 -42q0 -26 19.5 -44t49.5 -18t49.5 18t19.5 44z" />
    <glyph glyph-name="nine.superior" unicode="&#x2079;" horiz-adv-x="309" 
d="M121 519l63 117q1 2 -0.5 3.5t-3.5 0.5q-6 -6 -32 -6q-55 0 -91.5 37t-36.5 96q0 60 36.5 97.5t98.5 37.5t98 -37.5t36 -97.5q0 -41 -21 -78l-93 -170q-1 -3 -3 -3h-48q-4 0 -3 3zM74 767q0 -41 20.5 -65t60.5 -24q39 0 59.5 24t20.5 65q0 42 -20 65.5t-60 23.5
t-60.5 -23.5t-20.5 -65.5z" />
    <glyph glyph-name="zero.inferior" unicode="&#x2080;" horiz-adv-x="329" 
d="M309 -8q0 -196 -145 -196q-144 0 -144 196t144 196q145 0 145 -196zM255 -8q0 150 -91 150q-48 0 -69 -37.5t-21 -112.5q0 -150 90 -150q91 0 91 150z" />
    <glyph glyph-name="one.inferior" unicode="&#x2081;" horiz-adv-x="243" 
d="M122 144v35q0 3 3 3h46q2 0 2 -3v-374q0 -3 -2 -3h-46q-3 0 -3 3v249q0 16 -17 16h-82q-3 0 -3 3v37q0 3 3 3h67q13 0 22.5 9t9.5 22z" />
    <glyph glyph-name="two.inferior" unicode="&#x2082;" horiz-adv-x="290" 
d="M20 -195v37q0 5 3 8l150 146q46 42 46 77q-1 25 -19 47t-53 22q-30 0 -49.5 -19t-19.5 -45q0 -3 -2 -3h-46q-3 0 -3 3q0 48 34 79t86 31q57 0 90 -33t33 -82q0 -57 -60 -111l-119 -110q-1 -1 -0.5 -2.5t2.5 -1.5h174q3 0 3 -3v-40q0 -3 -3 -3h-244q-3 0 -3 3z" />
    <glyph glyph-name="three.inferior" unicode="&#x2083;" horiz-adv-x="290" 
d="M120 -23v41q0 3 2 3h19q31 0 50 17t19 43q0 24 -19.5 42.5t-49.5 18.5q-28 -1 -48 -20.5t-19 -43.5q0 -3 -3 -3h-46q-3 0 -3 3q0 47 33.5 78t85.5 32q53 0 87 -30.5t34 -76.5q0 -33 -19.5 -55t-34.5 -24q-2 -1 -2 -3t2 -3q19 -4 40.5 -29t21.5 -62q0 -49 -34.5 -78.5
t-94.5 -29.5q-57 0 -89 31t-32 77q0 2 2 2h46q3 0 3 -2q0 -25 18.5 -44t51.5 -19q34 0 56 18t22 45q0 31 -22.5 50.5t-55.5 19.5h-19q-2 0 -2 2z" />
    <glyph glyph-name="four.inferior" unicode="&#x2084;" horiz-adv-x="340" 
d="M207 182h45q3 0 3 -3v-241q0 -3 2 -3h60q3 0 3 -3v-40q0 -3 -3 -3h-60q-2 0 -2 -3v-81q0 -3 -3 -3h-46q-3 0 -3 3v81q0 3 -2 3h-178q-3 0 -3 3v37q0 5 2 9l179 241q2 3 6 3zM198 97l-116 -158q-2 -4 3 -4h116q2 0 2 3v158q0 2 -1.5 2.5t-3.5 -1.5z" />
    <glyph glyph-name="five.inferior" unicode="&#x2085;" horiz-adv-x="302" 
d="M24 -17l24 195q0 4 3 4h203q3 0 3 -3v-40q0 -3 -3 -3h-159q-3 0 -3 -2l-11 -90q-1 -2 0.5 -2.5t3.5 1.5q27 23 66 23q59 0 95 -37t36 -96q0 -64 -34.5 -100t-96.5 -36q-66 0 -98.5 36t-32.5 72q0 2 3 2h49q3 0 3 -2q0 -20 19 -41.5t57 -21.5q36 0 58 24.5t22 66.5
q0 38 -22.5 62.5t-57.5 24.5q-53 0 -76 -37q-1 -3 -6 -3h-42q-3 0 -3 3z" />
    <glyph glyph-name="six.inferior" unicode="&#x2086;" horiz-adv-x="309" 
d="M188 179l-63 -117q-1 -2 1 -3.5t3 -0.5q6 6 32 6q55 0 91.5 -37t36.5 -96q0 -60 -36.5 -97.5t-98.5 -37.5t-98 37.5t-36 97.5q0 41 21 78l93 170q1 3 3 3h48q4 0 3 -3zM235 -69q0 42 -20.5 65.5t-60.5 23.5t-60 -23.5t-20 -65.5q0 -41 20.5 -65t59.5 -24q40 0 60.5 24
t20.5 65z" />
    <glyph glyph-name="seven.inferior" unicode="&#x2087;" horiz-adv-x="286" 
d="M266 179v-36q0 -5 -2 -9l-123 -329q-1 -3 -3 -3h-50q-4 0 -2 3l127 329q2 2 -2 2h-188q-3 0 -3 3v40q0 3 3 3h240q3 0 3 -3z" />
    <glyph glyph-name="eight.inferior" unicode="&#x2088;" horiz-adv-x="298" 
d="M149 -203q-60 0 -94.5 29.5t-34.5 78.5q0 38 20.5 61t41.5 30q2 1 2 3t-2 3q-16 5 -35 26.5t-19 54.5q0 46 33.5 75.5t87.5 29.5q53 0 86.5 -29.5t33.5 -75.5q0 -32 -19 -54t-34 -27q-3 -1 -3 -3t3 -3q21 -7 41.5 -30t20.5 -61q0 -49 -35 -78.5t-94 -29.5zM149 -158
q33 0 55 18t22 45q0 31 -22 50.5t-55 19.5t-55.5 -19.5t-22.5 -50.5q0 -27 22 -45t56 -18zM218 83q0 25 -19 42t-50 17t-50 -17t-19 -42q0 -26 19.5 -44t49.5 -18t49.5 18t19.5 44z" />
    <glyph glyph-name="nine.inferior" unicode="&#x2089;" horiz-adv-x="309" 
d="M121 -195l63 117q1 2 -0.5 3.5t-3.5 0.5q-6 -6 -32 -6q-55 0 -91.5 37t-36.5 96q0 60 36.5 97.5t98.5 37.5t98 -37.5t36 -97.5q0 -41 -21 -78l-93 -170q-1 -3 -3 -3h-48q-4 0 -3 3zM74 53q0 -41 20.5 -65t60.5 -24q39 0 59.5 24t20.5 65q0 42 -20 65.5t-60 23.5
t-60.5 -23.5t-20.5 -65.5z" />
    <glyph glyph-name="franc" unicode="&#x20a3;" 
d="M204 292l25 110q1 6 -5 6h-122q-5 0 -5 5v59q0 5 5 5h140q5 0 6 4l48 209q1 4 6 4h54q7 0 5 -7l-47 -204q-2 -6 5 -6h102q5 0 6 5l48 208q1 4 6 4h54q7 0 5 -7l-47 -204q-1 -6 5 -6h120q5 0 5 -5v-59q0 -5 -5 -5h-138q-4 0 -6 -5l-26 -110q-2 -6 5 -6h120q5 0 5 -5v-59
q0 -5 -5 -5h-138q-4 0 -5 -4l-47 -210q-1 -4 -6 -4h-53q-7 0 -5 7l46 206q2 5 -4 5h-105q-3 0 -5 -5l-47 -209q-1 -4 -6 -4h-53q-7 0 -5 7l45 205q2 6 -4 6h-122q-5 0 -5 5v59q0 5 5 5h139q5 0 6 5zM404 408h-103q-5 0 -6 -5l-26 -109q-2 -7 5 -7h104q3 0 5 5l25 110
q2 6 -4 6z" />
    <glyph glyph-name="lira" unicode="&#x20a4;" 
d="M204 292l25 110q1 6 -5 6h-122q-5 0 -5 5v59q0 5 5 5h140q5 0 6 4l48 209q1 4 6 4h54q7 0 5 -7l-47 -204q-2 -6 5 -6h102q5 0 6 5l48 208q1 4 6 4h54q7 0 5 -7l-47 -204q-1 -6 5 -6h120q5 0 5 -5v-59q0 -5 -5 -5h-138q-4 0 -6 -5l-26 -110q-2 -6 5 -6h120q5 0 5 -5v-59
q0 -5 -5 -5h-138q-4 0 -5 -4l-47 -210q-1 -4 -6 -4h-53q-7 0 -5 7l46 206q2 5 -4 5h-105q-3 0 -5 -5l-47 -209q-1 -4 -6 -4h-53q-7 0 -5 7l45 205q2 6 -4 6h-122q-5 0 -5 5v59q0 5 5 5h139q5 0 6 5zM404 408h-103q-5 0 -6 -5l-26 -109q-2 -7 5 -7h104q3 0 5 5l25 110
q2 6 -4 6z" />
    <glyph glyph-name="peseta" unicode="&#x20a7;" 
d="M204 292l25 110q1 6 -5 6h-122q-5 0 -5 5v59q0 5 5 5h140q5 0 6 4l48 209q1 4 6 4h54q7 0 5 -7l-47 -204q-2 -6 5 -6h102q5 0 6 5l48 208q1 4 6 4h54q7 0 5 -7l-47 -204q-1 -6 5 -6h120q5 0 5 -5v-59q0 -5 -5 -5h-138q-4 0 -6 -5l-26 -110q-2 -6 5 -6h120q5 0 5 -5v-59
q0 -5 -5 -5h-138q-4 0 -5 -4l-47 -210q-1 -4 -6 -4h-53q-7 0 -5 7l46 206q2 5 -4 5h-105q-3 0 -5 -5l-47 -209q-1 -4 -6 -4h-53q-7 0 -5 7l45 205q2 6 -4 6h-122q-5 0 -5 5v59q0 5 5 5h139q5 0 6 5zM404 408h-103q-5 0 -6 -5l-26 -109q-2 -7 5 -7h104q3 0 5 5l25 110
q2 6 -4 6z" />
    <glyph glyph-name="Euro" unicode="&#x20ac;" horiz-adv-x="639" 
d="M126 223q-1 7 -6 7h-76q-5 0 -3 5l20 75q2 5 6 5h41q5 0 5 5q-1 9 -1 37t1 38q0 5 -5 5h-64q-6 0 -4 5l20 75q2 5 7 5h55q5 0 5 4q25 106 92.5 165.5t179.5 59.5q113 0 185 -69q5 -5 2 -14l-26 -80q-1 -3 -3.5 -3t-4.5 3q-45 78 -153 78q-69 0 -110.5 -33t-60.5 -106
q-1 -5 5 -5h300q6 0 4 -5l-21 -75q-2 -5 -6 -5h-292q-5 0 -5 -5q-6 -37 0 -75q0 -5 5 -5h264q6 0 4 -5l-21 -75q-1 -5 -6 -5h-228q-6 0 -5 -7q34 -148 173 -148q57 0 104 40.5t75 95.5q2 4 6.5 2.5t4.5 -5.5v-114q0 -6 -5 -14q-25 -39 -77.5 -64.5t-107.5 -25.5
q-114 0 -182 61t-91 172z" />
    <glyph glyph-name="uni2113" unicode="&#x2113;" horiz-adv-x="485" 
d="M365 212h87q5 0 5 -5v-43q0 -68 -48 -116t-116 -48q-60 0 -105 37.5t-56 95.5l-110 -110q-3 -3 -6 -2t-3 4v122q0 4 2 6l114 114v260q0 68 48 116t116 48q66 0 116 -48q48 -48 48 -116t-48 -116l-184 -185v-62q0 -28 20 -48.5t48 -20.5t47.5 20t19.5 49v43q0 5 5 5z
M341 575q-21 21 -48 21q-28 0 -48 -20.5t-20 -48.5v-153q0 -2 3 -3t5 0l108 108q20 20 20 48t-20 48z" />
    <glyph glyph-name="trademark" unicode="&#x2122;" horiz-adv-x="685" 
d="M117 354v305q-2 2 -3 2h-96q-3 0 -3 3v37q0 3 3 3h245q3 0 3 -3v-37q0 -3 -3 -3h-96q-3 0 -3 -2v-305q0 -2 -2 -2h-43q-2 0 -2 2zM471 401l89 300q2 3 4 3h81q2 0 2 -3v-347q0 -2 -2 -2h-43q-2 0 -2 2v300q0 2 -2.5 2t-2.5 -2l-88 -300q-2 -2 -4 -2h-68q-4 0 -4 2
l-88 300q-1 3 -4 2q-1 0 -1 -2v-300q0 -2 -3 -2h-42q-3 0 -3 2v347q0 3 3 3h81q2 0 3 -3l89 -300q1 -1 2.5 -1t2.5 1z" />
    <glyph glyph-name="Omega" unicode="&#x2126;" horiz-adv-x="703" 
d="M268 0h-224q-5 0 -5 5v75q0 5 5 5h85q4 0 4.5 3.5t-1.5 5.5q-96 99 -96 258q0 164 81.5 263t234.5 99t234 -99t81 -263q0 -78 -25.5 -147t-70.5 -111q-3 -2 -2 -5.5t5 -3.5h85q5 0 5 -5v-75q0 -5 -5 -5h-224q-5 0 -5 5v73q0 5 5 7q64 24 98.5 94t34.5 173q0 131 -56 204
t-160 73t-160 -73t-56 -204q0 -103 34 -173t98 -94q5 -2 5 -7v-73q0 -5 -5 -5z" />
    <glyph glyph-name="estimated" unicode="&#x212e;" horiz-adv-x="560" 
d="M469 130l6 -2q4 -2 2 -6q-28 -57 -81 -89.5t-116 -32.5q-91 0 -155.5 64.5t-64.5 155.5v51q0 91 64.5 156t155.5 65q90 0 155 -65t65 -156v-28q0 -5 -5 -5h-364q-5 0 -5 -5v-146q60 -71 154 -71q56 0 105.5 30t77.5 81q2 4 6 3zM280 476q-93 0 -154 -71v-145q0 -5 5 -5
h297q5 0 5 5v146q-62 70 -153 70z" />
    <glyph glyph-name="onethird" unicode="&#x2153;" 
d="M90 8l420 688q5 8 10 8h52q8 0 4 -8l-422 -688q-5 -8 -10 -8h-50q-8 0 -4 8zM488 175v41q0 3 2 3h19q31 0 50 17t19 43q0 24 -19.5 42.5t-49.5 18.5q-28 -1 -48 -20.5t-19 -43.5q0 -3 -3 -3h-46q-3 0 -3 3q0 47 33.5 78t85.5 32q53 0 87 -30.5t34 -76.5q0 -33 -19.5 -55
t-34.5 -24q-2 -1 -2 -3t2 -3q19 -4 40.5 -29t21.5 -62q0 -49 -34.5 -78.5t-94.5 -29.5q-57 0 -89 31t-32 77q0 2 2 2h46q3 0 3 -2q0 -25 18.5 -44t51.5 -19q34 0 56 18t22 45q0 31 -22.5 50.5t-55.5 19.5h-19q-2 0 -2 2zM152 667v35q0 3 3 3h46q2 0 2 -3v-374q0 -3 -2 -3
h-46q-3 0 -3 3v249q0 16 -17 16h-82q-3 0 -3 3v37q0 3 3 3h67q13 0 22.5 9t9.5 22z" />
    <glyph glyph-name="twothirds" unicode="&#x2154;" 
d="M5 326v37q0 5 3 8l150 146q46 42 46 77q-1 25 -19 47t-53 22q-30 0 -49.5 -19t-19.5 -45q0 -3 -2 -3h-46q-3 0 -3 3q0 48 34 79t86 31q57 0 90 -33t33 -82q0 -57 -60 -111l-119 -110q-1 -1 -0.5 -2.5t2.5 -1.5h174q3 0 3 -3v-40q0 -3 -3 -3h-244q-3 0 -3 3zM90 8l420 688
q5 8 10 8h52q8 0 4 -8l-422 -688q-5 -8 -10 -8h-50q-8 0 -4 8zM488 175v41q0 3 2 3h19q31 0 50 17t19 43q0 24 -19.5 42.5t-49.5 18.5q-28 -1 -48 -20.5t-19 -43.5q0 -3 -3 -3h-46q-3 0 -3 3q0 47 33.5 78t85.5 32q53 0 87 -30.5t34 -76.5q0 -33 -19.5 -55t-34.5 -24
q-2 -1 -2 -3t2 -3q19 -4 40.5 -29t21.5 -62q0 -49 -34.5 -78.5t-94.5 -29.5q-57 0 -89 31t-32 77q0 2 2 2h46q3 0 3 -2q0 -25 18.5 -44t51.5 -19q34 0 56 18t22 45q0 31 -22.5 50.5t-55.5 19.5h-19q-2 0 -2 2z" />
    <glyph glyph-name="oneeighth" unicode="&#x215b;" 
d="M90 8l420 688q5 8 10 8h52q8 0 4 -8l-422 -688q-5 -8 -10 -8h-50q-8 0 -4 8zM526 -5q-60 0 -94.5 29.5t-34.5 78.5q0 38 20.5 61t41.5 30q2 1 2 3t-2 3q-16 5 -35 26.5t-19 54.5q0 46 33.5 75.5t87.5 29.5q53 0 86.5 -29.5t33.5 -75.5q0 -32 -19 -54t-34 -27q-3 -1 -3 -3
t3 -3q21 -7 41.5 -30t20.5 -61q0 -49 -35 -78.5t-94 -29.5zM526 40q33 0 55 18t22 45q0 31 -22 50.5t-55 19.5q-34 0 -56 -19.5t-22 -50.5q0 -27 22 -45t56 -18zM595 281q0 25 -19 42t-50 17t-50 -17t-19 -42q0 -26 19.5 -44t49.5 -18t49.5 18t19.5 44zM152 667v35q0 3 3 3
h46q2 0 2 -3v-374q0 -3 -2 -3h-46q-3 0 -3 3v249q0 16 -17 16h-82q-3 0 -3 3v37q0 3 3 3h67q13 0 22.5 9t9.5 22z" />
    <glyph glyph-name="threeeighths" unicode="&#x215c;" 
d="M516 -5q-60 0 -94.5 29.5t-34.5 78.5q0 38 20.5 61t41.5 30q2 1 2 3t-2 3q-16 5 -35 26.5t-19 54.5q0 46 33.5 75.5t87.5 29.5q53 0 86.5 -29.5t33.5 -75.5q0 -32 -19 -54t-34 -27q-3 -1 -3 -3t3 -3q21 -7 41.5 -30t20.5 -61q0 -49 -35 -78.5t-94 -29.5zM516 40
q33 0 55 18t22 45q0 31 -22 50.5t-55 19.5q-34 0 -56 -19.5t-22 -50.5q0 -27 22 -45t56 -18zM585 281q0 25 -19 42t-50 17t-50 -17t-19 -42q0 -26 19.5 -44t49.5 -18t49.5 18t19.5 44zM128 498v41q0 3 2 3h19q31 0 50 17t19 43q0 24 -19.5 42.5t-49.5 18.5q-28 -1 -48 -20.5
t-19 -43.5q0 -3 -3 -3h-46q-3 0 -3 3q0 47 33.5 78t85.5 32q53 0 87 -30.5t34 -76.5q0 -33 -19.5 -55t-34.5 -24q-2 -1 -2 -3t2 -3q19 -4 40.5 -29t21.5 -62q0 -49 -34.5 -78.5t-94.5 -29.5q-57 0 -89 31t-32 77q0 2 2 2h46q3 0 3 -2q0 -25 18.5 -44t51.5 -19q34 0 56 18
t22 45q0 31 -22.5 50.5t-55.5 19.5h-19q-2 0 -2 2zM90 8l420 688q5 8 10 8h52q8 0 4 -8l-422 -688q-5 -8 -10 -8h-50q-8 0 -4 8z" />
    <glyph glyph-name="fiveeighths" unicode="&#x215d;" 
d="M14 505l24 195q0 4 3 4h203q3 0 3 -3v-40q0 -3 -3 -3h-159q-3 0 -3 -2l-11 -90q-1 -2 0.5 -2.5t3.5 1.5q27 23 66 23q59 0 95 -37t36 -96q0 -64 -34.5 -100t-96.5 -36q-66 0 -98.5 36t-32.5 72q0 2 3 2h49q3 0 3 -2q0 -20 19 -41.5t57 -21.5q36 0 58 24.5t22 66.5
q0 38 -22.5 62.5t-57.5 24.5q-53 0 -76 -37q-1 -3 -6 -3h-42q-3 0 -3 3zM516 -5q-60 0 -94.5 29.5t-34.5 78.5q0 38 20.5 61t41.5 30q2 1 2 3t-2 3q-16 5 -35 26.5t-19 54.5q0 46 33.5 75.5t87.5 29.5q53 0 86.5 -29.5t33.5 -75.5q0 -32 -19 -54t-34 -27q-3 -1 -3 -3t3 -3
q21 -7 41.5 -30t20.5 -61q0 -49 -35 -78.5t-94 -29.5zM516 40q33 0 55 18t22 45q0 31 -22 50.5t-55 19.5q-34 0 -56 -19.5t-22 -50.5q0 -27 22 -45t56 -18zM585 281q0 25 -19 42t-50 17t-50 -17t-19 -42q0 -26 19.5 -44t49.5 -18t49.5 18t19.5 44zM90 8l420 688q5 8 10 8h52
q8 0 4 -8l-422 -688q-5 -8 -10 -8h-50q-8 0 -4 8z" />
    <glyph glyph-name="seveneighths" unicode="&#x215e;" 
d="M300 701v-36q0 -5 -2 -9l-123 -329q-1 -3 -3 -3h-50q-4 0 -2 3l127 329q2 2 -2 2h-188q-3 0 -3 3v40q0 3 3 3h240q3 0 3 -3zM526 -5q-60 0 -94.5 29.5t-34.5 78.5q0 38 20.5 61t41.5 30q2 1 2 3t-2 3q-16 5 -35 26.5t-19 54.5q0 46 33.5 75.5t87.5 29.5q53 0 86.5 -29.5
t33.5 -75.5q0 -32 -19 -54t-34 -27q-3 -1 -3 -3t3 -3q21 -7 41.5 -30t20.5 -61q0 -49 -35 -78.5t-94 -29.5zM526 40q33 0 55 18t22 45q0 31 -22 50.5t-55 19.5q-34 0 -56 -19.5t-22 -50.5q0 -27 22 -45t56 -18zM595 281q0 25 -19 42t-50 17t-50 -17t-19 -42q0 -26 19.5 -44
t49.5 -18t49.5 18t19.5 44zM90 8l420 688q5 8 10 8h52q8 0 4 -8l-422 -688q-5 -8 -10 -8h-50q-8 0 -4 8z" />
    <glyph glyph-name="arrowleft" unicode="&#x2190;" horiz-adv-x="707" 
d="M57 392l128 111q4 3 12 3h66q4 0 5 -3.5t-2 -5.5l-125 -103q-3 -2 -2 -4.5t4 -2.5h506q5 0 5 -5v-51q0 -5 -5 -5h-506q-3 0 -4 -2.5t2 -4.5l125 -104q3 -2 2 -5.5t-5 -3.5h-66q-9 0 -12 3l-128 111q-4 4 -4 10v52q0 6 4 10z" />
    <glyph glyph-name="arrowup" unicode="&#x2191;" horiz-adv-x="409" 
d="M240 700l111 -128q3 -4 3 -12v-66q0 -4 -3.5 -5t-5.5 2l-103 125q-2 3 -4.5 2t-2.5 -4v-609q0 -5 -5 -5h-51q-5 0 -5 5v609q0 3 -2.5 4t-4.5 -2l-104 -125q-2 -3 -5.5 -2t-3.5 5v66q0 9 3 12l111 128q4 4 10 4h52q6 0 10 -4z" />
    <glyph glyph-name="arrowright" unicode="&#x2192;" horiz-adv-x="707" 
d="M522 503l128 -111q4 -4 4 -10v-52q0 -6 -4 -10l-128 -111q-3 -3 -12 -3h-66q-4 0 -5 3.5t2 5.5l125 104q3 2 2 4.5t-4 2.5h-506q-5 0 -5 5v51q0 5 5 5h506q3 0 4 2.5t-2 4.5l-125 103q-3 2 -2 5.5t5 3.5h66q8 0 12 -3z" />
    <glyph glyph-name="arrowdown" unicode="&#x2193;" horiz-adv-x="409" 
d="M351 132l-111 -128q-4 -4 -10 -4h-52q-6 0 -10 4l-111 128q-3 3 -3 12v66q0 4 3.5 5t5.5 -2l104 -125q2 -3 4.5 -2t2.5 4v609q0 5 5 5h51q5 0 5 -5v-609q0 -3 2.5 -4t4.5 2l103 125q2 3 5.5 2t3.5 -5v-66q0 -8 -3 -12z" />
    <glyph glyph-name="carriagereturn" unicode="&#x21b5;" horiz-adv-x="707" 
d="M654 699v-368q0 -5 -5 -5h-506q-3 0 -4 -2.5t2 -4.5l125 -104q3 -2 2 -5.5t-5 -3.5h-66q-9 0 -12 3l-128 111q-4 4 -4 10v52q0 6 4 10l128 111q4 3 12 3h66q4 0 5 -3.5t-2 -5.5l-125 -103q-3 -2 -2 -4.5t4 -2.5h445q5 0 5 5v307q0 5 5 5h51q5 0 5 -5z" />
    <glyph glyph-name="partialdiff" unicode="&#x2202;" horiz-adv-x="585" 
d="M530 300q0 -138 -65 -224t-186 -86q-103 0 -173 72.5t-70 190.5q0 116 68.5 189.5t174.5 73.5q55 0 92.5 -19t48.5 -35q3 -3 6 -2.5t3 4.5q0 14 -6.5 37.5t-21 54t-46.5 52t-75 21.5q-84 0 -135 -51q-1 -2 -4.5 -1.5t-4.5 3.5l-35 51q-3 5 1 9q10 11 27 24.5t60.5 31.5
t90.5 18q250 0 250 -414zM131 253q0 -84 43.5 -131t114.5 -47q65 0 104 50.5t39 127.5q0 82 -37.5 130t-105.5 48q-71 0 -114.5 -47t-43.5 -131z" />
    <glyph glyph-name="Delta" unicode="&#x2206;" 
d="M613 0h-547q-5 0 -5 5v71q0 2 3 11l208 612q2 5 6 5h127q3 0 5 -5l205 -611q3 -9 3 -12v-71q0 -5 -5 -5zM336 605l-168 -514q-2 -6 5 -6h333q7 0 5 7l-165 513q-2 4 -5 4t-5 -4z" />
    <glyph glyph-name="product" unicode="&#x220f;" horiz-adv-x="667" 
d="M80 704h507q5 0 5 -5v-694q0 -5 -5 -5h-85q-5 0 -5 5v609q0 5 -5 5h-317q-5 0 -5 -4v-610q0 -5 -5 -5h-85q-5 0 -5 5v694q0 5 5 5z" />
    <glyph glyph-name="summation" unicode="&#x2211;" horiz-adv-x="556" 
d="M28 5v70q0 9 3 13l188 259q3 5 0 9l-189 260q-2 3 -2 13v70q0 5 5 5h490q5 0 5 -5v-75q0 -5 -5 -5h-377q-6 0 -2 -6l186 -257q3 -4 0 -9l-187 -257q-3 -5 2 -5h378q5 0 5 -5v-75q0 -5 -5 -5h-490q-5 0 -5 5z" />
    <glyph glyph-name="minus" unicode="&#x2212;" horiz-adv-x="612" 
d="M554 208h-496q-5 0 -5 5v80q0 5 5 5h496q5 0 5 -5v-80q0 -5 -5 -5z" />
    <glyph glyph-name="fraction" unicode="&#x2215;" horiz-adv-x="228" 
d="M-129 8l420 688q5 8 10 8h52q8 0 4 -8l-422 -688q-5 -8 -10 -8h-50q-8 0 -4 8z" />
    <glyph glyph-name="periodcentered" unicode="&#x2219;" horiz-adv-x="260" 
d="M190 285h-120q-5 0 -5 5v122q0 5 5 5h120q5 0 5 -5v-122q0 -5 -5 -5z" />
    <glyph glyph-name="radical" unicode="&#x221a;" horiz-adv-x="636" 
d="M272 5l-114 411q-1 5 -6 5h-92q-5 0 -5 5v75q0 5 5 5h154q3 0 5 -5l112 -402q1 -4 5 -4t5 4l221 788q2 5 5 5h74q7 0 5 -5l-246 -882q-2 -5 -5 -5h-117q-4 0 -6 5z" />
    <glyph glyph-name="infinity" unicode="&#x221e;" horiz-adv-x="887" 
d="M562 186l-113 91q-5 5 -10 0l-118 -91q-53 -40 -109 -40q-76 0 -129 54.5t-53 131.5q0 76 53 130t129 54q69 0 117 -41l110 -94q5 -5 10 0l104 94q47 41 119 41q76 0 129.5 -54t53.5 -130q0 -77 -53.5 -131.5t-129.5 -54.5q-62 0 -110 40zM672 438q-38 0 -65 -20
l-106 -82q-5 -3 0 -8l106 -80q33 -24 65 -24q44 0 75.5 31.5t31.5 76.5q0 44 -31.5 75t-75.5 31zM212 438q-45 0 -75.5 -31t-30.5 -75q0 -45 30.5 -76.5t75.5 -31.5q28 0 62 24l107 80q6 4 0 9l-103 80q-26 21 -66 21z" />
    <glyph glyph-name="integral" unicode="&#x222b;" horiz-adv-x="361" 
d="M15 -193v75q0 5 5 5h66q22 0 34.5 13.5t12.5 36.5v649q0 121 141 118h67q5 0 5 -5v-75q0 -5 -5 -5h-66q-22 0 -34.5 -13.5t-12.5 -36.5v-649q0 -121 -141 -118h-67q-5 0 -5 5z" />
    <glyph glyph-name="approxequal" unicode="&#x2248;" horiz-adv-x="559" 
d="M375 318q-30 0 -97 25.5t-94 25.5q-16 0 -37 -21l-28 -28q-3 -4 -7 0l-60 55q-4 3 0 7l35 37q37 39 97 39q30 0 96.5 -25.5t94.5 -25.5q16 0 37 21l28 28q4 4 7 0l60 -55q4 -3 0 -7l-35 -37q-37 -39 -97 -39zM375 101q-30 0 -97 25.5t-94 25.5q-16 0 -37 -21l-28 -28
q-3 -3 -7 0l-60 55q-4 3 0 7l35 37q37 39 97 39q30 0 96.5 -25.5t94.5 -25.5q16 0 37 21l28 28q4 3 7 0l60 -55q4 -3 0 -7l-35 -37q-37 -39 -97 -39z" />
    <glyph glyph-name="notequal" unicode="&#x2260;" horiz-adv-x="580" 
d="M44 7l67 85q2 3 0.5 6t-4.5 3h-49q-5 0 -5 5v80q0 5 5 5h127q3 0 6 4l89 114q2 3 0.5 6t-4.5 3h-218q-5 0 -5 5v79q0 5 5 5h297q4 0 6 4l72 92q1 3 5 3h75q7 0 5 -7l-66 -84q-2 -2 -0.5 -5t4.5 -3h50q5 0 5 -5v-79q0 -5 -5 -5h-127q-5 0 -8 -5l-90 -114q-2 -2 -0.5 -5
t4.5 -3h221q5 0 5 -5v-80q0 -5 -5 -5h-298q-2 0 -6 -4l-74 -94q-2 -3 -5 -3h-74q-7 0 -5 7z" />
    <glyph glyph-name="lessequal" unicode="&#x2264;" horiz-adv-x="518" 
d="M30 448v56q0 4 3 5l448 193q7 4 7 -5v-78q0 -3 -3 -4l-372 -164q-2 -1 -2 -3t2 -3l372 -160q3 -1 3 -4v-78q0 -9 -7 -5l-448 189q-3 1 -3 5v56zM483 0h-448q-5 0 -5 5v75q0 5 5 5h448q5 0 5 -5v-75q0 -5 -5 -5z" />
    <glyph glyph-name="greaterequal" unicode="&#x2265;" horiz-adv-x="518" 
d="M488 448v-56q0 -4 -3 -5l-448 -189q-7 -4 -7 5v78q0 3 3 4l372 160q2 1 2 3t-2 3l-372 164q-3 1 -3 4v78q0 9 7 5l448 -193q3 -1 3 -5v-56zM483 0h-448q-5 0 -5 5v75q0 5 5 5h448q5 0 5 -5v-75q0 -5 -5 -5z" />
    <glyph glyph-name="lozenge" unicode="&#x25ca;" horiz-adv-x="590" 
d="M252 704h86q3 0 6 -5l229 -342q3 -6 0 -10l-229 -342q-3 -5 -7 -5h-84q-4 0 -7 5l-229 342q-3 4 0 10l229 342q3 5 6 5zM119 347l171 -248q5 -7 10 0l171 248q3 5 0 10l-171 248q-5 8 -10 0l-171 -248q-3 -5 0 -10z" />
    <glyph glyph-name="parenleft.001" unicode="&#xe000;" 
d="M294 -138h158q5 0 5 -4v-51q0 -5 -5 -5h-228q-5 0 -5 5v892q0 5 5 5h228q5 0 5 -5v-51q0 -4 -5 -4h-158q-5 0 -5 -5v-772q0 -5 5 -5z" />
    <glyph glyph-name="parenright.001" unicode="&#xe001;" 
d="M224 -138h158q5 0 5 5v772q0 5 -5 5h-158q-5 0 -5 4v51q0 5 5 5h228q5 0 5 -5v-892q0 -5 -5 -5h-228q-5 0 -5 5v51q0 4 5 4z" />
    <glyph glyph-name="cent.plf" unicode="&#xe002;" 
d="M485 171h90q6 0 5 -5q-39 -152 -191 -173q-5 0 -5 -4v-84q0 -5 -5 -5h-69q-4 0 -4 5v83q0 4 -3 5q-98 11 -153 81t-55 179t54.5 178.5t153.5 81.5q3 1 3 5v84q0 5 4 5h69q5 0 5 -5v-86q0 -2 2 -4q76 -10 126 -54.5t68 -117.5q1 -5 -5 -5h-90q-4 0 -6 5q-34 91 -138 91
q-70 0 -111 -49.5t-41 -128.5t41 -128.5t111 -49.5q104 0 138 91q2 5 6 5z" />
    <glyph glyph-name="currency.plf" unicode="&#xe003;" 
d="M107 66l-53 53q-5 3 0 7l69 69q4 4 1 8q-34 63 -34 147t34 146q3 5 -1 9l-69 70q-5 3 0 7l53 53q3 5 7 0l63 -64q6 -6 11 -2q66 44 150 44q88 0 148 -43q7 -5 13 1l64 64q3 5 7 0l53 -53q5 -4 0 -7l-70 -70q-4 -4 -1 -10q34 -66 34 -145q0 -86 -35 -148q-2 -3 2 -7
l70 -69q5 -4 0 -7l-53 -53q-4 -5 -7 0l-65 64q-5 5 -12 0q-60 -43 -148 -43q-90 0 -151 43q-5 4 -9 0l-64 -64q-4 -5 -7 0zM491 350q0 79 -41 128.5t-112 49.5q-70 0 -111.5 -49.5t-41.5 -128.5t41.5 -128.5t111.5 -49.5q71 0 112 49.5t41 128.5z" />
    <glyph glyph-name="dollar.plf" unicode="&#xe004;" 
d="M301 83v234q0 3 -3 3q-34 5 -62 12.5t-57.5 22.5t-49.5 35t-33 51.5t-13 71.5q0 84 62 137t151 62q5 0 5 5v80q0 5 4 5h69q5 0 5 -5v-84q0 -3 3 -4q83 -14 137.5 -64.5t58.5 -133.5q0 -5 -5 -5h-90q-5 0 -5 5q0 38 -25.5 68t-68.5 42q-5 2 -5 -4v-208q0 -5 5 -5
q49 -8 84.5 -19.5t68.5 -34t50.5 -61t17.5 -91.5q0 -77 -55 -136t-166 -70q-5 0 -5 -4v-83q0 -5 -5 -5h-69q-4 0 -4 5v82q0 5 -5 5q-106 9 -165.5 66t-59.5 135q0 5 5 5h89q6 0 6 -6q0 -36 33 -70t92 -44q5 1 5 5zM384 79q56 10 88.5 43t32.5 76q0 50 -32 75t-89 35
q-5 2 -5 -3v-221q0 -3 1 -4.5t4 -0.5zM296 626q-49 -8 -81 -39.5t-32 -73.5q0 -79 113 -97q5 -1 5 4v202q0 6 -5 4z" />
    <glyph glyph-name="Euro.plf" unicode="&#xe005;" 
d="M150 223q-1 7 -6 7h-76q-5 0 -3 5l20 75q2 5 6 5h41q5 0 5 5q-1 9 -1 37t1 38q0 5 -5 5h-64q-6 0 -4 5l20 75q2 5 7 5h55q5 0 5 4q25 106 92.5 165.5t179.5 59.5q113 0 185 -69q5 -5 2 -14l-26 -80q-1 -3 -3.5 -3t-4.5 3q-45 78 -153 78q-69 0 -110.5 -33t-60.5 -106
q-1 -5 5 -5h300q6 0 4 -5l-21 -75q-2 -5 -6 -5h-292q-5 0 -5 -5q-6 -37 0 -75q0 -5 5 -5h264q6 0 4 -5l-21 -75q-1 -5 -6 -5h-228q-6 0 -5 -7q34 -148 173 -148q57 0 104 40.5t75 95.5q2 4 6.5 2.5t4.5 -5.5v-114q0 -6 -5 -14q-25 -39 -77.5 -64.5t-107.5 -25.5
q-114 0 -182 61t-91 172z" />
    <glyph glyph-name="florin.plf" unicode="&#xe006;" 
d="M87 -193l14 75q2 5 6 5h59q53 0 63 50l95 490q0 4 -4 4h-89q-6 0 -4 5l13 65q0 5 6 5h89q4 0 6 5l14 75q24 121 164 118h67q6 0 4 -5l-14 -75q-2 -5 -6 -5h-66q-47 0 -57 -50l-11 -58q-2 -5 4 -5h108q4 0 4 -5l-13 -65q-2 -5 -6 -5h-108q-4 0 -6 -5l-98 -506
q-24 -121 -153 -118h-77q-6 0 -4 5z" />
    <glyph glyph-name="sterling.plf" unicode="&#xe007;" 
d="M606 0h-535q-5 0 -5 5v75q0 5 5 5h34q54 0 54 50v181q0 5 -5 5h-83q-5 0 -5 5v75q0 5 5 5h83q5 0 5 5v102q0 93 63 147t158 54q100 0 163.5 -52t67.5 -151q0 -5 -5 -5h-90q-5 0 -5 5q0 53 -33.5 85.5t-97.5 32.5q-58 0 -92 -32.5t-34 -83.5v-102q0 -5 5 -5h126q5 0 5 -5
v-75q0 -5 -5 -5h-126q-5 0 -5 -5v-181q0 -26 -13 -45q-3 -5 2 -5h268q5 0 5 5v106q0 5 5 5h85q5 0 5 -5v-191q0 -5 -5 -5z" />
    <glyph glyph-name="yen.plf" unicode="&#xe008;" 
d="M386 298v-95q0 -5 5 -5h202q5 0 5 -5v-80q0 -5 -5 -5h-202q-5 0 -5 -5v-98q0 -5 -5 -5h-85q-5 0 -5 5v98q0 5 -5 5h-190q-5 0 -5 5v80q0 5 5 5h190q5 0 5 5v95v-1q0 6 -5 6h-190q-5 0 -5 5v80q0 5 5 5h136q5 0 2 5l-184 301q-3 5 3 5h101q5 0 8 -5l172 -286q4 -6 8 0
l173 286q4 5 10 5h99q6 0 3 -5l-186 -301q-3 -5 1 -5h151q5 0 5 -5v-80q0 -5 -5 -5h-202q-5 0 -5 -5z" />
    <glyph glyph-name="numbersign.plf" unicode="&#xe00a;" 
d="M204 292l25 110q1 6 -5 6h-122q-5 0 -5 5v59q0 5 5 5h140q5 0 6 4l48 209q1 4 6 4h54q7 0 5 -7l-47 -204q-2 -6 5 -6h102q5 0 6 5l48 208q1 4 6 4h54q7 0 5 -7l-47 -204q-1 -6 5 -6h120q5 0 5 -5v-59q0 -5 -5 -5h-138q-4 0 -6 -5l-26 -110q-2 -6 5 -6h120q5 0 5 -5v-59
q0 -5 -5 -5h-138q-4 0 -5 -4l-47 -210q-1 -4 -6 -4h-53q-7 0 -5 7l46 206q2 5 -4 5h-105q-3 0 -5 -5l-47 -209q-1 -4 -6 -4h-53q-7 0 -5 7l45 205q2 6 -4 6h-122q-5 0 -5 5v59q0 5 5 5h139q5 0 6 5zM404 408h-103q-5 0 -6 -5l-26 -109q-2 -7 5 -7h104q3 0 5 5l25 110
q2 6 -4 6z" />
    <glyph glyph-name="currency.tnum" unicode="&#xe015;" 
d="M107 66l-53 53q-5 3 0 7l69 69q4 4 1 8q-34 63 -34 147t34 146q3 5 -1 9l-69 70q-5 3 0 7l53 53q3 5 7 0l63 -64q6 -6 11 -2q66 44 150 44q88 0 148 -43q7 -5 13 1l64 64q3 5 7 0l53 -53q5 -4 0 -7l-70 -70q-4 -4 -1 -10q34 -66 34 -145q0 -86 -35 -148q-2 -3 2 -7
l70 -69q5 -4 0 -7l-53 -53q-4 -5 -7 0l-65 64q-5 5 -12 0q-60 -43 -148 -43q-90 0 -151 43q-5 4 -9 0l-64 -64q-4 -5 -7 0zM491 350q0 79 -41 128.5t-112 49.5q-70 0 -111.5 -49.5t-41.5 -128.5t41.5 -128.5t111.5 -49.5q71 0 112 49.5t41 128.5z" />
    <glyph glyph-name="Euro.tnum" unicode="&#xe017;" 
d="M150 223q-1 7 -6 7h-76q-5 0 -3 5l20 75q2 5 6 5h41q5 0 5 5q-1 9 -1 37t1 38q0 5 -5 5h-64q-6 0 -4 5l20 75q2 5 7 5h55q5 0 5 4q25 106 92.5 165.5t179.5 59.5q113 0 185 -69q5 -5 2 -14l-26 -80q-1 -3 -3.5 -3t-4.5 3q-45 78 -153 78q-69 0 -110.5 -33t-60.5 -106
q-1 -5 5 -5h300q6 0 4 -5l-21 -75q-2 -5 -6 -5h-292q-5 0 -5 -5q-6 -37 0 -75q0 -5 5 -5h264q6 0 4 -5l-21 -75q-1 -5 -6 -5h-228q-6 0 -5 -7q34 -148 173 -148q57 0 104 40.5t75 95.5q2 4 6.5 2.5t4.5 -5.5v-114q0 -6 -5 -14q-25 -39 -77.5 -64.5t-107.5 -25.5
q-114 0 -182 61t-91 172z" />
    <glyph glyph-name="plus.tnum" unicode="&#xe01a;" 
d="M380 203v-198q0 -5 -5 -5h-84q-5 0 -5 5v198q0 5 -5 5h-191q-5 0 -5 5v80q0 5 5 5h191q5 0 5 5v198q0 5 5 5h84q5 0 5 -5v-198q0 -5 5 -5h202q5 0 5 -5v-80q0 -5 -5 -5h-202q-5 0 -5 -5z" />
    <glyph glyph-name="minus.tnum" unicode="&#xe01b;" 
d="M586 208h-496q-5 0 -5 5v80q0 5 5 5h496q5 0 5 -5v-80q0 -5 -5 -5z" />
    <glyph glyph-name="multiply.tnum" unicode="&#xe01c;" 
d="M338 311l194 194q5 2 7 0l50 -49q3 -4 0 -8l-194 -194q-5 -4 0 -7l195 -194q2 -5 0 -7l-47 -47q-3 -3 -7 0l-195 195q-2 2 -7 0l-191 -193q-3 -3 -7 0l-50 49q-2 5 0 7l191 193q3 3 1 8l-192 190q-2 5 0 7l47 46q4 6 7 0l192 -191q1 -2 3 -1.5t3 2.5z" />
    <glyph glyph-name="equal.tnum" unicode="&#xe01d;" 
d="M562 101h-448q-5 0 -5 5v80q0 5 5 5h448q5 0 5 -5v-80q0 -5 -5 -5zM562 318h-448q-5 0 -5 5v79q0 5 5 5h448q5 0 5 -5v-79q0 -5 -5 -5z" />
    <glyph glyph-name="copyright.001" unicode="&#xe01e;" horiz-adv-x="786" 
d="M743 353q0 -146 -103 -249.5t-248 -103.5t-247.5 103.5t-102.5 249.5q0 145 102.5 248t247.5 103t248 -103t103 -248zM697 353q0 125 -89.5 215t-215.5 90q-125 0 -214.5 -90t-89.5 -215q0 -126 89.5 -216t214.5 -90q126 0 215.5 90t89.5 216zM509 270q1 3 5 3h50
q5 0 5 -5q0 -39 -50.5 -86t-130.5 -47q-89 0 -140 60t-51 157t51 157t140 60q82 0 131.5 -49.5t49.5 -85.5q0 -3 -3 -3h-52q-4 0 -5 3q-28 84 -121 84q-62 0 -96.5 -44t-34.5 -122t34.5 -122t96.5 -44q29 0 50.5 7.5t36 24t20 25.5t14.5 27z" />
    <glyph glyph-name="registered.001" unicode="&#xe01f;" horiz-adv-x="786" 
d="M743 353q0 -146 -103 -249.5t-248 -103.5t-247.5 103.5t-102.5 249.5q0 145 102.5 248.5t247.5 103.5t248 -103.5t103 -248.5zM697 353q0 126 -89.5 216t-215.5 90q-125 0 -214.5 -90.5t-89.5 -215.5q0 -126 89.5 -216t214.5 -90q126 0 215.5 90t89.5 216zM227 146v412
q0 5 5 5h207q50 0 86.5 -37.5t36.5 -90.5q0 -38 -19 -68.5t-51 -44.5q-2 -1 -2.5 -3.5t0.5 -3.5l76 -168q3 -6 -4 -6h-47q-7 0 -10 5l-69 159q-1 4 -7 4h-142q-3 0 -3 -3v-160q0 -5 -5 -5h-47q-5 0 -5 5zM432 512h-143q-5 0 -5 -5v-142q0 -5 5 -5h145q28 0 49.5 22.5
t21.5 52.5q0 31 -22 54t-51 23z" />
    <glyph glyph-name="commaaccent.salt" unicode="&#xe020;" horiz-adv-x="236" 
d="M106 -129h-22q-5 0 -5 5v69q0 5 5 5h68q5 0 5 -5v-71q0 -35 -20.5 -58.5t-52.5 -23.5q-5 0 -5 5v29q0 5 5 5q10 0 18.5 10t8.5 25q0 5 -5 5z" />
    <glyph glyph-name="acute.case" unicode="&#xe021;" horiz-adv-x="236" 
d="M143 765h-65q-8 0 -5 7l51 121q2 7 10 7h92q3 0 5 -2t0 -5l-77 -121q-5 -7 -11 -7z" />
    <glyph glyph-name="breve.case" unicode="&#xe022;" horiz-adv-x="236" 
d="M-8 900h60q5 0 5 -5q0 -24 15 -43.5t46 -19.5t46 19.5t15 43.5q0 5 5 5h60q5 0 5 -5q0 -61 -35.5 -95.5t-95.5 -34.5t-95.5 34.5t-35.5 95.5q0 5 5 5z" />
    <glyph glyph-name="caron.case" unicode="&#xe023;" horiz-adv-x="236" 
d="M159 900h63q8 0 5 -7l-54 -123q-2 -5 -7 -5h-96q-5 0 -7 5l-54 123q-3 7 5 7h64q4 0 5 -3l30 -55q6 -8 10 0l31 55q2 3 5 3z" />
    <glyph glyph-name="circumflex.case" unicode="&#xe024;" horiz-adv-x="236" 
d="M222 765h-63q-3 0 -5 3l-31 54q-5 9 -10 0l-30 -54q-1 -3 -5 -3h-64q-8 0 -5 7l54 122q2 6 7 6h96q5 0 7 -6l54 -122q3 -7 -5 -7z" />
    <glyph glyph-name="dieresis.case" unicode="&#xe025;" horiz-adv-x="399" 
d="M140 789h-100q-5 0 -5 5v101q0 5 5 5h100q5 0 5 -5v-101q0 -5 -5 -5zM359 789h-100q-5 0 -5 5v101q0 5 5 5h100q5 0 5 -5v-101q0 -5 -5 -5z" />
    <glyph glyph-name="dotaccent.case" unicode="&#xe026;" horiz-adv-x="236" 
d="M168 789h-100q-5 0 -5 5v101q0 5 5 5h100q5 0 5 -5v-101q0 -5 -5 -5z" />
    <glyph glyph-name="grave.case" unicode="&#xe027;" horiz-adv-x="236" 
d="M202 765h-65q-6 0 -11 7l-78 121q-4 7 5 7h92q8 0 10 -7l52 -121q3 -7 -5 -7z" />
    <glyph glyph-name="hungarumlaut.case" unicode="&#xe028;" horiz-adv-x="404" 
d="M104 765h-65q-9 0 -5 7l51 121q2 7 10 7h92q3 0 5 -2t0 -5l-77 -121q-5 -7 -11 -7zM294 765h-65q-9 0 -5 7l51 121q2 7 10 7h92q3 0 5 -2t0 -5l-77 -121q-5 -7 -11 -7z" />
    <glyph glyph-name="macron.case" unicode="&#xe029;" horiz-adv-x="295" 
d="M306 786h-313q-5 0 -5 5v60q0 5 5 5h313q5 0 5 -5v-60q0 -5 -5 -5z" />
    <glyph glyph-name="ring.case" unicode="&#xe02a;" horiz-adv-x="236" 
d="M203 833q0 -36 -26 -62t-62 -26t-62 26t-26 62t26 62t62 26t62 -26t26 -62zM156 833q0 17 -12 29t-29 12t-29 -12t-12 -29t12 -29t29 -12t29 12t12 29z" />
    <glyph glyph-name="tilde.case" unicode="&#xe02b;" horiz-adv-x="351" 
d="M20 791v23q0 33 24.5 59.5t77.5 26.5q25 0 47.5 -11.5t37.5 -23t22 -11.5q8 0 13 1t12 10.5t7 29.5q0 5 5 5h60q5 0 5 -5v-24q0 -32 -24.5 -58.5t-77.5 -26.5q-30 0 -64.5 23t-42.5 23t-13 -1t-12 -10.5t-7 -29.5q0 -5 -5 -5h-60q-5 0 -5 5z" />
    <glyph glyph-name="caron.salt" unicode="&#xe02c;" horiz-adv-x="236" 
d="M106 625h-22q-5 0 -5 5v69q0 5 5 5h68q5 0 5 -5v-71q0 -35 -20.5 -58.5t-52.5 -23.5q-5 0 -5 5v29q0 5 5 5q10 0 18.5 10t8.5 25q0 5 -5 5z" />
    <glyph glyph-name="two.superior" unicode="&#xe02d;" horiz-adv-x="290" 
d="M20 519v37q0 5 3 8l150 146q46 42 46 77q-1 25 -19 47t-53 22q-30 0 -49.5 -19t-19.5 -45q0 -3 -2 -3h-46q-3 0 -3 3q0 48 34 79t86 31q57 0 90 -33t33 -82q0 -57 -60 -111l-119 -110q-1 -1 -0.5 -2.5t2.5 -1.5h174q3 0 3 -3v-40q0 -3 -3 -3h-244q-3 0 -3 3z" />
    <glyph glyph-name="three.superior" unicode="&#xe02e;" horiz-adv-x="290" 
d="M120 691v41q0 3 2 3h19q31 0 50 17t19 43q0 24 -19.5 42.5t-49.5 18.5q-28 -1 -48 -20.5t-19 -43.5q0 -3 -3 -3h-46q-3 0 -3 3q0 47 33.5 78t85.5 32q53 0 87 -30.5t34 -76.5q0 -33 -19.5 -55t-34.5 -24q-2 -1 -2 -3t2 -3q19 -4 40.5 -29t21.5 -62q0 -49 -34.5 -78.5
t-94.5 -29.5q-57 0 -89 31t-32 77q0 2 2 2h46q3 0 3 -2q0 -25 18.5 -44t51.5 -19q34 0 56 18t22 45q0 31 -22.5 50.5t-55.5 19.5h-19q-2 0 -2 2z" />
    <glyph glyph-name="one.superior" unicode="&#xe02f;" horiz-adv-x="243" 
d="M122 858v35q0 3 3 3h46q2 0 2 -3v-374q0 -3 -2 -3h-46q-3 0 -3 3v249q0 16 -17 16h-82q-3 0 -3 3v37q0 3 3 3h67q13 0 22.5 9t9.5 22z" />
    <glyph glyph-name="zero.denominator" unicode="&#xe030;" horiz-adv-x="329" 
d="M309 190q0 -196 -145 -196q-144 0 -144 196t144 196q145 0 145 -196zM255 190q0 150 -91 150q-48 0 -69 -37.5t-21 -112.5q0 -150 90 -150q91 0 91 150z" />
    <glyph glyph-name="one.denominator" unicode="&#xe031;" horiz-adv-x="243" 
d="M122 342v35q0 3 3 3h46q2 0 2 -3v-374q0 -3 -2 -3h-46q-3 0 -3 3v249q0 16 -17 16h-82q-3 0 -3 3v37q0 3 3 3h67q13 0 22.5 9t9.5 22z" />
    <glyph glyph-name="two.denominator" unicode="&#xe032;" horiz-adv-x="290" 
d="M20 3v37q0 5 3 8l150 146q46 42 46 77q-1 25 -19 47t-53 22q-30 0 -49.5 -19t-19.5 -45q0 -3 -2 -3h-46q-3 0 -3 3q0 48 34 79t86 31q57 0 90 -33t33 -82q0 -57 -60 -111l-119 -110q-1 -1 -0.5 -2.5t2.5 -1.5h174q3 0 3 -3v-40q0 -3 -3 -3h-244q-3 0 -3 3z" />
    <glyph glyph-name="three.denominator" unicode="&#xe033;" horiz-adv-x="290" 
d="M120 175v41q0 3 2 3h19q31 0 50 17t19 43q0 24 -19.5 42.5t-49.5 18.5q-28 -1 -48 -20.5t-19 -43.5q0 -3 -3 -3h-46q-3 0 -3 3q0 47 33.5 78t85.5 32q53 0 87 -30.5t34 -76.5q0 -33 -19.5 -55t-34.5 -24q-2 -1 -2 -3t2 -3q19 -4 40.5 -29t21.5 -62q0 -49 -34.5 -78.5
t-94.5 -29.5q-57 0 -89 31t-32 77q0 2 2 2h46q3 0 3 -2q0 -25 18.5 -44t51.5 -19q34 0 56 18t22 45q0 31 -22.5 50.5t-55.5 19.5h-19q-2 0 -2 2z" />
    <glyph glyph-name="four.denominator" unicode="&#xe034;" horiz-adv-x="340" 
d="M207 380h45q3 0 3 -3v-241q0 -3 2 -3h60q3 0 3 -3v-40q0 -3 -3 -3h-60q-2 0 -2 -3v-81q0 -3 -3 -3h-46q-3 0 -3 3v81q0 3 -2 3h-178q-3 0 -3 3v37q0 5 2 9l179 241q2 3 6 3zM198 295l-116 -158q-2 -4 3 -4h116q2 0 2 3v158q0 2 -1.5 2.5t-3.5 -1.5z" />
    <glyph glyph-name="five.denominator" unicode="&#xe035;" horiz-adv-x="302" 
d="M24 181l24 195q0 4 3 4h203q3 0 3 -3v-40q0 -3 -3 -3h-159q-3 0 -3 -2l-11 -90q-1 -2 0.5 -2.5t3.5 1.5q27 23 66 23q59 0 95 -37t36 -96q0 -64 -34.5 -100t-96.5 -36q-66 0 -98.5 36t-32.5 72q0 2 3 2h49q3 0 3 -2q0 -20 19 -41.5t57 -21.5q36 0 58 24.5t22 66.5
q0 38 -22.5 62.5t-57.5 24.5q-53 0 -76 -37q-1 -3 -6 -3h-42q-3 0 -3 3z" />
    <glyph glyph-name="six.denominator" unicode="&#xe036;" horiz-adv-x="309" 
d="M188 377l-63 -117q-1 -2 1 -3.5t3 -0.5q6 6 32 6q55 0 91.5 -37t36.5 -96q0 -60 -36.5 -97.5t-98.5 -37.5t-98 37.5t-36 97.5q0 41 21 78l93 170q1 3 3 3h48q4 0 3 -3zM235 129q0 42 -20.5 65.5t-60.5 23.5t-60 -23.5t-20 -65.5q0 -41 20.5 -65t59.5 -24q40 0 60.5 24
t20.5 65z" />
    <glyph glyph-name="seven.denominator" unicode="&#xe037;" horiz-adv-x="286" 
d="M266 377v-36q0 -5 -2 -9l-123 -329q-1 -3 -3 -3h-50q-4 0 -2 3l127 329q2 2 -2 2h-188q-3 0 -3 3v40q0 3 3 3h240q3 0 3 -3z" />
    <glyph glyph-name="eight.denominator" unicode="&#xe038;" horiz-adv-x="298" 
d="M149 -5q-60 0 -94.5 29.5t-34.5 78.5q0 38 20.5 61t41.5 30q2 1 2 3t-2 3q-16 5 -35 26.5t-19 54.5q0 46 33.5 75.5t87.5 29.5q53 0 86.5 -29.5t33.5 -75.5q0 -32 -19 -54t-34 -27q-3 -1 -3 -3t3 -3q21 -7 41.5 -30t20.5 -61q0 -49 -35 -78.5t-94 -29.5zM149 40
q33 0 55 18t22 45q0 31 -22 50.5t-55 19.5t-55.5 -19.5t-22.5 -50.5q0 -27 22 -45t56 -18zM218 281q0 25 -19 42t-50 17t-50 -17t-19 -42q0 -26 19.5 -44t49.5 -18t49.5 18t19.5 44z" />
    <glyph glyph-name="nine.denominator" unicode="&#xe039;" horiz-adv-x="309" 
d="M121 3l63 117q1 2 -0.5 3.5t-3.5 0.5q-6 -6 -32 -6q-55 0 -91.5 37t-36.5 96q0 60 36.5 97.5t98.5 37.5t98 -37.5t36 -97.5q0 -41 -21 -78l-93 -170q-1 -3 -3 -3h-48q-4 0 -3 3zM74 251q0 -41 20.5 -65t60.5 -24q39 0 59.5 24t20.5 65q0 42 -20 65.5t-60 23.5
t-60.5 -23.5t-20.5 -65.5z" />
    <glyph glyph-name="zero.numerator" unicode="&#xe03a;" horiz-adv-x="329" 
d="M309 514q0 -196 -145 -196q-144 0 -144 196t144 196q145 0 145 -196zM255 514q0 150 -91 150q-48 0 -69 -37.5t-21 -112.5q0 -150 90 -150q91 0 91 150z" />
    <glyph glyph-name="one.numerator" unicode="&#xe03b;" horiz-adv-x="243" 
d="M122 666v35q0 3 3 3h46q2 0 2 -3v-374q0 -3 -2 -3h-46q-3 0 -3 3v249q0 16 -17 16h-82q-3 0 -3 3v37q0 3 3 3h67q13 0 22.5 9t9.5 22z" />
    <glyph glyph-name="two.numerator" unicode="&#xe03c;" horiz-adv-x="290" 
d="M20 327v37q0 5 3 8l150 146q46 42 46 77q-1 25 -19 47t-53 22q-30 0 -49.5 -19t-19.5 -45q0 -3 -2 -3h-46q-3 0 -3 3q0 48 34 79t86 31q57 0 90 -33t33 -82q0 -57 -60 -111l-119 -110q-1 -1 -0.5 -2.5t2.5 -1.5h174q3 0 3 -3v-40q0 -3 -3 -3h-244q-3 0 -3 3z" />
    <glyph glyph-name="three.numerator" unicode="&#xe03d;" horiz-adv-x="290" 
d="M120 499v41q0 3 2 3h19q31 0 50 17t19 43q0 24 -19.5 42.5t-49.5 18.5q-28 -1 -48 -20.5t-19 -43.5q0 -3 -3 -3h-46q-3 0 -3 3q0 47 33.5 78t85.5 32q53 0 87 -30.5t34 -76.5q0 -33 -19.5 -55t-34.5 -24q-2 -1 -2 -3t2 -3q19 -4 40.5 -29t21.5 -62q0 -49 -34.5 -78.5
t-94.5 -29.5q-57 0 -89 31t-32 77q0 2 2 2h46q3 0 3 -2q0 -25 18.5 -44t51.5 -19q34 0 56 18t22 45q0 31 -22.5 50.5t-55.5 19.5h-19q-2 0 -2 2z" />
    <glyph glyph-name="four.numerator" unicode="&#xe03e;" horiz-adv-x="340" 
d="M207 704h45q3 0 3 -3v-241q0 -3 2 -3h60q3 0 3 -3v-40q0 -3 -3 -3h-60q-2 0 -2 -3v-81q0 -3 -3 -3h-46q-3 0 -3 3v81q0 3 -2 3h-178q-3 0 -3 3v37q0 5 2 9l179 241q2 3 6 3zM198 619l-116 -158q-2 -4 3 -4h116q2 0 2 3v158q0 2 -1.5 2.5t-3.5 -1.5z" />
    <glyph glyph-name="five.numerator" unicode="&#xe03f;" horiz-adv-x="302" 
d="M24 505l24 195q0 4 3 4h203q3 0 3 -3v-40q0 -3 -3 -3h-159q-3 0 -3 -2l-11 -90q-1 -2 0.5 -2.5t3.5 1.5q27 23 66 23q59 0 95 -37t36 -96q0 -64 -34.5 -100t-96.5 -36q-66 0 -98.5 36t-32.5 72q0 2 3 2h49q3 0 3 -2q0 -20 19 -41.5t57 -21.5q36 0 58 24.5t22 66.5
q0 38 -22.5 62.5t-57.5 24.5q-53 0 -76 -37q-1 -3 -6 -3h-42q-3 0 -3 3z" />
    <glyph glyph-name="six.numerator" unicode="&#xe040;" horiz-adv-x="309" 
d="M188 701l-63 -117q-1 -2 1 -3.5t3 -0.5q6 6 32 6q55 0 91.5 -37t36.5 -96q0 -60 -36.5 -97.5t-98.5 -37.5t-98 37.5t-36 97.5q0 41 21 78l93 170q1 3 3 3h48q4 0 3 -3zM235 453q0 42 -20.5 65.5t-60.5 23.5t-60 -23.5t-20 -65.5q0 -41 20.5 -65t59.5 -24q40 0 60.5 24
t20.5 65z" />
    <glyph glyph-name="seven.numerator" unicode="&#xe041;" horiz-adv-x="286" 
d="M266 701v-36q0 -5 -2 -9l-123 -329q-1 -3 -3 -3h-50q-4 0 -2 3l127 329q2 2 -2 2h-188q-3 0 -3 3v40q0 3 3 3h240q3 0 3 -3z" />
    <glyph glyph-name="eight.numerator" unicode="&#xe042;" horiz-adv-x="298" 
d="M149 319q-60 0 -94.5 29.5t-34.5 78.5q0 38 20.5 61t41.5 30q2 1 2 3t-2 3q-16 5 -35 26.5t-19 54.5q0 46 33.5 75.5t87.5 29.5q53 0 86.5 -29.5t33.5 -75.5q0 -32 -19 -54t-34 -27q-3 -1 -3 -3t3 -3q21 -7 41.5 -30t20.5 -61q0 -49 -35 -78.5t-94 -29.5zM149 364
q33 0 55 18t22 45q0 31 -22 50.5t-55 19.5t-55.5 -19.5t-22.5 -50.5q0 -27 22 -45t56 -18zM218 605q0 25 -19 42t-50 17t-50 -17t-19 -42q0 -26 19.5 -44t49.5 -18t49.5 18t19.5 44z" />
    <glyph glyph-name="nine.numerator" unicode="&#xe043;" horiz-adv-x="309" 
d="M121 332l63 117q1 2 -0.5 3.5t-3.5 0.5q-6 -6 -32 -6q-55 0 -91.5 37t-36.5 96q0 60 36.5 97.5t98.5 37.5t98 -37.5t36 -97.5q0 -41 -21 -78l-93 -170q-1 -3 -3 -3h-48q-4 0 -3 3zM74 580q0 -41 20.5 -65t60.5 -24q39 0 59.5 24t20.5 65q0 42 -20 65.5t-60 23.5
t-60.5 -23.5t-20.5 -65.5z" />
    <glyph glyph-name="onefifth" unicode="&#xe044;" 
d="M397 181l24 195q0 4 3 4h203q3 0 3 -3v-40q0 -3 -3 -3h-159q-3 0 -3 -2l-11 -90q-1 -2 0.5 -2.5t3.5 1.5q27 23 66 23q59 0 95 -37t36 -96q0 -64 -34.5 -100t-96.5 -36q-66 0 -98.5 36t-32.5 72q0 2 3 2h49q3 0 3 -2q0 -20 19 -41.5t57 -21.5q36 0 58 24.5t22 66.5
q0 38 -22.5 62.5t-57.5 24.5q-53 0 -76 -37q-2 -3 -6 -3h-42q-3 0 -3 3zM90 8l420 688q5 8 10 8h52q8 0 4 -8l-422 -688q-5 -8 -10 -8h-50q-8 0 -4 8zM152 667v35q0 3 3 3h46q2 0 2 -3v-374q0 -3 -2 -3h-46q-3 0 -3 3v249q0 16 -17 16h-82q-3 0 -3 3v37q0 3 3 3h67
q13 0 22.5 9t9.5 22z" />
    <glyph glyph-name="twofifths" unicode="&#xe045;" 
d="M15 326v37q0 5 3 8l150 146q46 42 46 77q-1 25 -19 47t-53 22q-30 0 -49.5 -19t-19.5 -45q0 -3 -2 -3h-46q-3 0 -3 3q0 48 34 79t86 31q57 0 90 -33t33 -82q0 -57 -60 -111l-119 -110q-1 -1 -0.5 -2.5t2.5 -1.5h174q3 0 3 -3v-40q0 -3 -3 -3h-244q-3 0 -3 3zM397 181
l24 195q0 4 3 4h203q3 0 3 -3v-40q0 -3 -3 -3h-159q-3 0 -3 -2l-11 -90q-1 -2 0.5 -2.5t3.5 1.5q27 23 66 23q59 0 95 -37t36 -96q0 -64 -34.5 -100t-96.5 -36q-66 0 -98.5 36t-32.5 72q0 2 3 2h49q3 0 3 -2q0 -20 19 -41.5t57 -21.5q36 0 58 24.5t22 66.5q0 38 -22.5 62.5
t-57.5 24.5q-53 0 -76 -37q-2 -3 -6 -3h-42q-3 0 -3 3zM90 8l420 688q5 8 10 8h52q8 0 4 -8l-422 -688q-5 -8 -10 -8h-50q-8 0 -4 8z" />
    <glyph glyph-name="threefifths" unicode="&#xe046;" 
d="M128 498v41q0 3 2 3h19q31 0 50 17t19 43q0 24 -19.5 42.5t-49.5 18.5q-28 -1 -48 -20.5t-19 -43.5q0 -3 -3 -3h-46q-3 0 -3 3q0 47 33.5 78t85.5 32q53 0 87 -30.5t34 -76.5q0 -33 -19.5 -55t-34.5 -24q-2 -1 -2 -3t2 -3q19 -4 40.5 -29t21.5 -62q0 -49 -34.5 -78.5
t-94.5 -29.5q-57 0 -89 31t-32 77q0 2 2 2h46q3 0 3 -2q0 -25 18.5 -44t51.5 -19q34 0 56 18t22 45q0 31 -22.5 50.5t-55.5 19.5h-19q-2 0 -2 2zM397 181l24 195q0 4 3 4h203q3 0 3 -3v-40q0 -3 -3 -3h-159q-3 0 -3 -2l-11 -90q-1 -2 0.5 -2.5t3.5 1.5q27 23 66 23
q59 0 95 -37t36 -96q0 -64 -34.5 -100t-96.5 -36q-66 0 -98.5 36t-32.5 72q0 2 3 2h49q3 0 3 -2q0 -20 19 -41.5t57 -21.5q36 0 58 24.5t22 66.5q0 38 -22.5 62.5t-57.5 24.5q-53 0 -76 -37q-2 -3 -6 -3h-42q-3 0 -3 3zM90 8l420 688q5 8 10 8h52q8 0 4 -8l-422 -688
q-5 -8 -10 -8h-50q-8 0 -4 8z" />
    <glyph glyph-name="fourfifths" unicode="&#xe047;" 
d="M190 704h45q3 0 3 -3v-241q0 -3 2 -3h60q3 0 3 -3v-40q0 -3 -3 -3h-60q-2 0 -2 -3v-81q0 -3 -3 -3h-46q-3 0 -3 3v81q0 3 -2 3h-178q-3 0 -3 3v37q0 5 2 9l179 241q2 3 6 3zM181 619l-116 -158q-2 -4 3 -4h116q2 0 2 3v158q0 2 -2 2.5t-3 -1.5zM409 181l24 195q0 4 3 4
h203q3 0 3 -3v-40q0 -3 -3 -3h-159q-3 0 -3 -2l-11 -90q-1 -2 0.5 -2.5t3.5 1.5q27 23 66 23q59 0 95 -37t36 -96q0 -64 -34.5 -100t-96.5 -36q-66 0 -98.5 36t-32.5 72q0 2 3 2h49q3 0 3 -2q0 -20 19 -41.5t57 -21.5q36 0 58 24.5t22 66.5q0 38 -22.5 62.5t-57.5 24.5
q-53 0 -76 -37q-2 -3 -6 -3h-42q-3 0 -3 3zM102 8l420 688q5 8 10 8h52q8 0 4 -8l-422 -688q-5 -8 -10 -8h-50q-8 0 -4 8z" />
    <glyph glyph-name="commaaccent" unicode="&#xf6c3;" horiz-adv-x="236" 
d="M106 -129h-22q-5 0 -5 5v69q0 5 5 5h68q5 0 5 -5v-71q0 -35 -20.5 -58.5t-52.5 -23.5q-5 0 -5 5v29q0 5 5 5q10 0 18.5 10t8.5 25q0 5 -5 5z" />
    <glyph glyph-name="uniF8FF" unicode="&#xf8ff;" horiz-adv-x="668" 
d="M480 702q0 -83 -43 -126q-42 -44 -95 -44h-1q-1 1 -2 1q0 67 42 113q47 47 99 56zM625 187q-46 -101 -87 -145q-39 -42 -88 -42q-20 0 -56 16q-32 13 -53 13q-23 0 -54 -13q-33 -16 -54 -16q-30 0 -55 19q-65 47 -105 134.5t-40 175.5q0 83 52.5 147.5t136.5 64.5
q24 0 68 -16q36 -14 51 -14q13 0 52 14q46 16 65 16q46 0 85 -18q35 -16 68 -52q-86 -60 -86 -140q0 -47 26.5 -85.5t73.5 -58.5z" />
    <glyph glyph-name="f_f" unicode="&#xfb00;" horiz-adv-x="634" 
d="M618 699v-75q0 -5 -5 -5h-66q-22 0 -34.5 -13.5t-12.5 -36.5v-58q0 -5 5 -5h108q5 0 5 -5v-65q0 -5 -5 -5h-108q-5 0 -5 -5v-421q0 -5 -5 -5h-85q-5 0 -5 5v421q0 5 -5 5h-198q-5 0 -5 -5v-421q0 -5 -5 -5h-85q-5 0 -5 5v421q0 5 -5 5h-89q-5 0 -5 5v65q0 5 5 5h89
q5 0 5 5v75q0 121 141 118h67q5 0 5 -5v-75q0 -5 -5 -5h-66q-22 0 -34.5 -13.5t-12.5 -36.5v-58q0 -5 5 -5h198q5 0 5 5v75q0 121 141 118h67q5 0 5 -5z" />
    <glyph glyph-name="fi" unicode="&#xfb01;" horiz-adv-x="566" 
d="M492 501v-496q0 -5 -5 -5h-85q-5 0 -5 5v421q0 5 -5 5h-190q-5 0 -5 -5v-421q0 -5 -5 -5h-85q-5 0 -5 5v421q0 5 -5 5h-89q-5 0 -5 5v65q0 5 5 5h89q5 0 5 5v75q0 121 141 118h67q5 0 5 -5v-75q0 -5 -5 -5h-66q-22 0 -34.5 -13.5t-12.5 -36.5v-58q0 -5 5 -5h285q5 0 5 -5
zM494 593h-100q-5 0 -5 5v101q0 5 5 5h100q5 0 5 -5v-101q0 -5 -5 -5z" />
    <glyph glyph-name="fl" unicode="&#xfb02;" horiz-adv-x="566" 
d="M492 699v-694q0 -5 -5 -5h-85q-5 0 -5 5v609q0 5 -5 5h-148q-22 0 -34.5 -13.5t-12.5 -36.5v-58q0 -5 5 -5h108q5 0 5 -5v-65q0 -5 -5 -5h-108q-5 0 -5 -5v-421q0 -5 -5 -5h-85q-5 0 -5 5v421q0 5 -5 5h-89q-5 0 -5 5v65q0 5 5 5h89q5 0 5 5v75q0 121 141 118h244
q5 0 5 -5z" />
    <glyph glyph-name="f_f_i" unicode="&#xfb03;" horiz-adv-x="824" 
d="M750 501v-496q0 -5 -5 -5h-85q-5 0 -5 5v421q0 5 -5 5h-175q-5 0 -5 -5v-421q0 -5 -5 -5h-85q-5 0 -5 5v421q0 5 -5 5h-168q-5 0 -5 -5v-421q0 -5 -5 -5h-85q-5 0 -5 5v421q0 5 -5 5h-89q-5 0 -5 5v65q0 5 5 5h89q5 0 5 5v75q0 121 141 118h67q5 0 5 -5v-75q0 -5 -5 -5
h-66q-22 0 -34.5 -13.5t-12.5 -36.5v-58q0 -5 5 -5h168q5 0 5 5v75q0 121 141 118h67q5 0 5 -5v-75q0 -5 -5 -5h-66q-22 0 -34.5 -13.5t-12.5 -36.5v-58q0 -5 5 -5h270q5 0 5 -5zM752 593h-100q-5 0 -5 5v101q0 5 5 5h100q5 0 5 -5v-101q0 -5 -5 -5z" />
    <glyph glyph-name="f_f_l" unicode="&#xfb04;" horiz-adv-x="829" 
d="M755 699v-694q0 -5 -5 -5h-85q-5 0 -5 5v609q0 5 -5 5h-138q-22 0 -34.5 -13.5t-12.5 -36.5v-58q0 -5 5 -5h108q5 0 5 -5v-65q0 -5 -5 -5h-108q-5 0 -5 -5v-421q0 -5 -5 -5h-85q-5 0 -5 5v421q0 5 -5 5h-168q-5 0 -5 -5v-421q0 -5 -5 -5h-85q-5 0 -5 5v421q0 5 -5 5h-89
q-5 0 -5 5v65q0 5 5 5h89q5 0 5 5v75q0 121 141 118h67q5 0 5 -5v-75q0 -5 -5 -5h-66q-22 0 -34.5 -13.5t-12.5 -36.5v-58q0 -5 5 -5h168q5 0 5 5v75q0 121 141 118h234q5 0 5 -5z" />
    <glyph glyph-name="longs_t" unicode="&#xfb05;" 
d="M204 292l25 110q1 6 -5 6h-122q-5 0 -5 5v59q0 5 5 5h140q5 0 6 4l48 209q1 4 6 4h54q7 0 5 -7l-47 -204q-2 -6 5 -6h102q5 0 6 5l48 208q1 4 6 4h54q7 0 5 -7l-47 -204q-1 -6 5 -6h120q5 0 5 -5v-59q0 -5 -5 -5h-138q-4 0 -6 -5l-26 -110q-2 -6 5 -6h120q5 0 5 -5v-59
q0 -5 -5 -5h-138q-4 0 -5 -4l-47 -210q-1 -4 -6 -4h-53q-7 0 -5 7l46 206q2 5 -4 5h-105q-3 0 -5 -5l-47 -209q-1 -4 -6 -4h-53q-7 0 -5 7l45 205q2 6 -4 6h-122q-5 0 -5 5v59q0 5 5 5h139q5 0 6 5zM404 408h-103q-5 0 -6 -5l-26 -109q-2 -7 5 -7h104q3 0 5 5l25 110
q2 6 -4 6z" />
    <glyph glyph-name="dollar.tnum" unicode="&#xff04;" 
d="M301 83v234q0 3 -3 3q-34 5 -62 12.5t-57.5 22.5t-49.5 35t-33 51.5t-13 71.5q0 84 62 137t151 62q5 0 5 5v80q0 5 4 5h69q5 0 5 -5v-84q0 -3 3 -4q83 -14 137.5 -64.5t58.5 -133.5q0 -5 -5 -5h-90q-5 0 -5 5q0 38 -25.5 68t-68.5 42q-5 2 -5 -4v-208q0 -5 5 -5
q49 -8 84.5 -19.5t68.5 -34t50.5 -61t17.5 -91.5q0 -77 -55 -136t-166 -70q-5 0 -5 -4v-83q0 -5 -5 -5h-69q-4 0 -4 5v82q0 5 -5 5q-106 9 -165.5 66t-59.5 135q0 5 5 5h89q6 0 6 -6q0 -36 33 -70t92 -44q5 1 5 5zM384 79q56 10 88.5 43t32.5 76q0 50 -32 75t-89 35
q-5 2 -5 -3v-221q0 -3 1 -4.5t4 -0.5zM296 626q-49 -8 -81 -39.5t-32 -73.5q0 -79 113 -97q5 -1 5 4v202q0 6 -5 4z" />
    <glyph glyph-name="cent.tnum" unicode="&#xffe0;" 
d="M485 171h90q6 0 5 -5q-39 -152 -191 -173q-5 0 -5 -4v-84q0 -5 -5 -5h-69q-4 0 -4 5v83q0 4 -3 5q-98 11 -153 81t-55 179t54.5 178.5t153.5 81.5q3 1 3 5v84q0 5 4 5h69q5 0 5 -5v-86q0 -2 2 -4q76 -10 126 -54.5t68 -117.5q1 -5 -5 -5h-90q-4 0 -6 5q-34 91 -138 91
q-70 0 -111 -49.5t-41 -128.5t41 -128.5t111 -49.5q104 0 138 91q2 5 6 5z" />
    <glyph glyph-name="sterling.tnum" unicode="&#xffe1;" 
d="M606 0h-535q-5 0 -5 5v75q0 5 5 5h34q54 0 54 50v181q0 5 -5 5h-83q-5 0 -5 5v75q0 5 5 5h83q5 0 5 5v102q0 93 63 147t158 54q100 0 163.5 -52t67.5 -151q0 -5 -5 -5h-90q-5 0 -5 5q0 53 -33.5 85.5t-97.5 32.5q-58 0 -92 -32.5t-34 -83.5v-102q0 -5 5 -5h126q5 0 5 -5
v-75q0 -5 -5 -5h-126q-5 0 -5 -5v-181q0 -26 -13 -45q-3 -5 2 -5h268q5 0 5 5v106q0 5 5 5h85q5 0 5 -5v-191q0 -5 -5 -5z" />
    <glyph glyph-name="yen.tnum" unicode="&#xffe5;" 
d="M386 298v-95q0 -5 5 -5h202q5 0 5 -5v-80q0 -5 -5 -5h-202q-5 0 -5 -5v-98q0 -5 -5 -5h-85q-5 0 -5 5v98q0 5 -5 5h-190q-5 0 -5 5v80q0 5 5 5h190q5 0 5 5v95v-1q0 6 -5 6h-190q-5 0 -5 5v80q0 5 5 5h136q5 0 2 5l-184 301q-3 5 3 5h101q5 0 8 -5l172 -286q4 -6 8 0
l173 286q4 5 10 5h99q6 0 3 -5l-186 -301q-3 -5 1 -5h151q5 0 5 -5v-80q0 -5 -5 -5h-202q-5 0 -5 -5z" />
    <glyph glyph-name="zero.tnum" unicode="&#x1d7f6;" 
d="M606 352q0 -363 -267 -363q-268 0 -268 363q0 362 268 362q267 0 267 -362zM506 352q0 138 -39 207.5t-128 69.5t-128 -69.5t-39 -207.5t39 -208t128 -70t128 70.5t39 207.5z" />
    <glyph glyph-name="one.tnum" unicode="&#x1d7f7;" 
d="M587 0h-497q-5 0 -5 5v75q0 5 5 5h192q5 0 5 5v376q0 14 -9.5 22t-21.5 8h-153q-5 0 -5 5v70q0 5 5 5h124q25 0 42.5 16.5t17.5 41.5v65q0 5 5 5h85q5 0 5 -5v-609q0 -5 5 -5h200q5 0 5 -5v-75q0 -5 -5 -5z" />
    <glyph glyph-name="two.tnum" unicode="&#x1d7f8;" 
d="M107 5v70q0 9 4 13l278 271q86 82 85 143q-1 47 -35 87t-98 40q-55 0 -91 -35.5t-36 -82.5q0 -5 -5 -5h-85q-5 0 -5 5q0 89 62.5 146t159.5 57q105 0 166.5 -61t61.5 -151q0 -107 -111 -206l-220 -203q-2 -1 -1 -4.5t5 -3.5h322q5 0 5 -5v-75q0 -5 -5 -5h-452q-5 0 -5 5z
" />
    <glyph glyph-name="three.tnum" unicode="&#x1d7f9;" 
d="M291 325v75q0 5 5 5h35q57 0 92.5 31.5t35.5 79.5q0 46 -35.5 79.5t-92.5 33.5q-53 -1 -89.5 -37t-35.5 -81q0 -5 -5 -5h-85q-5 0 -5 5q-1 88 61.5 145t158.5 58q99 0 161 -56t62 -142q0 -61 -35.5 -100.5t-63.5 -45.5q-5 -1 -5 -5t5 -5q36 -8 75.5 -54.5t39.5 -115.5
q0 -89 -64.5 -144.5t-174.5 -55.5q-106 0 -165.5 57.5t-59.5 142.5q0 5 5 5h85q5 0 5 -5q0 -45 34 -80t96 -35q61 0 102.5 33t41.5 82q0 58 -41 94t-103 36h-35q-5 0 -5 5z" />
    <glyph glyph-name="four.tnum" unicode="&#x1d7fa;" 
d="M406 704h84q5 0 5 -5v-448q0 -5 5 -5h111q5 0 5 -5v-75q0 -5 -5 -5h-111q-5 0 -5 -5v-151q0 -5 -5 -5h-85q-5 0 -5 5v151q0 5 -5 5h-329q-5 0 -5 5v70q0 9 3 15l332 448q3 5 10 5zM390 546l-215 -293q-1 -2 0.5 -4.5t4.5 -2.5h215q5 0 5 5v294q0 2 -2 3t-4.5 0.5
t-3.5 -2.5z" />
    <glyph glyph-name="five.tnum" unicode="&#x1d7fb;" 
d="M102 335l44 362q1 7 7 7h375q5 0 5 -5v-75q0 -5 -5 -5h-294q-5 0 -5 -5l-22 -165q0 -3 0.5 -4.5t3 -1t4.5 2.5q55 43 122 43q109 0 176.5 -68.5t67.5 -178.5q0 -118 -64 -185t-180 -67q-65 0 -115 21.5t-76 55t-38.5 65t-12.5 58.5q0 5 5 5h92q5 0 5 -5q0 -36 34.5 -75.5
t105.5 -39.5q66 0 107.5 45t41.5 122q0 71 -42 116.5t-107 45.5q-52 0 -84.5 -16.5t-56.5 -52.5q-3 -5 -11 -5h-78q-5 0 -5 5z" />
    <glyph glyph-name="six.tnum" unicode="&#x1d7fc;" 
d="M400 699l-116 -218q-2 -3 1 -6t6 -1q17 11 59 11q103 0 170 -68t67 -178q0 -111 -67 -180.5t-182 -69.5t-181.5 69.5t-66.5 180.5q0 76 38 145l172 315q2 5 7 5h88q7 0 5 -5zM487 239q0 77 -37.5 121t-111.5 44q-73 0 -110.5 -44t-37.5 -121t37.5 -121t110.5 -44
q74 0 111.5 44t37.5 121z" />
    <glyph glyph-name="seven.tnum" unicode="&#x1d7fd;" 
d="M566 699v-67q0 -10 -3 -18l-228 -609q-2 -5 -6 -5h-92q-6 0 -4 5l236 609q2 5 -4 5h-349q-5 0 -5 5v75q0 5 5 5h445q5 0 5 -5z" />
    <glyph glyph-name="eight.tnum" unicode="&#x1d7fe;" 
d="M338 -10q-110 0 -174.5 55.5t-64.5 144.5q0 38 13 70.5t32.5 52t37 31t32.5 16.5q4 1 4 5t-4 5q-28 9 -63.5 49.5t-35.5 101.5q0 85 62 139t161 54t161 -54t62 -139q0 -61 -35.5 -101.5t-63.5 -49.5q-4 -1 -4 -5t4 -5q15 -5 32.5 -16.5t37 -31t32.5 -52t13 -70.5
q0 -89 -64.5 -144.5t-174.5 -55.5zM338 75q61 0 102.5 33t41.5 82q0 58 -41 94t-103 36t-103 -36t-41 -94q0 -49 41.5 -82t102.5 -33zM466 521q0 45 -35.5 76.5t-92.5 31.5t-92.5 -31.5t-35.5 -76.5q0 -49 36 -82.5t92 -33.5t92 33.5t36 82.5z" />
    <glyph glyph-name="nine.tnum" unicode="&#x1d7ff;" 
d="M277 5l116 218q1 3 -1.5 6t-5.5 1q-16 -11 -59 -11q-103 0 -170 68t-67 178q0 111 67 180.5t182 69.5t181.5 -69.5t66.5 -180.5q0 -76 -38 -145l-172 -315q-3 -5 -7 -5h-88q-8 0 -5 5zM190 465q0 -77 37.5 -121t111.5 -44q73 0 110.5 44t37.5 121t-37.5 121t-110.5 44
q-74 0 -111.5 -44t-37.5 -121z" />
  </font>
</defs>
</svg>
